<?xml version="1.0" encoding="utf-8"?>
<!-- Generator: Adobe Illustrator 26.0.3, SVG Export Plug-In . SVG Version: 6.00 Build 0)  -->
<svg version="1.1" id="Layer_1" xmlns="http://www.w3.org/2000/svg" xmlns:xlink="http://www.w3.org/1999/xlink" x="0px" y="0px"
	 viewBox="0 0 450.3 191.4" style="enable-background:new 0 0 450.3 191.4;" xml:space="preserve">
<style type="text/css">
	.st0{fill:#00B0F5;}
	.st1{fill:#FFFFFF;}
</style>
<g>
	<path class="st0" d="M189.3,55.7V35.1c0-2.5-2.2-4.6-4.9-4.6s-4.9,2.1-4.9,4.6v13.8l-63.1-45c-1.7-1.2-3.9-1.2-5.6,0L3.5,78.8
		C1.7,80,1,82.2,1.6,84.2s2.5,3.4,4.6,3.4h25.5v96.6c0,2.7,2.2,4.9,4.9,4.9h77.2c2.7,0,4.9-2.2,4.9-4.9s-2.2-4.9-4.9-4.9H41.5V82.7
		c0-2.7-2.2-4.9-4.9-4.9H21.7l91.9-64.1L194.2,71H211L189.3,55.7z"/>
</g>
<g>
	<path class="st0" d="M402.7,103.9c-0.4-5.9-3.8-10.5-8.1-14.3c-3.7-3.3-9.7-6.5-11.5-11.4c-0.9-2.4-0.7-5.1,0-7.6
		c0.2-0.9-0.8-1.6-2.3-1c-3.4,1.4-17.4,7.5-22.8,25.7c-1.4,4.5-1.8,9.3-1,14c1.9,10.6,10.7,19.8,22.6,19.8
		c10.1,0,17.2-5.9,20.9-13.6C402.2,111.8,403,107.9,402.7,103.9z M379.5,117.6c-5.7,0-10.2-4.9-10.2-11c0-6,4.5-10.8,10.2-10.8
		c5.6,0,10.2,4.8,10.2,10.8C389.8,112.7,385.2,117.6,379.5,117.6z"/>
</g>
<g>
	<g>
		<path class="st1" d="M84.7,60.9c0-1,0.8-1.9,1.8-1.9h23.1c18.8,0,34.2,15.3,34.2,34c0,18.9-15.4,34.2-34.2,34.2H86.5
			c-1,0-1.8-0.9-1.8-1.9V60.9z M108.4,115.3c12.7,0,21.9-9.5,21.9-22.3c0-12.7-9.3-22.2-21.9-22.2H97.3v44.5H108.4z"/>
	</g>
	<g>
		<path class="st1" d="M170.1,87.3c10,0,18.2,7.6,18.2,18.1c0,0.7-0.1,1.9-0.2,2.6c-0.1,1-1,1.7-1.9,1.7h-24.9
			c0.3,4,3.7,8.5,9.4,8.5c3,0,5.8-1.2,7.6-2.4c1-0.6,1.9-0.8,2.5,0l4,4.6c0.7,0.7,0.9,1.8-0.1,2.5c-3.2,3-8.2,5.4-14.5,5.4
			c-11.7,0-20-9.3-20-20.5C150.3,96.7,158.5,87.3,170.1,87.3z M177,102.8c-0.3-3.6-3.4-6.6-7.1-6.6c-3.9,0-7.1,2.9-7.6,6.6H177z"/>
	</g>
	<g>
		<path class="st1" d="M193.4,90.5c-0.6-1.3,0.3-2.2,1.7-2.2h7c0.6,0,1.6,0.5,1.8,1.2l5.8,17.4h0.1l9.9-18.7
			c0.2-0.4,0.7-0.9,1.6-0.9h0.8c0.9,0,1.3,0.4,1.6,0.9l9.8,18.7h0.1l5.8-17.4c0.4-1.1,1.2-1.2,2.2-1.2h6.3c1.4,0,2.2,1,1.8,2.2
			l-12.2,36.6c-0.2,0.6-0.8,1.1-1.8,1.1h-0.4c-0.8,0-1.3-0.4-1.6-0.9l-12.3-22.7h-0.1l-12.2,22.7c-0.3,0.5-0.8,0.9-1.6,0.9H207
			c-0.9,0-1.5-0.5-1.7-1.1L193.4,90.5z"/>
	</g>
	<g>
		<path class="st1" d="M259.2,60.9c0-1,0.8-1.9,1.8-1.9h23c18.8,0,34.2,15.3,34.2,34c0,18.9-15.4,34.2-34.2,34.2h-23.1
			c-1,0-1.8-0.9-1.8-1.9V60.9H259.2z M282.8,115.3c12.7,0,21.9-9.5,21.9-22.3c0-12.7-9.3-22.2-21.9-22.2h-11.1v44.5H282.8z"/>
	</g>
	<g>
		<path class="st1" d="M327.5,90.1c0-1.1,0.9-1.9,1.9-1.9h3.7c0.9,0,1.5,0.5,1.8,1.3l1.4,3.8c1.4-1.9,5-6,11-6
			c4.6,0,8.7,1.5,7.5,3.9l-3.6,6.3c-0.5,0.9-1.5,1.3-2.2,0.9c-0.3-0.1-1.8-0.6-2.8-0.6c-3.9,0-6.2,2.6-6.9,4v23.6
			c0,1.4-0.9,1.9-2.2,1.9h-7.5c-1,0-1.9-0.9-1.9-1.9V90.1H327.5z"/>
	</g>
	<g>
		<path class="st1" d="M419.9,154.6c0,1.2-0.6,1.9-2.3,1.9h-7.8c-1,0-1.9-0.9-1.9-1.9V90.1c0-1.1,0.9-1.9,1.9-1.9h3.8
			c0.7,0,1.4,0.4,1.7,1.2l1.3,3.2c1.5-1.9,6.2-5.4,12.6-5.4c10.7,0,18.8,9.3,18.8,20.5c0,11.5-8.8,20.5-19.3,20.5
			c-3.8,0-7.3-1.4-8.7-2.1v28.5H419.9z M427,117.6c5.5,0,9.4-4.5,9.4-9.9c0-5.5-3.7-9.9-9.1-9.9c-5,0-7.4,3.9-8,5.9v11.7
			C419.4,115.4,422.1,117.6,427,117.6z"/>
	</g>
</g>
<g>
	<path class="st1" d="M84.7,139.9c0-0.3,0.3-0.7,0.7-0.7h2.3c0.4,0,0.7,0.3,0.7,0.7v9.8h12.8v-9.8c0-0.3,0.3-0.7,0.7-0.7h2.3
		c0.3,0,0.7,0.3,0.7,0.7v23.2c0,0.3-0.3,0.7-0.7,0.7h-2.3c-0.4,0-0.7-0.3-0.7-0.7V153H88.3v10.1c0,0.3-0.3,0.7-0.7,0.7h-2.3
		c-0.4,0-0.7-0.3-0.7-0.7L84.7,139.9L84.7,139.9z"/>
	<path class="st1" d="M125.9,138.9c7,0,12.6,5.6,12.6,12.6s-5.6,12.6-12.6,12.6c-7,0-12.6-5.6-12.6-12.6S118.9,138.9,125.9,138.9z
		 M125.9,160.6c5,0,9.1-4.1,9.1-9.1s-4.1-9.1-9.1-9.1c-5,0-9.1,4.2-9.1,9.1C116.8,156.5,120.9,160.6,125.9,160.6z"/>
	<path class="st1" d="M149.6,139.4c0.1-0.3,0.3-0.5,0.6-0.5h0.6c0.2,0,0.5,0.2,0.6,0.4l7.3,17.9h0.1l7.3-17.9
		c0.1-0.2,0.3-0.4,0.6-0.4h0.6c0.3,0,0.6,0.2,0.6,0.5l4.3,23.5c0.1,0.5-0.1,0.8-0.6,0.8h-2.3c-0.3,0-0.6-0.2-0.7-0.5l-2.6-15.6h-0.1
		l-6.3,16.1c-0.1,0.2-0.3,0.4-0.6,0.4h-0.6c-0.3,0-0.5-0.2-0.6-0.4l-6.3-16.1h-0.1l-2.5,15.6c0,0.2-0.3,0.5-0.6,0.5H146
		c-0.5,0-0.7-0.3-0.7-0.8L149.6,139.4z"/>
	<path class="st1" d="M180.9,139.9c0-0.3,0.3-0.7,0.7-0.7h14c0.4,0,0.7,0.3,0.7,0.7v2c0,0.3-0.3,0.7-0.7,0.7h-11.1v7.1h9.3
		c0.3,0,0.7,0.3,0.7,0.7v2c0,0.4-0.3,0.7-0.7,0.7h-9.3v7.5h11.1c0.4,0,0.7,0.3,0.7,0.7v1.9c0,0.3-0.3,0.7-0.7,0.7h-14
		c-0.4,0-0.7-0.3-0.7-0.7V139.9z"/>
	<path class="st1" d="M214.6,160.2c0.3-0.5,0.6-1,0.9-1.4c0.3-0.5,0.8-0.6,1.2-0.3c0.2,0.2,2.9,2.4,5.6,2.4c2.4,0,4-1.5,4-3.3
		c0-2.1-1.8-3.4-5.3-4.9c-3.6-1.5-6.4-3.4-6.4-7.4c0-2.7,2.1-6.5,7.7-6.5c3.5,0,6.1,1.8,6.5,2.1c0.3,0.2,0.6,0.7,0.2,1.2
		c-0.3,0.4-0.6,0.9-0.9,1.3c-0.3,0.5-0.7,0.7-1.2,0.4c-0.2-0.1-2.7-1.7-4.7-1.7c-2.9,0-4,1.9-4,3.1c0,2,1.5,3.2,4.4,4.4
		c4.1,1.6,7.5,3.6,7.5,7.8c0,3.6-3.3,6.6-7.8,6.6c-4.3,0-7-2.2-7.5-2.8C214.5,161.1,214.2,160.8,214.6,160.2z"/>
	<path class="st1" d="M238.5,139.9c0-0.3,0.3-0.7,0.7-0.7h14c0.4,0,0.7,0.3,0.7,0.7v2c0,0.3-0.3,0.7-0.7,0.7h-11.1v7.1h9.3
		c0.3,0,0.7,0.3,0.7,0.7v2c0,0.4-0.3,0.7-0.7,0.7h-9.3v7.5h11.1c0.4,0,0.7,0.3,0.7,0.7v1.9c0,0.3-0.3,0.7-0.7,0.7h-14
		c-0.4,0-0.7-0.3-0.7-0.7V139.9z"/>
	<path class="st1" d="M262.6,139.9c0-0.3,0.3-0.7,0.7-0.7h9.5c4.2,0,7.6,3.3,7.6,7.5c0,3.2-2.1,5.9-5.2,7.1l4.8,8.9
		c0.2,0.5,0,1-0.6,1h-2.7c-0.3,0-0.5-0.2-0.6-0.3l-4.7-9.3h-5.3v8.9c0,0.3-0.3,0.7-0.7,0.7h-2.3c-0.4,0-0.7-0.3-0.7-0.7v-23.1H262.6
		z M272.5,151.2c2.3,0,4.3-1.9,4.3-4.3c0-2.3-2-4.2-4.3-4.2h-6.2v8.5H272.5z"/>
	<path class="st1" d="M286.1,140.2c-0.2-0.5,0.1-0.9,0.6-0.9h2.5c0.3,0,0.5,0.2,0.6,0.4l7.7,17.3h0.2l7.7-17.3
		c0.1-0.2,0.3-0.4,0.6-0.4h2.5c0.5,0,0.8,0.5,0.6,0.9l-10.7,23.6c-0.1,0.2-0.3,0.4-0.6,0.4h-0.4c-0.2,0-0.5-0.2-0.6-0.4L286.1,140.2
		z"/>
	<path class="st1" d="M316.1,139.9c0-0.3,0.3-0.7,0.7-0.7h2.3c0.3,0,0.7,0.3,0.7,0.7v23.2c0,0.3-0.3,0.7-0.7,0.7h-2.3
		c-0.3,0-0.7-0.3-0.7-0.7V139.9z"/>
	<path class="st1" d="M340.9,138.9c3.5,0,6.1,1.2,8.5,3.3c0.3,0.3,0.3,0.7,0,1l-1.5,1.6c-0.2,0.3-0.6,0.3-0.9,0
		c-1.6-1.4-3.9-2.3-6.1-2.3c-5,0-8.8,4.2-8.8,9.1c0,4.9,3.8,9.1,8.8,9.1c2.6,0,4.3-1,6-2.3c0.3-0.2,0.6-0.2,0.8,0l1.6,1.6
		c0.3,0.2,0.2,0.7,0,0.9c-2.4,2.3-5.4,3.4-8.5,3.4c-7,0-12.6-5.6-12.6-12.6C328.2,144.5,333.9,138.9,340.9,138.9z"/>
	<path class="st1" d="M357.9,139.9c0-0.3,0.3-0.7,0.7-0.7h14c0.4,0,0.7,0.3,0.7,0.7v2c0,0.3-0.3,0.7-0.7,0.7h-11.1v7.1h9.3
		c0.3,0,0.7,0.3,0.7,0.7v2c0,0.4-0.3,0.7-0.7,0.7h-9.3v7.5h11.1c0.4,0,0.7,0.3,0.7,0.7v1.9c0,0.3-0.3,0.7-0.7,0.7h-14
		c-0.4,0-0.7-0.3-0.7-0.7V139.9z"/>
	<path class="st1" d="M380.4,160.2c0.3-0.5,0.6-1,0.9-1.4c0.3-0.5,0.8-0.6,1.2-0.3c0.2,0.2,2.9,2.4,5.6,2.4c2.4,0,4-1.5,4-3.3
		c0-2.1-1.8-3.4-5.3-4.9c-3.6-1.5-6.4-3.4-6.4-7.4c0-2.7,2.1-6.5,7.7-6.5c3.5,0,6.1,1.8,6.5,2.1c0.3,0.2,0.6,0.7,0.2,1.2
		c-0.3,0.4-0.6,0.9-0.9,1.3c-0.3,0.5-0.7,0.7-1.2,0.4c-0.2-0.1-2.7-1.7-4.7-1.7c-2.9,0-4,1.9-4,3.1c0,2,1.5,3.2,4.4,4.4
		c4.1,1.6,7.5,3.6,7.5,7.8c0,3.6-3.3,6.6-7.8,6.6c-4.3,0-7-2.2-7.5-2.8C380.3,161.1,380,160.8,380.4,160.2z"/>
</g>
</svg>
