<?xml version="1.0" encoding="utf-8"?>
<!-- Generator: Adobe Illustrator 26.0.3, SVG Export Plug-In . SVG Version: 6.00 Build 0)  -->
<svg version="1.1" id="Isolation_Mode" xmlns="http://www.w3.org/2000/svg" xmlns:xlink="http://www.w3.org/1999/xlink" x="0px"
	 y="0px" width="461.1px" height="153px" viewBox="0 0 461.1 153" style="enable-background:new 0 0 461.1 153;"
	 xml:space="preserve">
<style type="text/css">
	.st0{fill:#111111;}
</style>
<g>
	<path class="st0" d="M-366.4,84.9c0.9,0.9,0.5,52.1,0.5,76.6c0.2,0,0.4,0,0.6,0c1.1-1,2.4-0.5,3.6-0.5c208,0,416,0,624,0
		c193.4,0,386.8,0,580.2,0c0.9,0,1.8,0,2.7,0c1.3,0.1,1.8-0.6,1.7-1.8c0-0.9,0-1.8,0-2.7c0-24.5,0-49,0-73.5c0-1-0.4-2.2,0.5-3.1
		c0-0.9,0-1.8,0-2.7l0,0c-2.2,0-4.5,0-6.7-0.2c-3-0.2-6.1,0.5-9.1-0.4c0.4-3,0.2-5.9,0-8.9c-0.3-3.2-1.2-6.5,1-9.4
		c0.6-0.8,0.3-1.6-0.3-2.3c-3.1-3.5-6.6-6.6-10.5-9.3c-3.8-3.3-7.6-6.6-11-10.2c-3.4-4.1-7.2-7.8-11.5-11c-1-0.8-2-0.3-3,0.2
		c-2.9,1.5-5.8,3-8.6,4.7c-2.2,1.3-4.2,1.9-6.5,0.2c-0.5-0.4-1.2-0.6-1.9-0.6c0,0.1,0,0.2,0,0.3l-0.1,0.1c-0.4,0.2-0.8,0.5-1.2,0.5
		c-9,0-18.1,0-27.1,0c-0.2,0-0.4,0-0.5-0.1s0-0.3,0-0.4l0,0c0-0.2,0-0.3,0-0.5c0.2,0,0.4-0.1,0.6-0.1c0,0-0.1,0-0.1-0.1
		c-0.1-0.2-0.2-0.4-0.4-0.6c-1.5-1.2-2.8-2.5-4.1-3.9c-2.3-2.3-4.6-4.5-7.4-6.2c-2.1-1.9-4.3-3.9-6.4-5.8c-0.6-0.5-1.1-1.6-2.2-0.7
		c-2.4,1.9-4.8,2.7-7.5,0.5c-0.6-0.5-1.6-0.2-2.4-0.2c-6.9,0-13.7,0-20.6,0c-1.4,0-2.7,0-3.9,0.7c-1.5,1-2.3,0.2-2.9-1.1
		c-0.2-0.6-0.3-1.2-0.6-1.8c-0.6-1.1-1.5-1.8-2.8-1.7c-1.4,0.1-1.8,1.1-1.6,2.4c0.2,1.1-0.7,1.4-1.3,1.9c-0.3,0.8,0.2,1.4,0.4,2.1
		c-0.7,0.8-0.6,1.9-0.7,2.9c-0.1,0.9-0.3,1.9-1.1,2.4c-3.5,2-6,6-10.8,5.4c-0.7-0.1-1.4,0.5-2,0.8c-1.2,0.7-2.3,1.5-3.4,2.2
		s-2.1,1.3-2.7-0.5c-0.4-1-1.5-1.5-2.2-0.6c-1,1.3-2.8,2.5-2.8,4.1c-0.1,2.6-1.7,3.6-3.5,4.8c-1.1,0.7-2.1,1.5-3.1,2.2
		s-1.3,1.6-0.3,2.5c1.5,1.3,1.5,3,1.4,4.7c-0.1,2.6-0.7,5.2-0.5,7.9c0.4,6.7-0.8,13.4-0.5,20.1c0,0.7,0,1.5-0.5,2.1
		c-4.7,0.9-9.5,0.7-14.3,0.1c-0.8-0.9-0.5-2.1-0.5-3.1c0-6.8-0.1-13.5,0-20.3c0-4.1-0.3-8.3,0.2-12.5c1.1-1.6,2.9-0.4,4.2-1.2
		c1.8-2,0.1-3.3-1.1-4.5c-6.3-6.9-14.1-12.3-20.4-19.3c-2.2-2.4-2.6-2.3-5,0.1c-2.6,2.5-5.1,5.1-7.7,7.7c-0.8,0.8-1.5,1.6-2.5,2.1
		c-2.3,0.9-4.6,0.1-6.9,0.2c-0.2,0-0.4-0.1-0.6-0.2c0-0.5,0-0.9-0.1-1.4c0,0.6,0,1.2-0.1,1.9c-1.1-2.5-0.9-5,0-7.5
		c0.1,0.9,0.1,1.9,0.1,2.8c0-1.1,0.1-2.1,0-3.2c-0.1-0.3-0.3-0.5-0.6-0.6c-4.9-0.9-5.8-0.2-5.8,4.5c0,0.2,0,0.4,0,0.5
		c-0.1,3-0.3,3.2-3.3,3.3c-1.4,0.1-3.1-0.3-4.2,0.6c-3.8,2.9-7.2,6.4-10.2,10.1c-1.2,1.4-0.6,3,1.3,3.2c2.6,0.4,2.8,1.9,2.8,4
		c-0.1,8.8,0,17.6,0,26.3c0,1.7,0.1,3.4-0.1,5.2c-0.1,0.8-0.2,1.8-1.3,1.7c-0.1,0-0.1,0-0.2,0v0.1c-1,0-2,0-3,0
		c-1.2,0.1-2.5,0.1-3.7,0h-0.1l0,0c-0.8-0.1-1.6-0.2-2.4-0.5c0.2,0.2,0.4,0.4,0.7,0.6c-0.5,0-1,0-1.6,0.1c-0.8-4.8-0.2-9.5-0.3-14.3
		c0-2.5-0.6-5,0.3-7.5c0.6,0,1.2,0,1.7,0c2-1.6,1.6-2.1-0.9-4.9c-2.1-2.3-4.7-4.3-6.8-6.7c-1.8-2.1-4-2.8-6.7-2.7
		c-5.7,0.1-11.4,0.1-17.1,0c-0.7,0-1.7,0.1-1.8-0.8c-0.1-1,0.9-0.9,1.6-1c2.8-0.7,3.3-2.1,1.3-4.4c-2.4-2.8-5.2-5.3-7.8-7.9
		c-1.5-1.5-3-2.8-5.4-2.7c-1.3,0-2.1-0.9-3-1.7c-3.1-2.8-6-5.8-9-8.7c-2-2-2.4-1.9-4.4,0c-3.6,3.5-7.1,7.2-10.8,10.7
		c-0.1,0.1-0.2,0.1-0.2,0.2c0.2,0,0.4,0,0.6,0V25c0,0.2,0,0.3,0,0.5l0,0l0,0c-0.4,0.6-1.1,0.6-1.7,0.6c-7.7,0-15.4,0-23,0
		c-0.4,0-0.9-0.2-1.3-0.3l-0.1-0.2c0-0.1,0-0.2,0-0.3h-0.1c-1,0.2-1.7,0.9-2.4,1.6c-2.2,2.2-4.4,4.3-6.5,6.5
		c-1.2,1.3-3.1,2.4-2.4,4.5c0.8,2.1,3,1.1,4.5,1.5c0.3,0.1,0.5,0.2,0.6,0.4c0.1,11.5,0,23.1,0.1,34.6c0,0.7,0,1.5-0.5,2.1
		c-0.4,0.3-0.8,0.5-1.2,0.5c-5.2,0-10.3,0.3-15.5-0.2c0,0.1,0,0.3,0,0.4c-0.3-0.3-0.5-0.5-0.5-0.9c-0.5-0.7-0.3-1.5-0.3-2.3
		c0-3.5-0.1-7,0-10.5c0-1.8-0.4-3.6,0.4-5.3c0,0,0,0,0.1,0c0.3-0.6,1-0.6,3-0.6c0.2-0.1,0.5-0.2,0.7-0.3c1.3-2.1-0.2-3.5-1.5-4.6
		c-2.9-2.5-2-5.7-2-8.8c0-0.9,0.8-1,1.5-1.3c2.9-0.9,3.2-2.1,1.2-4.4c-2.2-2.4-4.6-4.6-6.9-7c-1.4-1.5-3-2.3-5-2.1
		c-1.5,0-3.1,0-4.6,0c-1.1,0-1.8-0.5-2.6-1.2c-1.4-1.4-2.9-2.9-4.3-4.3c-1.4-1.4-2.8-2.8-4.2-4.2c-1.1-1.2-2.3-1.4-3.5-0.2
		c-2.5,2.6-5.1,5.2-7.8,7.6c-0.5,0.7-1,1.2-1.7,1.7c-0.2,0.2-0.5,0.3-0.7,0.4c-1.4,0.4-2.9,0.2-4.3,0.2c-7.9,0.1-15.9-0.2-23.8,0.2
		c-4.1,2.7-7.2,6.6-10.6,10.1c-1.4,1.5-0.8,2.7,1.2,3c1.9,0.3,2.7,1.1,2.7,3c0.1,3-0.6,5.6-3.1,7.7c-2.7,2.4-2.2,3.8,1.2,4.7
		c1,0.3,1.7,0.7,1.6,1.8c-0.6,5.1,0,10.1-0.1,15.2c0,1.6-0.8,2.2-2.4,2.2c-2.7,0-5.4-0.1-8.2,0c-2.2,0.1-3-0.7-3-3
		c0.1-7.3,0-14.7,0-22c0-1.1-0.1-2.2,0.7-3.1c1.2-1.6,0.4-2.4-1-3.1c-2.9-1.5-6-2.6-8.9-4.1c-10-5-19.9-10-29.9-15
		c-1.6-0.8-3.1-1.5-4.9-1.4c-2,0.1-3.7-0.6-5.4-1.6c-1.4-0.9-2.7-1.8-4.1-2.7c-1.2-0.7-2.4-0.9-3.5,0.2c-1.4,1.4-2.8,1.2-4.4,0.6
		c-3.7-1.4-7.3-3.3-11.1-4.3c-0.3,0-0.6,0-0.9,0c-0.1,0-0.3,0.1-0.5,0.1c-7,0-14,0.3-21.1-0.2c-3.9-0.4-7.7-0.8-11.4,1.3
		c-5.1,3-10.3,5.7-15.4,8.7c-2.7,1.6-5.4,2.5-8.5,2.2c-1.4-0.1-2.9-0.1-4.3,0.4c-1.3,0.5-2.5,0.2-3.7-0.4c-5.9-2.8-12-5.2-17.8-8.1
		c-2-1-3.9-1-5.9,0.1c-2.3,1.1-4.7,2.4-7.2,3.1c-2.7,0.5-5.4,0.6-8.1,0.6c-3.4,0-6.3,1.2-7.3,4.5c-1,3.1-3.1,4.5-5.8,5.5
		c-4.5,2.2-8.8,4.6-13.4,6.6c-3,1.3-6,2.6-8.7,4.4c-2.3,1.5-2.5,3,0,3.8c3.7,1.2,3.6,3.5,3.1,6.4c-0.1,0.8,0,1.6,0,2.4
		c0,5.1,0,10.2,0,15.2c0,2-0.7,2.8-2.7,2.8c-2.1-0.1-4.2,0-6.3,0c-2.9,0-3.1-0.2-3.2-3.1c0-4.2,0-8.3,0-12.5c0-6.9,0-13.8,0-20.7
		c0-1.4-0.1-2.7,1.8-3.1c3.3-0.7,3.7-2.1,1.4-4.5c-2.9-3.1-6-6.1-9-9.1c-1.2-1.2-2.6-1.5-4.2-1.5c-3.3,0-6.5-0.1-9.8,0
		c-2.2,0.1-4-0.6-5.6-2.3c-2.7-2.9-5.7-5.6-8.5-8.4c-1.6-1.6-3-1.7-4.7-0.2c-2,1.8-4,3.7-5.7,5.8c-2.8,3.4-6,6-10.9,5.2
		c-1.2-0.2-2.5,0-3.8-0.1c-1.2-0.4-1-1.4-1-2.2c0-2.3-1.3-3.1-3.4-3.1c-3,0-3.7,0.4-4.1,3c-0.2,1.7-0.9,2.5-2.5,2.4
		c-2.4,0.2-5.1-0.8-7.1,0.9c-3.9,3.1-7.4,6.7-10.6,10.5c-1.5,1.8-0.8,3.2,1.5,3.7c0.4,0.1,0.9,0.1,1.3,0.2c1.1,0.2,1.4,1,1.5,2
		c0,1.1-0.6,1.6-1.7,1.7c-0.8,0.1-1.6,0.1-2.4,0.1c-10.2,0-20.3,0-30.5,0c-1.7,0-3.5,0-5,1.1c-3.2,2.2-6.2,4.7-9.3,7.1
		c-0.7,0.6-1.4,1.3-1.2,2.3c0.2,1.1,1.2,1.3,2.1,1.4c1.7,0.1,2.3,1.1,2.3,2.7c0,6.1,0,12.2,0,18.2c0,1.8-0.7,2.6-2.6,2.6
		c-3.7-0.1-7.4-0.1-11.2,0c-2,0-2.7-0.9-2.7-2.8c0-5.1,0-10.2,0-15.2c0-1,0.1-1.9,1-2.7c2.2-2,2.2-2.9,0.2-5.1
		c-2.5-2.7-5.1-5.2-7.7-7.7c-0.7-0.6-1.4-1.2-2.4-1.3c0,0.1,0,0.2,0,0.2l-0.1,0.1c-0.3,0.2-0.6,0.5-0.9,0.5c-11.6,0-23.1,0-34.7,0
		c-0.1,0-0.2,0-0.2-0.1s0-0.3-0.1-0.5c0-0.2,0-0.4,0-0.5l0,0c-0.5-2.5,0.2-3.9,3-3.4c0.6,0.1,1.2-0.1,1.8-0.2
		c-0.5,1.2-1.5,0.6-2.4,0.8c-0.7,0.1-1.8-0.4-1.7,1c0,0.1,0,0.1,0,0.2c0.2-0.7,0.7-1.1,1.9-1c0.8,0.1,1.6,0,2.3-0.5
		c1.2-1.7,0.1-2.9-1-4c-2.5-2.6-5.2-5.2-7.8-7.8c-0.9-0.9-1.7-1.9-3-2.1c-1.7-0.2-3.4-0.1-5.1-0.1c-7.7-0.3-15.5,0.3-23.2-0.1
		c-3.8,0.2-6.4-1.8-8.8-4.5c-1.9-2.2-4-4.2-6.1-6.2c-2-1.9-2.9-1.9-4.8,0c-2.8,2.6-5.5,5.2-8.1,8.1c-2.1,2.4-4.5,3.2-7.5,2.7
		c-1.6-0.2-3.1-0.2-4.4,1c-3.2,3-6.5,6.1-9.4,9.4c-1.9,2.2-1.3,3.6,1.5,4.1c0.7,0.1,1.5,0.1,2.1,0.6c0.6,1,0.4,2.1,0.4,3.2
		c0,9.2,0,18.4,0,27.7c0,3.9,0.3,5.5-0.6,6c0.1,0,0.2,0,0.3,0c-1,1.2-2.3,0.3-3.4,0.5c-1,0.2-2.1-0.3-3.1,0.4
		c-0.2,0-0.4-0.1-0.5-0.1c0.1-0.2,0.3-0.4,0.4-0.5c-0.1,0-0.2,0-0.3,0c-0.5,0-1.1,0-1.6,0c-3.6,0-3.8-0.2-3.8-3.9
		c0-5.4,0-10.9,0-16.3c0-1.5,0.3-2.7,2-3.1c1-0.2,2.1-0.7,2.1-1.8c0-1.2-1.2-1.4-2.1-1.7c-3.9-1.4-7.8-2.9-11.9-3.9
		c-3.3-0.8-3-3.2-3.4-5.6c-0.4-2.4,1.3-2.4,2.7-2.9c0.6-0.2,1.2-0.6,1.3-1.3c0.1-0.9-0.7-1.2-1.4-1.4c-1.4-0.5-2.8-0.9-4.1-1.3
		c-6.2-2.1-6.6-2.6-7.1-9c-0.2-2.8-1.7-4.1-4.2-3.7c-2.4,0.5-2.3,2.5-2.4,4.3c0,2.9,0,2.9-2.8,2c-6-2-12-4.1-18.1-6
		c-1.6-0.5-2.7-1.2-3.4-3.1c-1.1-3.3-4.7-4.3-7.7-2.5c-1.2,0.8-2.4,0.9-3.9,0.7c-2.3-0.3-4.5-1.3-6.9-0.6c-0.3,0.1-0.5,0.3-0.7,0.5
		c-4.4,0.6-8.8,0.2-13.2,0.2c-2,0-4.1,0.4-6.2-0.3c-3.4-2.7-3.8-2.5-7.6-0.2c-6.2,3.7-12.2,8.3-20,8.3c-1.1,0-2.1,0.6-3.1,1.1
		c-2.3,1.1-4.5,2.3-6.8,3.4c-3,1.5-3,1.5-3.1-1.8c-0.1-2.5,0.6-5.1-0.5-7.5c-0.5-1.3-0.9-2.6-2.7-2.7c-1.6,0-2,1.2-2.7,2.3
		c-1.3,2.2-0.5,4.4-0.5,6.6c0,5.8-0.1,5.9-5.7,6.2c-0.4,0.1-0.8,0.3-1.2,0.6c-2.4,0-4.9,0.1-7.3,0.1c-1.4,0-2.7,0.1-4,0.7
		c-17,7.5-34,15-51,22.5c0.8,1.6,2.3,2.1,3.8,2.1c1.8,0,1.8,0.9,1.7,2.2c-0.3,5-0.6,9.9-0.7,14.9c0,2-0.7,2.6-2.7,2.5
		c-6.4-0.1-12.9,0-19.3,0.1C-366.4,79.7-366.4,82.3-366.4,84.9z M-222.1,41.7c0-2.7,0-5.3,0-8c0.1,0,0.2,0,0.2,0c0,2.7,0,5.3,0,8
		C-221.9,41.7-222,41.7-222.1,41.7z M-221.4,35.5c0-1.4-0.2-2.6,2-2.5c2.1,0.1,1.7,1.3,1.7,2.5c0,0.7,0,1.4,0,2.2
		c0,0.9-0.1,1.8,0,2.7c0.1,1.4-0.5,1.8-1.9,1.8s-2-0.3-1.9-1.8C-221.3,38.8-221.4,37.2-221.4,35.5z M-197.7,24c0,0.3,0,0.5-0.1,1.2
		c-0.8-0.5-1.3-0.7-1.6-1.1c-0.6-0.7-2.2-0.8-1.7-2c0.3-0.8,1.5-0.3,2.3-0.3C-197.2,21.8-197.9,23.1-197.7,24z M-76.2,67.6
		c5.2,0,10.4,0,15.6,0c0,0.1,0,0.1,0,0.2c-5.2,0-10.4,0-15.6,0C-76.2,67.7-76.2,67.6-76.2,67.6z M21.7,71.4c2.9,0,5.7,0,8.6,0
		c0,0.1,0,0.2,0,0.2c-2.9,0-5.7,0-8.6,0C21.7,71.5,21.7,71.4,21.7,71.4z M209,64.3c0.1,1.9-0.5,2.6-2.4,2.4c-1.1-0.1-2.3,0-3.5,0.1
		c-0.3,0-0.6,0.1-0.8,0.1l0,0h-0.2h-0.2l0,0c-0.3,0-0.5-0.1-0.8-0.1c-1.8-0.4-4.5,0.8-5.4-0.6s-0.3-3.8-0.4-5.8c0-2.2,0-4.4,0-6.5
		c2.2-1,4.4-0.9,6.6,0l0,0c0.1,0,0.3,0,0.4,0l0,0l0,0c2.2-0.9,4.4-1,6.6,0C208.9,57.3,208.8,60.8,209,64.3z M209.6,66.2
		c0-3.9,0-7.9,0-11.8c0.1,0,0.2,0,0.2,0c0,3.9,0,7.9,0,11.8C209.7,66.2,209.7,66.2,209.6,66.2z M260.6,63.2c0,1.3-0.1,2.5,0,3.8
		c0.1,1.2-0.5,1.5-1.6,1.5c-1.2,0-1.3-0.6-1.3-1.5c0-2.7,0-5.4,0-8.1c0-1.1,0.4-1.3,1.4-1.3s1.5,0.3,1.4,1.4
		C260.6,60.3,260.6,61.7,260.6,63.2z M279,55.7c0.3,0.7-0.2,1.2-0.4,1.8c0.1,0.2,0.3,0.5,0.4,0.7c0.5-0.3,0.6,0,0.6,0.4
		c0,3,0,6,0,9.1c0,0.1-0.1,0.2-0.1,0.2c-0.2,0-0.3,0-0.5-0.1c-2.5,1.3-3.1,1-3.1-1.4c0-2.9,0-5.8,0-8.7l0,0c0-0.5,0-0.9,0-1.4
		c0.2-0.8-0.6-2.1,1.2-2.1C278.2,54.2,279.1,54.3,279,55.7L279,55.7L279,55.7z M476.2,74.1c1.7,0,3.5,0,5.2,0c0,0.1,0.1,0.2,0.1,0.2
		c-1.8,0-3.5,0-5.3,0C476.3,74.2,476.3,74.2,476.2,74.1z M484.4,74.1c1.7,0,3.5,0,5.2,0c0,0.1,0.1,0.2,0.1,0.2c-1.8,0-3.5,0-5.3,0
		C484.4,74.2,484.4,74.2,484.4,74.1z M492.1,74.1c1.9,0,3.9,0,5.8,0c0,0.1,0,0.1,0,0.2c-1.9,0-3.9,0-5.8,0
		C492.1,74.2,492.1,74.2,492.1,74.1z M669,60.3c1.5,0,3,0,4.5,0c1.3,0.7,0.7,1.9,0.7,2.9c0.1,2.6,0,5.2-0.6,7.8c0-2,0-4,0-6.1
		c-0.1,0.8-0.2,1.6-0.2,2.4c0,4.3,0,4.3-4.4,4.3c-1.3-0.8-0.8-2.2-0.7-3.2C668.7,65.7,667.5,62.9,669,60.3z M668.5,50.1
		c2.5,0,5,0,7.5,0c0,0.1,0,0.2,0,0.2c-2.5,0-5,0-7.4,0C668.5,50.3,668.5,50.2,668.5,50.1z M721.6,68.7c0.1,1,0.6,2.2-0.7,2.9
		c-1.5,0-2.9,0-4.4,0l0,0l0,0c-1-0.4-0.8-1.3-0.8-2c0-2.9,0.1-5.8,0.1-8.7c0,0,0.1-0.1,0.2-0.1s0.2,0.1,0.2,0.1
		c1.6-0.9,3.2-0.9,4.8,0C722.3,63.4,721.4,66.1,721.6,68.7z M748,59.8c0.6,0.1,0.9,0.6,0.8,1.2c-0.3,2.9,0.7,5.8-0.6,8.6
		c-3.6,0-3.6,0-3.6-3.7c0-0.7,0.1-1.4,0-2.1C744.2,61,745,59.5,748,59.8L748,59.8L748,59.8z M813.4,62.3c3.1,0.1,6.1,0.1,9.2,0.1
		c1.3,0,1.5,0.5,1.5,1.6c0,2.1-0.1,4.2,0.4,6.2c0-2,0-4.1,0-6.1c0.2,0,0.4,0,0.7,0c-0.4,2.5,0.5,5.1-0.3,7.6c0,0.4-0.2,0.7-0.4,1.1
		c-1.8,0.2-3.7,0.3-5.5,0.5c1.7,0.1,3.4,0.2,5,0.3c-4-0.1-8,1.2-11.9-0.3c-0.1-3.1-0.1-6.1-0.3-9.2C811.7,62.7,812,62.3,813.4,62.3z
		 M798.3,34c2.4-0.2,1.2,1.9,1.7,2.6c0,1.2,0.5,2.3-1.2,2.3c-2.1,0.1-1.4-1.5-1.4-2.4C797.4,35.7,796.3,34.2,798.3,34z M780.4,65.7
		c-0.3-2.5,0.8-3.2,3.2-3c3.1,0.2,6.1,0.2,9.2,0.1c1.5,0,2,0.5,2,2c0,2.4,0.1,4.9,0.3,7.3c0.1,1.2-0.3,1.6-1.5,1.6
		c-3.8,0-7.6,0-11.4,0.2c-2.1,0.1-1.1-1.7-1.7-2.4l0,0l0,0c-0.3,0.5,0.1,1.3-0.7,2C780.2,70.8,779.4,68.2,780.4,65.7z M754.3,63.7
		c-0.1,0.7,0,1.4,0,2.2c0,3.7,0,3.7-3.7,3.7c-0.8-3.3-1.3-6.5,0.3-9.7C753.8,59.5,754.8,60.9,754.3,63.7z M742.9,43.1
		c-0.1-0.9,0.9-0.7,1.4-0.7c2.7,0,5.4,0,8.1,0c1.2,0,1.7,0.3,1.6,1.5c-0.1,2,0.2,4-0.3,5.9c-3.3,1.4-6.8,0.4-10.2,0.5
		c0,0-0.1-0.1-0.1-0.2c0-0.1,0.1-0.2,0.1-0.2C742.2,47.7,743.1,45.3,742.9,43.1z M740.9,59.9c1.3,0,2.1,0.2,1.9,1.8c-0.1,1,0,2,0,3
		c0,0.9-0.1,1.8,0,2.7c0.2,1.6-0.3,2.2-2.1,2.2c-1.8,0-1.8-0.9-1.7-2.2c0-1.9,0.1-3.8,0-5.7C738.9,60.2,739.5,59.9,740.9,59.9z
		 M731.5,20.3c2.3-0.1,1.2,1.7,1.5,2.6c0,1.1,0.3,2.2-1.3,2c-2.6-0.2-1-2.2-1.5-3.3C729.7,20.6,730.6,20.4,731.5,20.3z M726.6,62
		c0,2.7-0.1,5.4,0,8.1c0.1,2-1.1,1.6-2.3,1.6c-1.1,0-2.4,0.4-2.3-1.6c0.1-1.3,0-2.7,0-4c0-1,0-2,0-3c0-2.6,1-3.3,3.6-2.7
		C726.9,60.6,726.6,61.3,726.6,62z M713.5,42.2c3.4,0.1,6.9,0.1,10.3,0c1.6-0.1,1.8,0.6,1.7,1.9c-0.1,2.6-0.1,5.2-0.1,7.9
		c-0.5,0.9-1.4,0.7-2.2,0.6c-3.8-0.3-7.6,0.8-11.4-0.6c0-2.7,0-5.4-0.1-8.1C711.8,42.6,712.2,42.2,713.5,42.2z M713,60.4
		c1-0.1,2.3-0.5,2.2,1.4c-0.1,1.4,0,2.9,0,4.3c0,1,0,2,0,3c0,2.5-1.2,3.3-3.7,2.6c-0.7-0.2-0.8-0.6-0.8-1.1c0-3,0-5.9,0-8.9
		C710.7,59.7,712.1,60.4,713,60.4z M690.7,11.5c0.2,0.1,0.3,0.3,0.5,0.5c-0.2,0.3-0.2,0.6-0.4,0.7c-0.4,0.1-0.6-0.3-0.6-0.6
		C690.2,11.8,690.5,11.7,690.7,11.5z M688.4,73.8c0.1-3,0-6,0-9c0.1-3.9,3-6.7,7-6.9c4-0.1,7.2,2.4,7.5,6.3
		c0.2,3.6,0.1,7.3,0.3,10.9c0.1,1.6-0.8,1.5-1.9,1.4c-1-0.1-2.5,0.5-2.4-1.5c0.1-3.5-0.1-7.1,0.1-10.6c0.1-1.7-0.3-2.4-2.2-2.3
		c-3.9,0.1-4,0-4,3.8c0,1.2,0,2.4,0,3.5c0,1.5,0,2.9,0,4.4c0.1,1.5,0.2,2.8-2.1,2.7C688.6,76.4,688.4,75.5,688.4,73.8z M677.4,60.3
		c1-0.1,2-0.3,1.9,1.4c-0.1,1.3,0,2.7,0,4.1c0,1.1,0,2.2,0,3.3c0,2.6-1.1,3.4-3.6,2.7c-0.7-0.2-0.8-0.6-0.8-1.2c0-3,0-6,0-8.9
		C674.8,59.4,676.4,60.5,677.4,60.3z M671.8,41.8c4.7,0,4.7,0,4.7,4.3c0,3.5,0,3.5-4.4,3.5c-4.3,0-4.3,0-4.3-4.2
		C667.8,41.8,667.8,41.8,671.8,41.8z M663.2,70c0.1-1.3,0-2.7,0-4.1c0,0,0,0,0.1,0c0-1,0-2,0-3c0-2.6,1.1-3.4,3.6-2.7
		c0.9,0.2,0.9,0.8,0.9,1.4c0,2.8-0.1,5.6,0,8.4c0.1,2.2-1.5,1.5-2.6,1.6C663.9,71.8,663.1,71.6,663.2,70z M662.5,60.9
		c0.1,0,0.1,0,0.2,0c0,3.4,0,6.8,0,10.2c-0.1,0-0.1,0-0.2,0C662.5,67.6,662.5,64.3,662.5,60.9z M638.9,41.1c0-0.7-0.2-1.5,0.5-2
		c0,12.7,0.1,25.4,0.1,38.1c-0.8-0.6-0.6-1.4-0.6-2.2C638.9,63.6,638.9,52.4,638.9,41.1z M622.8,34.3c0.1,0,0.1,0,0.2,0
		c0,4.1,0,8.2,0,12.3c-0.1,0-0.1,0-0.2,0C622.8,42.5,622.8,38.4,622.8,34.3z M615.5,35.5c0-0.7-0.1-1.5,0.8-1.8l0,0l0,0
		c5.9-0.4,5.9-0.4,5.9,5.5c0,1.5,0,3.1,0,4.6c0,3.7,0,3.7-3.8,3.6c-0.7,0-1.4-0.1-2.2-0.2c-0.9-0.4-0.7-1.2-0.7-1.9
		C615.5,42,615.5,38.8,615.5,35.5z M615.6,60.2c2.8,0.1,5.6,0.1,8.4,0c1.3,0,1.8,0.4,1.7,1.7c-0.1,2.5,0,5.1,0,8.1
		c-0.2,2.4,1.2,6.2-0.6,7.8c-1.6,1.4-5.3,0.4-8.1,0.5c-3.7,0-3.7,0-3.7-3.7c0-4.1,0.1-8.2,0-12.2C613.3,60.5,613.9,60.1,615.6,60.2z
		 M593.7,60c0.3-2.6,2.1-4.3,4.4-4.4c2.3-0.1,4.5,1.7,4.7,4.3c0.3,3.2,0.1,6.5,0.2,9.8c0,0.8-0.4,1.1-1.1,1.1c-0.8,0-1.6,0-2.4,0
		c-5.8,0-5.8,0-5.7-5.9C593.6,63.2,593.5,61.6,593.7,60z M592.8,60.3c0.1,0,0.1,0,0.2,0c0,3.2,0,6.4,0,9.6c-0.1,0-0.1,0-0.2,0
		C592.8,66.7,592.8,63.5,592.8,60.3z M555.3,57.5c1.7,0.1,3.4,0.1,5.1,0.1c0.4,0.2,0.7,0.6,0.7,1.1c0,4.7,0,9.4,0,14.1
		c0,0.5-0.2,0.9-0.6,1.1c-0.2,0.2-0.4,0.3-0.6,0.5c-1.8,1.4-3.8,0.4-5.8,0.5v-0.2c0-0.1,0.1-0.1,0.1-0.2c-0.8-0.4-0.7-1.2-0.7-1.9
		c0-4.4,0.1-8.8,0-13.2C553.5,57.8,553.9,57.3,555.3,57.5z M540.5,57.4c1.7,0.1,3.4,0.1,5.1,0.2c0.2,0.2,0.6,0.3,0.6,0.5
		c0.1,5.1,0.1,10.2,0.1,15.3c0,1-0.6,1.4-1.6,1.5l0,0c-1.8-0.1-3.6-0.1-5.4-0.2v-0.2c0-0.1,0.1-0.1,0.1-0.2
		c-0.9-0.4-0.7-1.1-0.7-1.8c0-4.4,0.1-8.8,0-13.3C538.7,57.8,539.1,57.3,540.5,57.4z M525.7,61.4c0.3-0.2,0.6-0.1,0.6,0.2
		c0,5.5,0,10.9,0,16.4c0,0.1-0.1,0.2-0.1,0.2c-0.2,0-0.3-0.1-0.5-0.1c-4.3,0.1-8.7,0.1-13,0.2c-1.2,0-1.5-0.4-1.5-1.6
		c0.1-4.7,0-9.4,0-14.1c0-0.7-0.2-1.7,0.9-1.6C516.5,61.2,521.1,60.3,525.7,61.4z M521.5,47.9c0.1,0,0.2,0,0.2,0c0,2.1,0,4.2,0,6.4
		c-0.1,0-0.2,0-0.2,0C521.5,52.1,521.5,50,521.5,47.9z M520.6,47.5c0.9,1.8,0.4,4.4,0.3,6.6c-0.1,1.3-1.3,0.7-1.9,0.7
		c-1.2-0.1-2.6,0.7-3.5-0.6c-1-2.3-1-4.6,0.1-6.9C517.3,47,520,46.3,520.6,47.5z M512.1,24.7c0.9,0.1,1.8-0.1,2.7,0.3
		c0.9,2.5,1.2,5-0.2,7.5c-5.4,0.1-5.3,0.1-5.5-4.9C509.1,25.1,509.8,24.3,512.1,24.7z M499.2,57.7c0.1,0,0.1,0,0.2,0
		c0,5,0,10,0,15.1c-0.1,0-0.1,0-0.2,0C499.2,67.7,499.2,62.7,499.2,57.7z M498.4,56.1c0,0.1,0,0.1,0,0.2c-1.9,0-3.9,0-5.8,0
		c0-0.1,0-0.1,0-0.2C494.5,56.1,496.4,56.1,498.4,56.1z M493.3,56.8c5.3-0.3,5.3-0.4,5.3,4.8c0,3.3-0.1,6.5,0,9.8
		c0.1,1.6-0.3,2.2-2.1,2.2c-4.7,0-4.7,0.1-4.7-4.6c0-1.3,0-2.5,0-3.8c0-2.3,0-4.5,0-6.8C491.8,57.3,492.1,56.9,493.3,56.8z
		 M491,57.2c0.1,0,0.1,0,0.2,0c0,5.2,0,10.4,0,15.6c-0.1,0-0.1,0-0.2,0C491,67.6,491,62.4,491,57.2z M490.4,61.7c0,1.2,0,2.3,0,3.5
		c0,2.2-0.1,4.3,0,6.5c0,1.3-0.2,1.9-1.7,1.9c-5.1,0.1-5.1,0.2-5.1-5c0-3.2,0.1-6.5,0-9.7c0-1.5,0.3-2,1.9-2
		C490.4,56.7,490.4,56.7,490.4,61.7z M484,56c1.9,0,3.7,0,5.6,0c0,0.1,0,0.2,0,0.2c-1.9,0-3.8,0-5.7,0C483.9,56.2,484,56.1,484,56z
		 M483.5,37.5c0.1,0,0.2,0.1,0.2,0.1c0,2.2,0,4.5,0,6.7c-0.1,0-0.2,0-0.2,0C483.5,42,483.5,39.8,483.5,37.5z M483.1,73.2
		c-0.1,0-0.1,0-0.2,0c0-5.2,0-10.4,0-15.6c0.1,0,0.1,0,0.2,0C483.1,62.8,483.1,68,483.1,73.2z M477.3,37.5c0,2.5,0,5,0,7.6
		c0.2,0,0.4,0,0.6,0c-0.7-2.2-0.2-4.5-0.3-6.7c-0.1-2.1,1.6-1.4,2.5-1.3c1,0.1,2.8-1,2.8,1.2s0.3,4.5-0.2,6.7
		c-1.8,1-3.6,0.9-5.4,0.1l0,0l0,0C476,42.6,477.1,40,477.3,37.5z M481.5,56c0,0.1,0,0.2,0,0.2c-1.8,0-3.5,0-5.3,0c0-0.1,0-0.2,0-0.2
		C478,56,479.7,56,481.5,56z M477.4,56.8c4.8,0,4.8-0.1,4.8,4.8c0,1.2,0,2.4,0,3.5c0,2.1-0.1,4.2,0,6.3c0.1,1.6-0.2,2.2-2,2.2
		c-4.9,0-4.9,0.1-4.9-4.8c0-3.3,0.1-6.5,0-9.8C475.3,57.4,475.7,56.8,477.4,56.8z M474.7,57.2c0.1,0,0.1,0,0.2,0
		c0,5.2,0,10.4,0,15.6c-0.1,0-0.1,0-0.2,0C474.7,67.6,474.7,62.4,474.7,57.2z M468,39.1c0,11.9,0,23.8,0,35.7c0,0.6,0.1,1.3-0.5,1.8
		c0-12.9,0-25.8-0.1-38.6C468.5,37.9,468,38.7,468,39.1z M449.1,56.5c-0.2,6.9-0.3,13.8,0,20.6c-0.7-0.3-0.7-1-0.7-1.6
		c0-5.8,0-11.6,0-17.4C448.4,57.5,448.4,56.8,449.1,56.5z M441.5,62c0.1,0,0.2,0,0.3,0c0,5.2,0,10.4,0,15.6c-0.1,0-0.2,0-0.3-0.1
		C441.5,72.3,441.5,67.2,441.5,62z M432,52.6c0.1-0.5,0-1.1,0-1.6c0-2.4,2.2-3.8,4.3-2.6c1.3,0.8,0.2,2.3,0.7,3.4
		c-0.5,1.4,1.1,3.7-2.3,3.6C432.5,55.4,431.6,54.8,432,52.6z M439.3,61.3c1.3,0,1.7,0.4,1.7,1.7c-0.1,4.5-0.1,9,0,13.5
		c0,1.6-0.7,1.7-1.9,1.7c-3.7-0.1-7.4,0-11.1-0.1c-0.2-0.2-0.5-0.4-0.6-0.5c-0.3-5.2-0.3-10.5,0-15.7c0-0.2,0.4-0.4,0.5-0.6
		C431.7,61.4,435.5,61.4,439.3,61.3z M428.5,35.8c0.1,0,0.2,0,0.2,0c0,3,0,6.1,0,9.1c-0.1,0-0.2,0-0.2,0
		C428.5,41.9,428.5,38.9,428.5,35.8z M418.6,35.3c0-0.1,0.4,0.3,0.5,0.6c1.5-4,4.3-5.3,6.9-3.4c1,0.7,1.7,1.7,1.8,2.9
		c0.1,3.5,0.5,7-0.2,10.5c0.3,0.4,0.2,0.6-0.3,0.6c-2.5,0-5,0-7.5,0c-0.1,0-0.2-0.1-0.2-0.1c0-0.2,0.1-0.3,0.1-0.5
		c-0.2-0.2-0.4-0.3-0.6-0.5C417.7,42.2,418.8,38.7,418.6,35.3z M414.1,26.5c-0.2,0.9-0.8,1.3-1.6,1.7
		C412.5,27.1,413,26.6,414.1,26.5z M407.2,60.9c0.1,0,0.2,0,0.2,0c0,2.8,0,5.7,0,8.6c-0.1,0-0.2-0.1-0.2-0.1
		C407.2,66.5,407.2,63.7,407.2,60.9z M406.7,41.3c0.1,0,0.2,0,0.2,0c0,1.9,0,3.9,0,5.8c-0.1-0.1-0.2-0.2-0.2-0.2
		C406.7,45.1,406.7,43.2,406.7,41.3z M401.2,45.4c0.1-0.6,0-1.3,0-1.9c0-2.6,1.9-3.9,4.3-2.8c1.5,0.8,0.3,2.4,0.7,3.4
		c0,2,0.6,4.1-2.7,3.7C401.7,47.7,400.9,47.3,401.2,45.4z M392.7,59.8c0.1,0.4,0.2,0.8,0.3,1.2c1.3-5.7,9.1-5.7,12.1-3.1
		c1.1,1,1.7,2.1,1.7,3.6c0,2.4-0.1,4.7,0,7.1c0.1,1.4-0.4,1.9-1.8,1.9c-3.7,0-7.4-0.3-11.1,0.2c4.2,0,8.4,0,12.6,0
		c0,0.2,0,0.4,0,0.6c-4.3,0-8.7,0-13,0l0,0c-0.9-0.4-1.1-1.1-1.1-2C392.4,66,392.4,62.9,392.7,59.8z M386.1,40.7
		c1.7,0.2,3.5-0.8,5.1,0.6c1.3,1.8,0.4,3.9,0.4,5.8h-0.2c-0.1,0-0.1-0.1-0.2-0.1c-1.8,1.1-3.5,1.1-5.3,0
		C385,44.9,384.7,42.8,386.1,40.7z M347.1,56.9c0-1.5-0.3-2.7,2.1-2.7c2.3,0,1.8,1.4,1.8,2.7c0,0.7,0,1.4,0,2.2c0,0.9-0.1,1.8,0,2.7
		c0.2,1.6-0.4,2.2-2.1,2.2c-1.7,0-1.9-0.8-1.8-2.1C347.2,60.1,347.2,58.5,347.1,56.9z M346.2,55c0.1,0,0.1,0,0.2,0c0,2.7,0,5.3,0,8
		c-0.1,0-0.1,0-0.2,0C346.2,60.3,346.2,57.6,346.2,55z M341.8,56.3c-0.1-1.4,0.3-2,1.9-2.1c1.8,0,2.2,0.6,2,2.2
		c-0.1,0.9,0,1.8,0,2.7s-0.1,1.8,0,2.7c0.1,1.4-0.2,2.1-1.9,2.1c-1.8,0-2.2-0.6-2-2.2C341.9,59.9,341.9,58.1,341.8,56.3z
		 M312.8,51.9c0.4-3.8,4.2-6.9,8.5-6.9s8,2.9,8.7,6.7c0.2,1.2,0,1.6-1.3,1.6c-4.8,0.1-9.6,0.2-14.4,0.4
		C312.9,53.7,312.7,53.1,312.8,51.9z M313.1,54.9c1.7,0,3.4,0,5.1,0c0.4,0,0.9,0,1.3,0c1.7,0.3,3.7-0.7,5.3,0.7
		c0.3-0.2,0.5-0.4,0.8-0.6c5.3,0,5.3,0,5.2,5.1c0,5-0.3,5.2-5.4,4c-0.3,0.4-0.5,0.2-0.7-0.1c-1.6,1.1-3.4,0.1-5.1,0.6
		c-0.4-0.1-0.9-0.3-1.3-0.4l-0.1,0.1v0.2l0,0l0,0c-1.6,1.3-3.2,1.1-4.8,0.1c-0.2-0.2-0.3-0.4-0.5-0.6c-1.2,0.1-0.6-0.9-0.6-1.2
		C312.7,60.2,311.4,57.4,313.1,54.9z M308.6,27.1c1.5,0,3,0.8,2.9,2.1c-0.2,1.9-2.2,0.4-3.2,1.1c-0.9-0.7-2.6,1-2.7-0.9
		C305.5,28,307,27.1,308.6,27.1z M302.6,70.3c0,1.5-0.4,2-2,2c-1.5,0-2.5-0.1-2.2-2c0.3-1.5-0.1-2.8-1.3-3.9
		c0.9-2.1,0.5-4.3,0.5-6.4c-0.1-2.1-1.8-1.1-2.9-1.3c-1.3-0.2-2,0.4-1.9,1.8c0,3.9,0,7.7,0,11.6c0,0.1-0.1,0.2-0.2,0.2
		c-0.2,0-0.3-0.1-0.4-0.2c-4.2,0.3-4.2,0.3-4.2-3.9c0-3.9,0-7.8,0-11.7c0.5-1,1.4-0.6,2.2-0.6c3.4,0,6.9,0,10.3,0
		c0.8,0,1.7-0.3,2.2,0.6C302.5,61.1,302.5,65.7,302.6,70.3z M294,48.1c3.4-0.5,6.6,1.3,8,4.3c0.9,1.9,0.3,2.6-1.7,2.5
		c-4.2,0.6-8.4,1-12.5,0l0,0l0,0l0,0l0,0C288.2,51,290.4,48.6,294,48.1z M289.5,17.4c-1.2,0.8-2.5,0.4-3.7,0.4
		c-5.3,0.1-10.5,0-15.8,0c-1,0-2,0.4-2.8-0.5C274.6,17.2,282,17,289.5,17.4z M264.8,54.3c2.3,0.2,4.6,0.2,7,0
		c1.8-0.1,2.2,0.6,1.9,2.2c0,0.4,0,0.8,0,1.2c0,3,0,6,0.1,9c0,1.3-0.3,2-1.8,1.9c-2.5-0.1-5.1-0.1-7.6,0c-1.2,0-1.6-0.4-1.5-1.6
		c0.1-3.1,0-6.2,0-9.2c0-0.4,0-0.9,0-1.3C262.6,54.8,263,54.1,264.8,54.3z M259.2,54.2c0.9,0,1.7,0.1,1.4,1.2
		c0.1,1.5-0.9,1.2-1.7,1.2c-0.8,0.1-1.3-0.2-1.3-1.2C257.7,54.2,258.4,54.2,259.2,54.2z M216.4,60.2c0,1.1-0.1,2.2,0,3.2
		c0.4,2.6-0.5,3.3-3.2,3.3c-2.6,0-3.2-0.8-3-3.2c0.2-2.6,0.1-5.2,0-7.8c-0.1-1.6,0.4-2.1,2-1.9c0.6,0.1,1.3,0.1,1.9,0
		c1.9-0.3,2.6,0.5,2.4,2.4C216.3,57.5,216.4,58.8,216.4,60.2z M195.3,49.4c1.8-5,4.7-8.6,10.5-8.7c5.3-0.1,10.3,4.8,10.6,10.1
		c0.1,1-0.2,1.3-1.1,1.3c-1.7,0-3.4,0.1-5.2,0.1c-4.7,1-9.4,0.5-14.1,0.3C193.9,52.5,194.7,50.6,195.3,49.4z M174.6,55.1
		c1.2,0.1,1.7,0.3,1.7,1.7c-0.1,3.2-0.2,6.3,0,9.5c0.1,2.2-1.3,1.6-2.5,1.7c-1.3,0.1-2.3,0.1-2.1-1.7c0.2-1.6,0-3.2,0-4.9
		c0-1.2,0.2-2.4,0-3.5C171.4,55.4,172.5,55,174.6,55.1z M165.4,58.3c0-3.4,1.4-4.1,4.9-2.3c0.4-0.1,1-0.4,1,0.3c0,3.6,0,7.2,0,10.7
		c0,0.7-0.5,0.8-1.1,0.9c-4.8,0.3-4.8,0.3-4.8-4.4C165.4,61.7,165.4,60,165.4,58.3z M122.8,68.4c0.2-3.2,0.2-6.3,0-9.5
		c-0.1-1.9,0.6-2.4,2.3-2.2c0.7,0.1,1.5,0.1,2.2,0c1.3-0.1,1.7,0.4,1.7,1.7c-0.1,2,0,4,0,6c0,1.3-0.2,2.6,0,3.8
		c0.5,2.7-0.7,3.2-3.2,3.2C123.4,71.3,122.6,70.8,122.8,68.4z M121.9,57.1c0.1,0,0.2,0,0.3,0c0,4.5,0,8.9,0,13.4
		c-0.1,0-0.2,0.1-0.3,0.1C121.9,66,121.9,61.6,121.9,57.1z M103.1,30.9c0.6,0.1,1.3,0.1,1.9,0c1.6-0.2,2.3,0.3,2.2,2
		c-0.2,1.8,0,3.6,0,5.4c0,1.7-0.1,3.4,0,5.1c0.2,1.8-0.6,2.1-2.1,2.1c-4,0-4,0-4-3.9c0-2.9,0.1-5.8,0-8.7
		C100.8,31.3,101.4,30.7,103.1,30.9z M100.2,31.6c0.1,0,0.1,0,0.2,0c0,4.5,0,8.9,0,13.4c-0.1,0-0.1,0-0.2,0
		C100.2,40.5,100.2,36.1,100.2,31.6z M98.5,58.3c3.9,0,7.9,0,11.8,0c-0.1,0.1-0.2,0.2-0.2,0.3c-3.9,0-7.7,0-11.6,0
		C98.5,58.4,98.5,58.3,98.5,58.3z M99.5,59.1c3.3,0.1,6.5,0.1,9.8,0c1.4,0,1.7,0.5,1.6,1.7c-0.1,5.2-0.1,10.5,0,15.7
		c0,1.3-0.4,1.7-1.7,1.7c-3.3-0.1-6.5-0.1-9.8,0c-1.4,0-1.7-0.5-1.6-1.7c0.1-2.6,0-5.2,0-7.9c0-2.6,0.1-5.2,0-7.9
		C97.8,59.4,98.2,59,99.5,59.1z M74.6,43.3c-0.1-0.8,0-1.6,0-2.4c0-6,0-6,6.2-5.6c0.6,0.2,0.7,0.7,0.7,1.3c0,3.8,0,7.6,0,11.4
		c0,0.6-0.1,1.1-0.7,1.4c-0.1,0.2-0.3,0.3-0.4,0.5l0,0l0,0c-1.7,1.3-3.6,0.5-5.4,0.5l-0.1-0.2c0-0.1,0.1-0.2,0.1-0.2l0,0l0,0
		C73.9,47.8,74.8,45.5,74.6,43.3z M41.8,60.3c0.1-3.4,2.3-5.6,5.1-5.5c2.7,0.1,4.6,2.3,4.7,5.6c0,1.4,0,2.9,0,4.3
		c0,6.1,0,6.1-6.1,6.1c-3.7,0-3.7,0-3.7-3.7C41.8,64.8,41.7,62.6,41.8,60.3z M21,59.8c0.2-3,2.2-5,4.7-5c2.5-0.1,4.6,1.9,5,4.8
		c0.2,1.7,0,3.4,0,5.2c0.1,6,0.1,6-6,6c-3.8,0-3.8,0-3.8-3.9C20.9,64.5,20.8,62.1,21,59.8z M20.2,59.8c0.1,0,0.1,0,0.2,0
		c0,3.4,0,6.8,0,10.2c-0.1,0-0.1,0-0.2,0C20.2,66.5,20.2,63.2,20.2,59.8z M-41.3,60.3c0.1,0,0.2,0,0.2,0c0,5.2,0,10.4,0,15.6
		c-0.1,0-0.2-0.1-0.2-0.1C-41.3,70.7-41.3,65.5-41.3,60.3z M-46.5,59.7c4.7,0,4.7,0,4.7,4.6c0,1.3,0,2.5,0,3.8c0,2.3,0,4.5,0,6.8
		c0,1.1-0.4,1.5-1.6,1.6c-5.3,0.3-5.3,0.4-5.3-4.9c0-3.3,0.1-6.5,0-9.8C-48.7,60.2-48.2,59.7-46.5,59.7z M-76.8,57
		c0-0.2,0-0.4,0-0.5c0.5-3.2,4.4-5.2,9.2-4.9c4.4,0.2,7.3,2.4,7.5,5.6c0,0.5,0,0.9,0,1.4c-0.2,2.8,1.2,6.5-0.6,8.1
		c-1.5,1.3-5.2,0.3-7.9,0.3c0,0.1,0,0.1,0,0.2c-2.3,0-4.5,0-6.8,0c-1.2,0-1.6-0.4-1.6-1.6C-76.7,62.6-76.8,59.8-76.8,57z
		 M-87.5,36.9c3.8-0.1,2,2.5,2.4,3.8c0,0.5,0,0.8,0,1c0,2.8-2.2,4.2-4.8,3.1c-0.7-0.3-0.6-0.8-0.6-1.3c0-1.2,0.1-2.4,0-3.5
		C-90.9,37.6-90,37-87.5,36.9z M-90.6,54.6c0.5-1.4-1.3-3.9,2.4-3.9c2.6,0,3.6,0.7,3.2,3.3c-0.1,0.4,0,0.9,0,1.4
		c0,2.9-2.1,4.4-4.7,3.1C-91.4,57.7-90.1,55.9-90.6,54.6z M-94.1,60.3c0.1,0,0.2,0,0.2,0c0,5.2,0,10.4,0,15.6c-0.1,0-0.2,0-0.2,0
		C-94.1,70.7-94.1,65.5-94.1,60.3z M-106.8,29.3c0.2-1.4,0.4-0.1,0.6,0.1c0.3-0.7,0.5-1.4,0.8-2c1.1-1.9,2.7-3,4.9-2.5
		c2.3,0.5,3.6,2.2,3.8,4.4c0.2,3.2,0.1,6.5,0.1,9.8c0,1-0.4,1.2-1.3,1.2c-2.8-0.1-5.6,0.3-8.4-0.2c-1.3-1.6-0.5-3.4-0.6-5.1
		C-106.9,33.1-107,31.2-106.8,29.3z M-108.5,60.2c1.5-1.4,5.1-0.4,7.8-0.4c5.9,0,5.9,0,5.9,5.8c0,3-0.1,6,0,8.9c0,1.5-0.3,2.1-1.9,2
		c-3.5-0.1-7-0.1-10.6,0c-1.4,0-2-0.3-1.9-1.8c0.1-2.2,0-4.3,0-7C-108.7,65.5-110.2,61.8-108.5,60.2z M-114.9,37
		c1.2,0,1.8,0.3,1.7,1.7c-0.1,1,0,2,0,3c0,3.1-1.7,4.3-4.6,3.3c-0.7-0.2-0.8-0.7-0.8-1.2c0-1,0-2,0-3
		C-118.6,36.8-118.6,36.9-114.9,37z M-118.6,54c0-2.8,2.3-4.4,4.7-3c1.5,0.8,0.3,2.6,0.6,3.7c0,4.3,0,4.2-3.9,4
		c-1.2-0.1-1.5-0.6-1.5-1.7C-118.6,56-118.6,55-118.6,54z M-159,61.5c-0.1-1.6,0.1-3.3,0.1-5h0.2c0.1,0,0.1,0.1,0.2,0.1
		c1.4-1.3,3.1-0.5,4.6-0.6c0.9,0,0.6,0.9,0.6,1.5c0,2.3-0.1,4.7,0.1,7c0.2,2.1-0.6,2.8-2.6,2.4c-0.9-0.1-1.8-0.2-2.7-0.3
		C-159.8,65.2-158.9,63.2-159,61.5z M-165.6,38.1c1,0,1.3,0.4,1.2,1.3c0.1,0.9-0.4,1.2-1.3,1.2c-1.1,0-1-0.7-1.1-1.4
		C-166.8,38.3-166.3,38.1-165.6,38.1z M-170.6,55.5c0.1,0,0.2-0.1,0.2-0.1c0.5,4.4,1,8.7-0.3,13c-5.8,1-5.8,1-5.8-4.6
		c0-2.3,0.1-4.5,0-6.8c-0.1-1.9,0.6-2.4,2.3-2.1C-173,55.1-171.6,54.3-170.6,55.5z M-178.1,36c0-0.1,0.1-0.2,0.1-0.2
		c0.2,0,0.3,0.1,0.5,0.1l0,0c1.3-1.3,2.9-0.4,4.4-0.6c0.9-0.1,0.9,0.7,0.9,1.3c0,1.6,0,3.3,0,4.9c0,3.8-1.6,4.6-5.3,2.8
		c-0.4,0.3-0.6,0.1-0.6-0.3C-178.1,41.3-178.1,38.7-178.1,36z M-184.2,56.7c0,3.3-0.1,6.7,0.1,10c0.1,1.7-0.5,2.3-2.1,2.1
		c-1.2-0.2-2.5,0.2-3.7-0.3c-1.1-0.8-0.6-2-0.6-3c-0.1-3.3,0-6.5,0-9.8c0-0.1,0.1-0.2,0.1-0.2c0.2,0,0.3,0,0.5,0
		c1.6-1.2,3.4-0.5,5.2-0.5C-183.8,54.9-184.2,56-184.2,56.7z M-190.7,38.1c-0.1-1.8-0.1-3,2.4-2.9c2.3,0.1,2.8,0.8,2.6,2.8
		c-0.1,0.7,0,1.4,0,2.2c0,0.7-0.1,1.5,0,2.2c0.3,2-0.3,2.8-2.6,2.7c-1.8-0.1-2.7-0.3-2.4-2.4C-190.6,41.2-190.6,39.6-190.7,38.1z
		 M-199.4,18.4c1-0.1,1.7,0.1,1.7,1.4c0,1.5-1.1,1.1-1.3,1.1c-1.6,0.1-2.4,0.2-2.5-1.2C-201.4,18.1-200.3,18.5-199.4,18.4z
		 M-205.3,37.5c0-0.8,0.1-1.6,0-2.4c-0.2-1.5,0.4-2,1.9-2c1.7,0,2,0.6,1.9,2.1c-0.1,1.6-0.1,3.3,0,4.9c0,1.3,0,2.2-1.8,2.2
		s-2.2-0.7-2.1-2.2C-205.2,39.2-205.3,38.4-205.3,37.5z M-205.7,54.5c0.2,0.6,0.3,0.8,0.3,1c0,5.5,0,11-0.3,16.5
		C-205.7,66.4-205.7,60.6-205.7,54.5z M-206.3,56c-0.1,2.4,0,4.9,0,7.3c0,2.6-0.1,5.2,0,7.9c0,1.3-0.3,1.7-1.6,1.7
		c-3.3-0.1-6.5-0.1-9.8,0c-1.4,0-1.9-0.3-1.9-1.8c0.1-5.1,0.1-10.1,0-15.2c0-1.3,0.3-1.7,1.6-1.7c3.3,0.1,6.7,0.1,10,0
		C-206.4,54.1-206.2,54.8-206.3,56z M-207.2,53.5c-3.9,0-7.8,0-11.7,0c0-0.1,0.1-0.2,0.1-0.3c3.9,0,7.7,0,11.6,0
		C-207.2,53.4-207.2,53.4-207.2,53.5z M-217.2,41.7c0-2.7,0-5.3,0-8c0.1,0,0.2,0.1,0.2,0.1c0,2.6,0,5.3,0,7.9
		C-217,41.7-217.1,41.7-217.2,41.7z M-208.7,35.3c0.1-0.2,0.3-0.4,0.4-0.6c0,2.5,1,5.1-0.6,7.5c-5.8,0.2-5.7,0.2-5.7-5.4
		c0-1.7,0.2-3.3,2.2-3.8C-210.4,32.5-209.4,33.7-208.7,35.3z M-233.5,16.1c6.8,0,13.7-0.1,20.5-0.1c-0.3,0.6-0.8,0.7-1.3,0.7
		c-6.3,0-12.5,0-18.8,0c-0.2,0-0.4-0.1-0.4-0.2C-233.7,16.5-233.6,16.3-233.5,16.1z M-237,19.1c1-0.1,1.8,0,1.7,1.4
		c0,1.6-1.1,1-1.6,1.1c-1.3,0.1-2.1,0.1-2.1-1.3C-238.9,18.8-237.9,19.1-237,19.1z M-237.2,22.7c0.8,0,1.8-0.4,1.9,1.1
		c0,1.5-0.7,1.6-1.8,1.5c-1.1,0.1-2,0.1-1.9-1.4C-239,22.3-238,22.7-237.2,22.7z M-239.1,59.5c0,3.7,0,7.4-0.1,11.1
		c0,0-0.1,0.1-0.2,0.1c-0.1,0-0.2-0.1-0.3-0.1c-1.6,0.9-3.3,0.3-5,0.4c-1.3,0.1-1.1-0.9-1.1-1.7c0-3.8,0-7.6,0-11.4
		c0-1.4,0.5-1.7,1.7-1.6c1.4,0.1,2.9,0.1,4.3,0.2C-238.6,57.3-239.1,58.5-239.1,59.5z M-240,36.5c0.1,0,0.1,0,0.2,0
		c0,2.8,0,5.7,0,8.5c-0.1,0-0.1,0-0.2,0C-240,42.1-240,39.3-240,36.5z M-243,35.5c2.1,0,2.6,0.7,2.4,2.6c-0.1,1.5-0.1,3.1,0,4.6
		c0.2,2-0.1,3-2.6,3c-2.3,0-3-0.7-2.7-2.9c0.1-0.8,0-1.6,0-2.4c0-0.6,0.1-1.3,0-1.9C-246.3,36.1-245.4,35.5-243,35.5z M-246.6,36.4
		c0.1,0,0.1,0,0.2,0c0,2.9,0,5.7,0,8.6c-0.1,0-0.1,0-0.2,0C-246.6,42.1-246.6,39.2-246.6,36.4z M-254.1,57.1c0.1,0,0.2,0,0.2,0
		c0,4.5,0,9,0,13.4c-0.1,0-0.2,0-0.2,0C-254.1,66-254.1,61.6-254.1,57.1z M-254.7,57.9c0,3.8,0,7.6,0,11.4c0,1.3-0.4,1.7-1.7,1.8
		c-4.2,0.2-4.2,0.3-4.2-4.1c0-1.1,0-2.2,0-3.3c0-1.3-0.1-2.5,0-3.8c0.1-1.1-0.6-2.9,0.4-3.3c1.4-0.6,3.2-0.3,4.8-0.2
		C-254.4,56.4-254.7,57.3-254.7,57.9z M-260.8,43.1c0.2-1.9,0.1-3.8,0-5.7c-0.2-2.4,1.5-1.8,2.7-1.8c1.1,0,2.9-0.8,2.7,1.7
		c-0.1,1.2,0,2.3,0,3.5c0,0.6-0.1,1.3,0,1.9c0.4,2.4-0.5,3-2.9,2.9C-260.4,45.6-260.9,45.1-260.8,43.1z M-261.3,57.2
		c0.1,0,0.2,0,0.2,0c0,4.5,0,8.9,0,13.4c-0.1,0-0.2,0-0.2,0C-261.3,66.1-261.3,61.6-261.3,57.2z M-275.3,60.4c0.6-1.2,3-0.9,4.5,0
		c1.4,1.8,0.4,3.9,0.5,5.8c0,0-0.2,0.1-0.2,0c-0.1,0-0.2-0.1-0.2-0.1c-1.5,1.2-4.1,1.1-4.5,0.2C-276,64.6-276.1,62.1-275.3,60.4z
		 M-300.9,60.7c0.1-1.8,2.4-0.5,3.7-0.8c1.2-0.3,1.5,0.5,1.5,1.6c-0.1,3.5-0.1,7-0.1,10.6c-1.5,1.4-3.2,0.5-4.8,0.6
		c0,0-0.1-0.1-0.1-0.2s0.1-0.2,0.1-0.2C-301.6,68.4-301.1,64.5-300.9,60.7z M-325.2,60.3c1.7,0.1,2.4,0.4,2.3,2.2
		c-0.2,2.6-0.2,5.2,0,7.8c0.2,2.4-1,2.3-2.7,2.3c-1.7,0-3,0-2.7-2.3c0.2-1.3,0-2.7,0-4.1l0,0c0-1,0.1-2,0-3
		C-328.7,60.7-327.5,60.2-325.2,60.3z"/>
</g>
</svg>
