<?xml version="1.0" encoding="utf-8"?>
<!-- Generator: Adobe Illustrator 26.0.3, SVG Export Plug-In . SVG Version: 6.00 Build 0)  -->
<svg version="1.1" id="Isolation_Mode" xmlns="http://www.w3.org/2000/svg" xmlns:xlink="http://www.w3.org/1999/xlink" x="0px"
	 y="0px" width="1200px" height="127.9px" viewBox="0 0 1200 127.9" style="enable-background:new 0 0 1200 127.9;"
	 xml:space="preserve">
<style type="text/css">
	.st0{fill:#111111;}
</style>
<g>
	<path class="st0" d="M-8.5,84.9C-7.6,85.8-8,137-8,161.5c0.2,0,0.4,0,0.6,0c1.1-1,2.4-0.5,3.6-0.5c208,0,416,0,624,0
		c193.4,0,386.8,0,580.2,0c0.9,0,1.8,0,2.7,0c1.3,0.1,1.8-0.6,1.7-1.8c0-0.9,0-1.8,0-2.7c0-24.5,0-49,0-73.5c0-1-0.4-2.2,0.5-3.1
		c0-0.9,0-1.8,0-2.7c0,0,0,0,0,0c-2.2,0-4.5,0-6.7-0.2c-3-0.2-6.1,0.5-9.1-0.4c0.4-3,0.2-5.9,0-8.9c-0.3-3.2-1.2-6.5,1-9.4
		c0.6-0.8,0.3-1.6-0.3-2.3c-3.1-3.5-6.6-6.6-10.5-9.3c-3.8-3.3-7.6-6.6-11-10.2c-3.4-4.1-7.2-7.8-11.5-11c-1-0.8-2-0.3-3,0.2
		c-2.9,1.5-5.8,3-8.6,4.7c-2.2,1.3-4.2,1.9-6.5,0.2c-0.5-0.4-1.2-0.6-1.9-0.6c0,0.1,0,0.2,0,0.3c0,0-0.1,0.1-0.1,0.1
		c-0.4,0.2-0.8,0.5-1.2,0.5c-9,0-18.1,0-27.1,0c-0.2,0-0.4,0-0.5-0.1c-0.1-0.1,0-0.3,0-0.4c0,0,0,0,0,0c0-0.2,0-0.3,0-0.5
		c0.2,0,0.4-0.1,0.6-0.1c0,0-0.1,0-0.1-0.1c-0.1-0.2-0.2-0.4-0.4-0.6c-1.5-1.2-2.8-2.5-4.1-3.9c-2.3-2.3-4.6-4.5-7.4-6.2
		c-2.1-1.9-4.3-3.9-6.4-5.8c-0.6-0.5-1.1-1.6-2.2-0.7c-2.4,1.9-4.8,2.7-7.5,0.5c-0.6-0.5-1.6-0.2-2.4-0.2c-6.9,0-13.7,0-20.6,0
		c-1.4,0-2.7,0-3.9,0.7c-1.5,1-2.3,0.2-2.9-1.1c-0.2-0.6-0.3-1.2-0.6-1.8c-0.6-1.1-1.5-1.8-2.8-1.7c-1.4,0.1-1.8,1.1-1.6,2.4
		c0.2,1.1-0.7,1.4-1.3,1.9c-0.3,0.8,0.2,1.4,0.4,2.1c-0.7,0.8-0.6,1.9-0.7,2.9c-0.1,0.9-0.3,1.9-1.1,2.4c-3.5,2-6,6-10.8,5.4
		c-0.7-0.1-1.4,0.5-2,0.8c-1.2,0.7-2.3,1.5-3.4,2.2c-1.1,0.7-2.1,1.3-2.7-0.5c-0.4-1-1.5-1.5-2.2-0.6c-1,1.3-2.8,2.5-2.8,4.1
		c-0.1,2.6-1.7,3.6-3.5,4.8c-1.1,0.7-2.1,1.5-3.1,2.2c-1,0.7-1.3,1.6-0.3,2.5c1.5,1.3,1.5,3,1.4,4.7c-0.1,2.6-0.7,5.2-0.5,7.9
		c0.4,6.7-0.8,13.4-0.5,20.1c0,0.7,0,1.5-0.5,2.1c-4.7,0.9-9.5,0.7-14.3,0.1c-0.8-0.9-0.5-2.1-0.5-3.1c0-6.8-0.1-13.5,0-20.3
		c0-4.1-0.3-8.3,0.2-12.5c1.1-1.6,2.9-0.4,4.2-1.2c1.8-2,0.1-3.3-1.1-4.5c-6.3-6.9-14.1-12.3-20.4-19.3c-2.2-2.4-2.6-2.3-5,0.1
		c-2.6,2.5-5.1,5.1-7.7,7.7c-0.8,0.8-1.5,1.6-2.5,2.1c-2.3,0.9-4.6,0.1-6.9,0.2c-0.2,0-0.4-0.1-0.6-0.2c0-0.5,0-0.9-0.1-1.4
		c0,0.6,0,1.2-0.1,1.9c-1.1-2.5-0.9-5,0-7.5c0.1,0.9,0.1,1.9,0.1,2.8c0-1.1,0.1-2.1,0-3.2c-0.1-0.3-0.3-0.5-0.6-0.6
		c-4.9-0.9-5.8-0.2-5.8,4.5c0,0.2,0,0.4,0,0.5c-0.1,3-0.3,3.2-3.3,3.3c-1.4,0.1-3.1-0.3-4.2,0.6c-3.8,2.9-7.2,6.4-10.2,10.1
		c-1.2,1.4-0.6,3,1.3,3.2c2.6,0.4,2.8,1.9,2.8,4c-0.1,8.8,0,17.6,0,26.3c0,1.7,0.1,3.4-0.1,5.2c-0.1,0.8-0.2,1.8-1.3,1.7
		c-0.1,0-0.1,0-0.2,0c0,0,0,0.1,0,0.1c-1,0-2,0-3,0c-1.2,0.1-2.5,0.1-3.7,0c0,0-0.1,0-0.1,0c0,0,0,0,0,0c-0.8-0.1-1.6-0.2-2.4-0.5
		c0.2,0.2,0.4,0.4,0.7,0.6c-0.5,0-1,0-1.6,0.1c-0.8-4.8-0.2-9.5-0.3-14.3c0-2.5-0.6-5,0.3-7.5c0.6,0,1.2,0,1.7,0
		c2-1.6,1.6-2.1-0.9-4.9c-2.1-2.3-4.7-4.3-6.8-6.7c-1.8-2.1-4-2.8-6.7-2.7c-5.7,0.1-11.4,0.1-17.1,0c-0.7,0-1.7,0.1-1.8-0.8
		c-0.1-1,0.9-0.9,1.6-1c2.8-0.7,3.3-2.1,1.3-4.4c-2.4-2.8-5.2-5.3-7.8-7.9c-1.5-1.5-3-2.8-5.4-2.7c-1.3,0-2.1-0.9-3-1.7
		c-3.1-2.8-6-5.8-9-8.7c-2-2-2.4-1.9-4.4,0c-3.6,3.5-7.1,7.2-10.8,10.7c-0.1,0.1-0.2,0.1-0.2,0.2c0.2,0,0.4,0,0.6,0l0,0.3
		c0,0.2,0,0.3,0,0.5c0,0,0,0,0,0c0,0,0,0,0,0c-0.4,0.6-1.1,0.6-1.7,0.6c-7.7,0-15.4,0-23,0c-0.4,0-0.9-0.2-1.3-0.3l-0.1-0.2
		c0-0.1,0-0.2,0-0.3c0,0-0.1,0-0.1,0c-1,0.2-1.7,0.9-2.4,1.6c-2.2,2.2-4.4,4.3-6.5,6.5c-1.2,1.3-3.1,2.4-2.4,4.5
		c0.8,2.1,3,1.1,4.5,1.5c0.3,0.1,0.5,0.2,0.6,0.4c0.1,11.5,0,23.1,0.1,34.6c0,0.7,0,1.5-0.5,2.1c-0.4,0.3-0.8,0.5-1.2,0.5
		c-5.2,0-10.3,0.3-15.5-0.2c0,0.1,0,0.3,0,0.4c-0.3-0.3-0.5-0.5-0.5-0.9c-0.5-0.7-0.3-1.5-0.3-2.3c0-3.5-0.1-7,0-10.5
		c0-1.8-0.4-3.6,0.4-5.3c0,0,0,0,0.1,0c0.3-0.6,1-0.6,3-0.6c0.2-0.1,0.5-0.2,0.7-0.3c1.3-2.1-0.2-3.5-1.5-4.6c-2.9-2.5-2-5.7-2-8.8
		c0-0.9,0.8-1,1.5-1.3c2.9-0.9,3.2-2.1,1.2-4.4c-2.2-2.4-4.6-4.6-6.9-7c-1.4-1.5-3-2.3-5-2.1c-1.5,0-3.1,0-4.6,0
		c-1.1,0-1.8-0.5-2.6-1.2c-1.4-1.4-2.9-2.9-4.3-4.3c-1.4-1.4-2.8-2.8-4.2-4.2c-1.1-1.2-2.3-1.4-3.5-0.2c-2.5,2.6-5.1,5.2-7.8,7.6
		c-0.5,0.7-1,1.2-1.7,1.7c-0.2,0.2-0.5,0.3-0.7,0.4c-1.4,0.4-2.9,0.2-4.3,0.2c-7.9,0.1-15.9-0.2-23.8,0.2
		c-4.1,2.7-7.2,6.6-10.6,10.1c-1.4,1.5-0.8,2.7,1.2,3c1.9,0.3,2.7,1.1,2.7,3c0.1,3-0.6,5.6-3.1,7.7c-2.7,2.4-2.2,3.8,1.2,4.7
		c1,0.3,1.7,0.7,1.6,1.8c-0.6,5.1,0,10.1-0.1,15.2c0,1.6-0.8,2.2-2.4,2.2c-2.7,0-5.4-0.1-8.2,0c-2.2,0.1-3-0.7-3-3
		c0.1-7.3,0-14.7,0-22c0-1.1-0.1-2.2,0.7-3.1c1.2-1.6,0.4-2.4-1-3.1c-2.9-1.5-6-2.6-8.9-4.1c-10-5-19.9-10-29.9-15
		c-1.6-0.8-3.1-1.5-4.9-1.4c-2,0.1-3.7-0.6-5.4-1.6c-1.4-0.9-2.7-1.8-4.1-2.7c-1.2-0.7-2.4-0.9-3.5,0.2c-1.4,1.4-2.8,1.2-4.4,0.6
		c-3.7-1.4-7.3-3.3-11.1-4.3c-0.3,0-0.6,0-0.9,0c-0.1,0-0.3,0.1-0.5,0.1c-7,0-14,0.3-21.1-0.2c-3.9-0.4-7.7-0.8-11.4,1.3
		c-5.1,3-10.3,5.7-15.4,8.7c-2.7,1.6-5.4,2.5-8.5,2.2c-1.4-0.1-2.9-0.1-4.3,0.4c-1.3,0.5-2.5,0.2-3.7-0.4c-5.9-2.8-12-5.2-17.8-8.1
		c-2-1-3.9-1-5.9,0.1c-2.3,1.1-4.7,2.4-7.2,3.1c-2.7,0.5-5.4,0.6-8.1,0.6c-3.4,0-6.3,1.2-7.3,4.5c-1,3.1-3.1,4.5-5.8,5.5
		c-4.5,2.2-8.8,4.6-13.4,6.6c-3,1.3-6,2.6-8.7,4.4c-2.3,1.5-2.5,3,0,3.8c3.7,1.2,3.6,3.5,3.1,6.4c-0.1,0.8,0,1.6,0,2.4
		c0,5.1,0,10.2,0,15.2c0,2-0.7,2.8-2.7,2.8c-2.1-0.1-4.2,0-6.3,0c-2.9,0-3.1-0.2-3.2-3.1c0-4.2,0-8.3,0-12.5c0-6.9,0-13.8,0-20.7
		c0-1.4-0.1-2.7,1.8-3.1c3.3-0.7,3.7-2.1,1.4-4.5c-2.9-3.1-6-6.1-9-9.1c-1.2-1.2-2.6-1.5-4.2-1.5c-3.3,0-6.5-0.1-9.8,0
		c-2.2,0.1-4-0.6-5.6-2.3c-2.7-2.9-5.7-5.6-8.5-8.4c-1.6-1.6-3-1.7-4.7-0.2c-2,1.8-4,3.7-5.7,5.8c-2.8,3.4-6,6-10.9,5.2
		c-1.2-0.2-2.5,0-3.8-0.1c-1.2-0.4-1-1.4-1-2.2c0-2.3-1.3-3.1-3.4-3.1c-3,0-3.7,0.4-4.1,3c-0.2,1.7-0.9,2.5-2.5,2.4
		c-2.4,0.2-5.1-0.8-7.1,0.9c-3.9,3.1-7.4,6.7-10.6,10.5c-1.5,1.8-0.8,3.2,1.5,3.7c0.4,0.1,0.9,0.1,1.3,0.2c1.1,0.2,1.4,1,1.5,2
		c0,1.1-0.6,1.6-1.7,1.7c-0.8,0.1-1.6,0.1-2.4,0.1c-10.2,0-20.3,0-30.5,0c-1.7,0-3.5,0-5,1.1c-3.2,2.2-6.2,4.7-9.3,7.1
		c-0.7,0.6-1.4,1.3-1.2,2.3c0.2,1.1,1.2,1.3,2.1,1.4c1.7,0.1,2.3,1.1,2.3,2.7c0,6.1,0,12.2,0,18.2c0,1.8-0.7,2.6-2.6,2.6
		c-3.7-0.1-7.4-0.1-11.2,0c-2,0-2.7-0.9-2.7-2.8c0-5.1,0-10.2,0-15.2c0-1,0.1-1.9,1-2.7c2.2-2,2.2-2.9,0.2-5.1
		c-2.5-2.7-5.1-5.2-7.7-7.7c-0.7-0.6-1.4-1.2-2.4-1.3c0,0.1,0,0.2,0,0.2l-0.1,0.1c-0.3,0.2-0.6,0.5-0.9,0.5c-11.6,0-23.1,0-34.7,0
		c-0.1,0-0.2,0-0.2-0.1c0-0.1,0-0.3-0.1-0.5c0-0.2,0-0.4,0-0.5l0,0c-0.5-2.5,0.2-3.9,3-3.4c0.6,0.1,1.2-0.1,1.8-0.2
		c-0.5,1.2-1.5,0.6-2.4,0.8c-0.7,0.1-1.8-0.4-1.7,1c0,0.1,0,0.1,0,0.2c0.2-0.7,0.7-1.1,1.9-1c0.8,0.1,1.6,0,2.3-0.5
		c1.2-1.7,0.1-2.9-1-4c-2.5-2.6-5.2-5.2-7.8-7.8c-0.9-0.9-1.7-1.9-3-2.1c-1.7-0.2-3.4-0.1-5.1-0.1c-7.7-0.3-15.5,0.3-23.2-0.1
		c-3.8,0.2-6.4-1.8-8.8-4.5c-1.9-2.2-4-4.2-6.1-6.2c-2-1.9-2.9-1.9-4.8,0c-2.8,2.6-5.5,5.2-8.1,8.1c-2.1,2.4-4.5,3.2-7.5,2.7
		c-1.6-0.2-3.1-0.2-4.4,1c-3.2,3-6.5,6.1-9.4,9.4c-1.9,2.2-1.3,3.6,1.5,4.1c0.7,0.1,1.5,0.1,2.1,0.6c0.6,1,0.4,2.1,0.4,3.2
		c0,9.2,0,18.4,0,27.7c0,3.9,0.3,5.5-0.6,6c0.1,0,0.2,0,0.3,0c-1,1.2-2.3,0.3-3.4,0.5c-1,0.2-2.1-0.3-3.1,0.4
		c-0.2,0-0.4-0.1-0.5-0.1c0.1-0.2,0.3-0.4,0.4-0.5c-0.1,0-0.2,0-0.3,0c-0.5,0-1.1,0-1.6,0c-3.6,0-3.8-0.2-3.8-3.9
		c0-5.4,0-10.9,0-16.3c0-1.5,0.3-2.7,2-3.1c1-0.2,2.1-0.7,2.1-1.8c0-1.2-1.2-1.4-2.1-1.7c-3.9-1.4-7.8-2.9-11.9-3.9
		c-3.3-0.8-3-3.2-3.4-5.6c-0.4-2.4,1.3-2.4,2.7-2.9c0.6-0.2,1.2-0.6,1.3-1.3c0.1-0.9-0.7-1.2-1.4-1.4c-1.4-0.5-2.8-0.9-4.1-1.3
		c-6.2-2.1-6.6-2.6-7.1-9c-0.2-2.8-1.7-4.1-4.2-3.7c-2.4,0.5-2.3,2.5-2.4,4.3c0,2.9,0,2.9-2.8,2c-6-2-12-4.1-18.1-6
		c-1.6-0.5-2.7-1.2-3.4-3.1c-1.1-3.3-4.7-4.3-7.7-2.5c-1.2,0.8-2.4,0.9-3.9,0.7c-2.3-0.3-4.5-1.3-6.9-0.6c-0.3,0.1-0.5,0.3-0.7,0.5
		c-4.4,0.6-8.8,0.2-13.2,0.2c-2,0-4.1,0.4-6.2-0.3c-3.4-2.7-3.8-2.5-7.6-0.2c-6.2,3.7-12.2,8.3-20,8.3c-1.1,0-2.1,0.6-3.1,1.1
		c-2.3,1.1-4.5,2.3-6.8,3.4c-3,1.5-3,1.5-3.1-1.8c-0.1-2.5,0.6-5.1-0.5-7.5c-0.5-1.3-0.9-2.6-2.7-2.7c-1.6,0-2,1.2-2.7,2.3
		c-1.3,2.2-0.5,4.4-0.5,6.6c0,5.8-0.1,5.9-5.7,6.2c-0.4,0.1-0.8,0.3-1.2,0.6c-2.4,0-4.9,0.1-7.3,0.1c-1.4,0-2.7,0.1-4,0.7
		c-17,7.5-34,15-51,22.5c0.8,1.6,2.3,2.1,3.8,2.1c1.8,0,1.8,0.9,1.7,2.2c-0.3,5-0.6,9.9-0.7,14.9c0,2-0.7,2.6-2.7,2.5
		c-6.4-0.1-12.9,0-19.3,0.1C-8.5,79.7-8.5,82.3-8.5,84.9z M135.8,41.7c0-2.7,0-5.3,0-8c0.1,0,0.2,0,0.2,0c0,2.7,0,5.3,0,8
		C136,41.7,135.9,41.7,135.8,41.7z M136.5,35.5c0-1.4-0.2-2.6,2-2.5c2.1,0.1,1.7,1.3,1.7,2.5c0,0.7,0,1.4,0,2.2c0,0.9-0.1,1.8,0,2.7
		c0.1,1.4-0.5,1.8-1.9,1.8c-1.4,0-2-0.3-1.9-1.8C136.6,38.8,136.5,37.2,136.5,35.5z M160.2,24c0,0.3,0,0.5-0.1,1.2
		c-0.8-0.5-1.3-0.7-1.6-1.1c-0.6-0.7-2.2-0.8-1.7-2c0.3-0.8,1.5-0.3,2.3-0.3C160.7,21.8,160,23.1,160.2,24z M281.7,67.6
		c5.2,0,10.4,0,15.6,0c0,0.1,0,0.1,0,0.2c-5.2,0-10.4,0-15.6,0C281.7,67.7,281.7,67.6,281.7,67.6z M379.6,71.4c2.9,0,5.7,0,8.6,0
		c0,0.1,0,0.2,0,0.2c-2.9,0-5.7,0-8.6,0C379.6,71.5,379.6,71.4,379.6,71.4z M566.9,64.3c0.1,1.9-0.5,2.6-2.4,2.4
		c-1.1-0.1-2.3,0-3.5,0.1c-0.3,0-0.6,0.1-0.8,0.1v0c0,0-0.2,0-0.2,0s-0.2,0-0.2,0v0c-0.3,0-0.5-0.1-0.8-0.1
		c-1.8-0.4-4.5,0.8-5.4-0.6c-0.9-1.4-0.3-3.8-0.4-5.8c0-2.2,0-4.4,0-6.5c2.2-1,4.4-0.9,6.6,0c0,0,0,0,0,0c0.1,0,0.3,0,0.4,0
		c0,0,0,0,0,0c0,0,0,0,0,0c2.2-0.9,4.4-1,6.6,0C566.8,57.3,566.7,60.8,566.9,64.3z M567.5,66.2c0-3.9,0-7.9,0-11.8
		c0.1,0,0.2,0,0.2,0c0,3.9,0,7.9,0,11.8C567.6,66.2,567.6,66.2,567.5,66.2z M618.5,63.2c0,1.3-0.1,2.5,0,3.8
		c0.1,1.2-0.5,1.5-1.6,1.5c-1.2,0-1.3-0.6-1.3-1.5c0-2.7,0-5.4,0-8.1c0-1.1,0.4-1.3,1.4-1.3c1,0,1.5,0.3,1.4,1.4
		C618.5,60.3,618.5,61.7,618.5,63.2z M636.9,55.7c0.3,0.7-0.2,1.2-0.4,1.8c0.1,0.2,0.3,0.5,0.4,0.7c0.5-0.3,0.6,0,0.6,0.4
		c0,3,0,6,0,9.1c0,0.1-0.1,0.2-0.1,0.2c-0.2,0-0.3,0-0.5-0.1c-2.5,1.3-3.1,1-3.1-1.4c0-2.9,0-5.8,0-8.7l0,0c0-0.5,0-0.9,0-1.4
		c0.2-0.8-0.6-2.1,1.2-2.1C636.1,54.2,637,54.3,636.9,55.7C636.9,55.7,636.9,55.7,636.9,55.7C636.9,55.7,636.9,55.7,636.9,55.7z
		 M834.1,74.1c1.7,0,3.5,0,5.2,0c0,0.1,0.1,0.2,0.1,0.2c-1.8,0-3.5,0-5.3,0C834.2,74.2,834.2,74.2,834.1,74.1z M842.3,74.1
		c1.7,0,3.5,0,5.2,0c0,0.1,0.1,0.2,0.1,0.2c-1.8,0-3.5,0-5.3,0C842.3,74.2,842.3,74.2,842.3,74.1z M850,74.1c1.9,0,3.9,0,5.8,0
		c0,0.1,0,0.1,0,0.2c-1.9,0-3.9,0-5.8,0C850,74.2,850,74.2,850,74.1z M1026.9,60.3c1.5,0,3,0,4.5,0c1.3,0.7,0.7,1.9,0.7,2.9
		c0.1,2.6,0,5.2-0.6,7.8c0-2,0-4,0-6.1c-0.1,0.8-0.2,1.6-0.2,2.4c0,4.3,0,4.3-4.4,4.3c-1.3-0.8-0.8-2.2-0.7-3.2
		C1026.6,65.7,1025.4,62.9,1026.9,60.3z M1026.4,50.1c2.5,0,5,0,7.5,0c0,0.1,0,0.2,0,0.2c-2.5,0-5,0-7.4,0
		C1026.4,50.3,1026.4,50.2,1026.4,50.1z M1079.5,68.7c0.1,1,0.6,2.2-0.7,2.9c-1.5,0-2.9,0-4.4,0c0,0,0,0,0,0c0,0,0,0,0,0
		c-1-0.4-0.8-1.3-0.8-2c0-2.9,0.1-5.8,0.1-8.7c0,0,0.1-0.1,0.2-0.1c0.1,0,0.2,0.1,0.2,0.1c1.6-0.9,3.2-0.9,4.8,0
		C1080.2,63.4,1079.3,66.1,1079.5,68.7z M1105.9,59.8c0.6,0.1,0.9,0.6,0.8,1.2c-0.3,2.9,0.7,5.8-0.6,8.6c-3.6,0-3.6,0-3.6-3.7
		c0-0.7,0.1-1.4,0-2.1C1102.1,61,1102.9,59.5,1105.9,59.8C1105.9,59.8,1105.9,59.8,1105.9,59.8C1105.9,59.8,1105.9,59.8,1105.9,59.8
		z M1171.3,62.3c3.1,0.1,6.1,0.1,9.2,0.1c1.3,0,1.5,0.5,1.5,1.6c0,2.1-0.1,4.2,0.4,6.2c0-2,0-4.1,0-6.1c0.2,0,0.4,0,0.7,0
		c-0.4,2.5,0.5,5.1-0.3,7.6c0,0.4-0.2,0.7-0.4,1.1c-1.8,0.2-3.7,0.3-5.5,0.5c1.7,0.1,3.4,0.2,5,0.3c-4-0.1-8,1.2-11.9-0.3
		c-0.1-3.1-0.1-6.1-0.3-9.2C1169.6,62.7,1169.9,62.3,1171.3,62.3z M1156.2,34c2.4-0.2,1.2,1.9,1.7,2.6c0,1.2,0.5,2.3-1.2,2.3
		c-2.1,0.1-1.4-1.5-1.4-2.4C1155.3,35.7,1154.2,34.2,1156.2,34z M1138.3,65.7c-0.3-2.5,0.8-3.2,3.2-3c3.1,0.2,6.1,0.2,9.2,0.1
		c1.5,0,2,0.5,2,2c0,2.4,0.1,4.9,0.3,7.3c0.1,1.2-0.3,1.6-1.5,1.6c-3.8,0-7.6,0-11.4,0.2c-2.1,0.1-1.1-1.7-1.7-2.4l0,0v0
		c-0.3,0.5,0.1,1.3-0.7,2C1138.1,70.8,1137.3,68.2,1138.3,65.7z M1112.2,63.7c-0.1,0.7,0,1.4,0,2.2c0,3.7,0,3.7-3.7,3.7
		c-0.8-3.3-1.3-6.5,0.3-9.7C1111.7,59.5,1112.7,60.9,1112.2,63.7z M1100.8,43.1c-0.1-0.9,0.9-0.7,1.4-0.7c2.7,0,5.4,0,8.1,0
		c1.2,0,1.7,0.3,1.6,1.5c-0.1,2,0.2,4-0.3,5.9c-3.3,1.4-6.8,0.4-10.2,0.5c0,0-0.1-0.1-0.1-0.2c0-0.1,0.1-0.2,0.1-0.2
		C1100.1,47.7,1101,45.3,1100.8,43.1z M1098.8,59.9c1.3,0,2.1,0.2,1.9,1.8c-0.1,1,0,2,0,3c0,0.9-0.1,1.8,0,2.7
		c0.2,1.6-0.3,2.2-2.1,2.2c-1.8,0-1.8-0.9-1.7-2.2c0-1.9,0.1-3.8,0-5.7C1096.8,60.2,1097.4,59.9,1098.8,59.9z M1089.4,20.3
		c2.3-0.1,1.2,1.7,1.5,2.6c0,1.1,0.3,2.2-1.3,2c-2.6-0.2-1-2.2-1.5-3.3C1087.6,20.6,1088.5,20.4,1089.4,20.3z M1084.5,62
		c0,2.7-0.1,5.4,0,8.1c0.1,2-1.1,1.6-2.3,1.6c-1.1,0-2.4,0.4-2.3-1.6c0.1-1.3,0-2.7,0-4c0-1,0-2,0-3c0-2.6,1-3.3,3.6-2.7
		C1084.8,60.6,1084.5,61.3,1084.5,62z M1071.4,42.2c3.4,0.1,6.9,0.1,10.3,0c1.6-0.1,1.8,0.6,1.7,1.9c-0.1,2.6-0.1,5.2-0.1,7.9
		c-0.5,0.9-1.4,0.7-2.2,0.6c-3.8-0.3-7.6,0.8-11.4-0.6c0-2.7,0-5.4-0.1-8.1C1069.7,42.6,1070.1,42.2,1071.4,42.2z M1070.9,60.4
		c1-0.1,2.3-0.5,2.2,1.4c-0.1,1.4,0,2.9,0,4.3c0,1,0,2,0,3c0,2.5-1.2,3.3-3.7,2.6c-0.7-0.2-0.8-0.6-0.8-1.1c0-3,0-5.9,0-8.9
		C1068.6,59.7,1070,60.4,1070.9,60.4z M1048.6,11.5c0.2,0.1,0.3,0.3,0.5,0.5c-0.2,0.3-0.2,0.6-0.4,0.7c-0.4,0.1-0.6-0.3-0.6-0.6
		C1048.1,11.8,1048.4,11.7,1048.6,11.5z M1046.3,73.8c0.1-3,0-6,0-9c0.1-3.9,3-6.7,7-6.9c4-0.1,7.2,2.4,7.5,6.3
		c0.2,3.6,0.1,7.3,0.3,10.9c0.1,1.6-0.8,1.5-1.9,1.4c-1-0.1-2.5,0.5-2.4-1.5c0.1-3.5-0.1-7.1,0.1-10.6c0.1-1.7-0.3-2.4-2.2-2.3
		c-3.9,0.1-4,0-4,3.8c0,1.2,0,2.4,0,3.5c0,1.5,0,2.9,0,4.4c0.1,1.5,0.2,2.8-2.1,2.7C1046.5,76.4,1046.3,75.5,1046.3,73.8z
		 M1035.3,60.3c1-0.1,2-0.3,1.9,1.4c-0.1,1.3,0,2.7,0,4.1c0,1.1,0,2.2,0,3.3c0,2.6-1.1,3.4-3.6,2.7c-0.7-0.2-0.8-0.6-0.8-1.2
		c0-3,0-6,0-8.9C1032.7,59.4,1034.3,60.5,1035.3,60.3z M1029.7,41.8c4.7,0,4.7,0,4.7,4.3c0,3.5,0,3.5-4.4,3.5c-4.3,0-4.3,0-4.3-4.2
		C1025.7,41.8,1025.7,41.8,1029.7,41.8z M1021.1,70c0.1-1.3,0-2.7,0-4.1c0,0,0,0,0.1,0c0-1,0-2,0-3c0-2.6,1.1-3.4,3.6-2.7
		c0.9,0.2,0.9,0.8,0.9,1.4c0,2.8-0.1,5.6,0,8.4c0.1,2.2-1.5,1.5-2.6,1.6C1021.8,71.8,1021,71.6,1021.1,70z M1020.4,60.9
		c0.1,0,0.1,0,0.2,0c0,3.4,0,6.8,0,10.2c-0.1,0-0.1,0-0.2,0C1020.4,67.6,1020.4,64.3,1020.4,60.9z M996.8,41.1c0-0.7-0.2-1.5,0.5-2
		c0,12.7,0.1,25.4,0.1,38.1c-0.8-0.6-0.6-1.4-0.6-2.2C996.8,63.6,996.8,52.4,996.8,41.1z M980.7,34.3c0.1,0,0.1,0,0.2,0
		c0,4.1,0,8.2,0,12.3c-0.1,0-0.1,0-0.2,0C980.7,42.5,980.7,38.4,980.7,34.3z M973.4,35.5c0-0.7-0.1-1.5,0.8-1.8v0l0,0
		c5.9-0.4,5.9-0.4,5.9,5.5c0,1.5,0,3.1,0,4.6c0,3.7,0,3.7-3.8,3.6c-0.7,0-1.4-0.1-2.2-0.2c-0.9-0.4-0.7-1.2-0.7-1.9
		C973.4,42,973.4,38.8,973.4,35.5z M973.5,60.2c2.8,0.1,5.6,0.1,8.4,0c1.3,0,1.8,0.4,1.7,1.7c-0.1,2.5,0,5.1,0,8.1
		c-0.2,2.4,1.2,6.2-0.6,7.8c-1.6,1.4-5.3,0.4-8.1,0.5c-3.7,0-3.7,0-3.7-3.7c0-4.1,0.1-8.2,0-12.2C971.2,60.5,971.8,60.1,973.5,60.2z
		 M951.6,60c0.3-2.6,2.1-4.3,4.4-4.4c2.3-0.1,4.5,1.7,4.7,4.3c0.3,3.2,0.1,6.5,0.2,9.8c0,0.8-0.4,1.1-1.1,1.1c-0.8,0-1.6,0-2.4,0
		c-5.8,0-5.8,0-5.7-5.9C951.5,63.2,951.4,61.6,951.6,60z M950.7,60.3c0.1,0,0.1,0,0.2,0c0,3.2,0,6.4,0,9.6c-0.1,0-0.1,0-0.2,0
		C950.7,66.7,950.7,63.5,950.7,60.3z M913.2,57.5c1.7,0.1,3.4,0.1,5.1,0.1c0.4,0.2,0.7,0.6,0.7,1.1c0,4.7,0,9.4,0,14.1
		c0,0.5-0.2,0.9-0.6,1.1c-0.2,0.2-0.4,0.3-0.6,0.5c-1.8,1.4-3.8,0.4-5.8,0.5c0,0,0-0.2,0-0.2c0-0.1,0.1-0.1,0.1-0.2
		c-0.8-0.4-0.7-1.2-0.7-1.9c0-4.4,0.1-8.8,0-13.2C911.4,57.8,911.8,57.3,913.2,57.5z M898.4,57.4c1.7,0.1,3.4,0.1,5.1,0.2
		c0.2,0.2,0.6,0.3,0.6,0.5c0.1,5.1,0.1,10.2,0.1,15.3c0,1-0.6,1.4-1.6,1.5c0,0,0,0,0,0c-1.8-0.1-3.6-0.1-5.4-0.2c0,0,0-0.2,0-0.2
		c0-0.1,0.1-0.1,0.1-0.2c-0.9-0.4-0.7-1.1-0.7-1.8c0-4.4,0.1-8.8,0-13.3C896.6,57.8,897,57.3,898.4,57.4z M883.6,61.4
		c0.3-0.2,0.6-0.1,0.6,0.2c0,5.5,0,10.9,0,16.4c0,0.1-0.1,0.2-0.1,0.2c-0.2,0-0.3-0.1-0.5-0.1c-4.3,0.1-8.7,0.1-13,0.2
		c-1.2,0-1.5-0.4-1.5-1.6c0.1-4.7,0-9.4,0-14.1c0-0.7-0.2-1.7,0.9-1.6C874.4,61.2,879,60.3,883.6,61.4z M879.4,47.9
		c0.1,0,0.2,0,0.2,0c0,2.1,0,4.2,0,6.4c-0.1,0-0.2,0-0.2,0C879.4,52.1,879.4,50,879.4,47.9z M878.5,47.5c0.9,1.8,0.4,4.4,0.3,6.6
		c-0.1,1.3-1.3,0.7-1.9,0.7c-1.2-0.1-2.6,0.7-3.5-0.6c-1-2.3-1-4.6,0.1-6.9C875.2,47,877.9,46.3,878.5,47.5z M870,24.7
		c0.9,0.1,1.8-0.1,2.7,0.3c0.9,2.5,1.2,5-0.2,7.5c-5.4,0.1-5.3,0.1-5.5-4.9C867,25.1,867.7,24.3,870,24.7z M857.1,57.7
		c0.1,0,0.1,0,0.2,0c0,5,0,10,0,15.1c-0.1,0-0.1,0-0.2,0C857.1,67.7,857.1,62.7,857.1,57.7z M856.3,56.1c0,0.1,0,0.1,0,0.2
		c-1.9,0-3.9,0-5.8,0c0-0.1,0-0.1,0-0.2C852.4,56.1,854.3,56.1,856.3,56.1z M851.2,56.8c5.3-0.3,5.3-0.4,5.3,4.8
		c0,3.3-0.1,6.5,0,9.8c0.1,1.6-0.3,2.2-2.1,2.2c-4.7,0-4.7,0.1-4.7-4.6c0-1.3,0-2.5,0-3.8c0-2.3,0-4.5,0-6.8
		C849.7,57.3,850,56.9,851.2,56.8z M848.9,57.2c0.1,0,0.1,0,0.2,0c0,5.2,0,10.4,0,15.6c-0.1,0-0.1,0-0.2,0
		C848.9,67.6,848.9,62.4,848.9,57.2z M848.3,61.7c0,1.2,0,2.3,0,3.5c0,2.2-0.1,4.3,0,6.5c0,1.3-0.2,1.9-1.7,1.9
		c-5.1,0.1-5.1,0.2-5.1-5c0-3.2,0.1-6.5,0-9.7c0-1.5,0.3-2,1.9-2C848.3,56.7,848.3,56.7,848.3,61.7z M841.9,56c1.9,0,3.7,0,5.6,0
		c0,0.1,0,0.2,0,0.2c-1.9,0-3.8,0-5.7,0C841.8,56.2,841.9,56.1,841.9,56z M841.4,37.5c0.1,0,0.2,0.1,0.2,0.1c0,2.2,0,4.5,0,6.7
		c-0.1,0-0.2,0-0.2,0C841.4,42,841.4,39.8,841.4,37.5z M841,73.2c-0.1,0-0.1,0-0.2,0c0-5.2,0-10.4,0-15.6c0.1,0,0.1,0,0.2,0
		C841,62.8,841,68,841,73.2z M835.2,37.5c0,2.5,0,5,0,7.6c0.2,0,0.4,0,0.6,0c-0.7-2.2-0.2-4.5-0.3-6.7c-0.1-2.1,1.6-1.4,2.5-1.3
		c1,0.1,2.8-1,2.8,1.2c0,2.2,0.3,4.5-0.2,6.7c-1.8,1-3.6,0.9-5.4,0.1c0,0,0,0,0,0l0,0C833.9,42.6,835,40,835.2,37.5z M839.4,56
		c0,0.1,0,0.2,0,0.2c-1.8,0-3.5,0-5.3,0c0-0.1,0-0.2,0-0.2C835.9,56,837.6,56,839.4,56z M835.3,56.8c4.8,0,4.8-0.1,4.8,4.8
		c0,1.2,0,2.4,0,3.5c0,2.1-0.1,4.2,0,6.3c0.1,1.6-0.2,2.2-2,2.2c-4.9,0-4.9,0.1-4.9-4.8c0-3.3,0.1-6.5,0-9.8
		C833.2,57.4,833.6,56.8,835.3,56.8z M832.6,57.2c0.1,0,0.1,0,0.2,0c0,5.2,0,10.4,0,15.6c-0.1,0-0.1,0-0.2,0
		C832.6,67.6,832.6,62.4,832.6,57.2z M825.9,39.1c0,11.9,0,23.8,0,35.7c0,0.6,0.1,1.3-0.5,1.8c0-12.9,0-25.8-0.1-38.6
		C826.4,37.9,825.9,38.7,825.9,39.1z M807,56.5c-0.2,6.9-0.3,13.8,0,20.6c-0.7-0.3-0.7-1-0.7-1.6c0-5.8,0-11.6,0-17.4
		C806.3,57.5,806.3,56.8,807,56.5z M799.4,62c0.1,0,0.2,0,0.3,0c0,5.2,0,10.4,0,15.6c-0.1,0-0.2,0-0.3-0.1
		C799.4,72.3,799.4,67.2,799.4,62z M789.9,52.6c0.1-0.5,0-1.1,0-1.6c0-2.4,2.2-3.8,4.3-2.6c1.3,0.8,0.2,2.3,0.7,3.4
		c-0.5,1.4,1.1,3.7-2.3,3.6C790.4,55.4,789.5,54.8,789.9,52.6z M797.2,61.3c1.3,0,1.7,0.4,1.7,1.7c-0.1,4.5-0.1,9,0,13.5
		c0,1.6-0.7,1.7-1.9,1.7c-3.7-0.1-7.4,0-11.1-0.1c-0.2-0.2-0.5-0.4-0.6-0.5c-0.3-5.2-0.3-10.5,0-15.7c0-0.2,0.4-0.4,0.5-0.6
		C789.6,61.4,793.4,61.4,797.2,61.3z M786.4,35.8c0.1,0,0.2,0,0.2,0c0,3,0,6.1,0,9.1c-0.1,0-0.2,0-0.2,0
		C786.4,41.9,786.4,38.9,786.4,35.8z M776.5,35.3c0-0.1,0.4,0.3,0.5,0.6c1.5-4,4.3-5.3,6.9-3.4c1,0.7,1.7,1.7,1.8,2.9
		c0.1,3.5,0.5,7-0.2,10.5c0.3,0.4,0.2,0.6-0.3,0.6c-2.5,0-5,0-7.5,0c-0.1,0-0.2-0.1-0.2-0.1c0-0.2,0.1-0.3,0.1-0.5
		c-0.2-0.2-0.4-0.3-0.6-0.5C775.6,42.2,776.7,38.7,776.5,35.3z M772,26.5c-0.2,0.9-0.8,1.3-1.6,1.7C770.4,27.1,770.9,26.6,772,26.5z
		 M765.1,60.9c0.1,0,0.2,0,0.2,0c0,2.8,0,5.7,0,8.6c-0.1,0-0.2-0.1-0.2-0.1C765.1,66.5,765.1,63.7,765.1,60.9z M764.6,41.3
		c0.1,0,0.2,0,0.2,0c0,1.9,0,3.9,0,5.8c-0.1-0.1-0.2-0.2-0.2-0.2C764.6,45.1,764.6,43.2,764.6,41.3z M759.1,45.4
		c0.1-0.6,0-1.3,0-1.9c0-2.6,1.9-3.9,4.3-2.8c1.5,0.8,0.3,2.4,0.7,3.4c0,2,0.6,4.1-2.7,3.7C759.6,47.7,758.8,47.3,759.1,45.4z
		 M750.6,59.8c0.1,0.4,0.2,0.8,0.3,1.2c1.3-5.7,9.1-5.7,12.1-3.1c1.1,1,1.7,2.1,1.7,3.6c0,2.4-0.1,4.7,0,7.1
		c0.1,1.4-0.4,1.9-1.8,1.9c-3.7,0-7.4-0.3-11.1,0.2c4.2,0,8.4,0,12.6,0c0,0.2,0,0.4,0,0.6c-4.3,0-8.7,0-13,0v0
		c-0.9-0.4-1.1-1.1-1.1-2C750.3,66,750.3,62.9,750.6,59.8z M744,40.7c1.7,0.2,3.5-0.8,5.1,0.6c1.3,1.8,0.4,3.9,0.4,5.8
		c0,0-0.2,0-0.2,0c-0.1,0-0.1-0.1-0.2-0.1c-1.8,1.1-3.5,1.1-5.3,0C742.9,44.9,742.6,42.8,744,40.7z M705,56.9c0-1.5-0.3-2.7,2.1-2.7
		c2.3,0,1.8,1.4,1.8,2.7c0,0.7,0,1.4,0,2.2c0,0.9-0.1,1.8,0,2.7c0.2,1.6-0.4,2.2-2.1,2.2c-1.7,0-1.9-0.8-1.8-2.1
		C705.1,60.1,705.1,58.5,705,56.9z M704.1,55c0.1,0,0.1,0,0.2,0c0,2.7,0,5.3,0,8c-0.1,0-0.1,0-0.2,0C704.1,60.3,704.1,57.6,704.1,55
		z M699.7,56.3c-0.1-1.4,0.3-2,1.9-2.1c1.8,0,2.2,0.6,2,2.2c-0.1,0.9,0,1.8,0,2.7s-0.1,1.8,0,2.7c0.1,1.4-0.2,2.1-1.9,2.1
		c-1.8,0-2.2-0.6-2-2.2C699.8,59.9,699.8,58.1,699.7,56.3z M670.7,51.9c0.4-3.8,4.2-6.9,8.5-6.9c4.3,0,8,2.9,8.7,6.7
		c0.2,1.2,0,1.6-1.3,1.6c-4.8,0.1-9.6,0.2-14.4,0.4C670.8,53.7,670.6,53.1,670.7,51.9z M671,54.9c1.7,0,3.4,0,5.1,0
		c0.4,0,0.9,0,1.3,0c1.7,0.3,3.7-0.7,5.3,0.7c0.3-0.2,0.5-0.4,0.8-0.6c5.3,0,5.3,0,5.2,5.1c0,5-0.3,5.2-5.4,4
		c-0.3,0.4-0.5,0.2-0.7-0.1c-1.6,1.1-3.4,0.1-5.1,0.6c-0.4-0.1-0.9-0.3-1.3-0.4l-0.1,0.1l0,0.2c0,0,0,0,0,0c0,0,0,0,0,0
		c-1.6,1.3-3.2,1.1-4.8,0.1c-0.2-0.2-0.3-0.4-0.5-0.6c-1.2,0.1-0.6-0.9-0.6-1.2C670.6,60.2,669.3,57.4,671,54.9z M666.5,27.1
		c1.5,0,3,0.8,2.9,2.1c-0.2,1.9-2.2,0.4-3.2,1.1c-0.9-0.7-2.6,1-2.7-0.9C663.4,28,664.9,27.1,666.5,27.1z M660.5,70.3
		c0,1.5-0.4,2-2,2c-1.5,0-2.5-0.1-2.2-2c0.3-1.5-0.1-2.8-1.3-3.9c0.9-2.1,0.5-4.3,0.5-6.4c-0.1-2.1-1.8-1.1-2.9-1.3
		c-1.3-0.2-2,0.4-1.9,1.8c0,3.9,0,7.7,0,11.6c0,0.1-0.1,0.2-0.2,0.2c-0.2,0-0.3-0.1-0.4-0.2c-4.2,0.3-4.2,0.3-4.2-3.9
		c0-3.9,0-7.8,0-11.7c0.5-1,1.4-0.6,2.2-0.6c3.4,0,6.9,0,10.3,0c0.8,0,1.7-0.3,2.2,0.6C660.4,61.1,660.4,65.7,660.5,70.3z
		 M651.9,48.1c3.4-0.5,6.6,1.3,8,4.3c0.9,1.9,0.3,2.6-1.7,2.5c-4.2,0.6-8.4,1-12.5,0c0,0,0,0,0,0v0l0,0l0,0
		C646.1,51,648.3,48.6,651.9,48.1z M647.4,17.4c-1.2,0.8-2.5,0.4-3.7,0.4c-5.3,0.1-10.5,0-15.8,0c-1,0-2,0.4-2.8-0.5
		C632.5,17.2,639.9,17,647.4,17.4z M622.7,54.3c2.3,0.2,4.6,0.2,7,0c1.8-0.1,2.2,0.6,1.9,2.2c0,0.4,0,0.8,0,1.2c0,3,0,6,0.1,9
		c0,1.3-0.3,2-1.8,1.9c-2.5-0.1-5.1-0.1-7.6,0c-1.2,0-1.6-0.4-1.5-1.6c0.1-3.1,0-6.2,0-9.2c0-0.4,0-0.9,0-1.3
		C620.5,54.8,620.9,54.1,622.7,54.3z M617.1,54.2c0.9,0,1.7,0.1,1.4,1.2c0.1,1.5-0.9,1.2-1.7,1.2c-0.8,0.1-1.3-0.2-1.3-1.2
		C615.6,54.2,616.3,54.2,617.1,54.2z M574.3,60.2c0,1.1-0.1,2.2,0,3.2c0.4,2.6-0.5,3.3-3.2,3.3c-2.6,0-3.2-0.8-3-3.2
		c0.2-2.6,0.1-5.2,0-7.8c-0.1-1.6,0.4-2.1,2-1.9c0.6,0.1,1.3,0.1,1.9,0c1.9-0.3,2.6,0.5,2.4,2.4C574.2,57.5,574.3,58.8,574.3,60.2z
		 M553.2,49.4c1.8-5,4.7-8.6,10.5-8.7c5.3-0.1,10.3,4.8,10.6,10.1c0.1,1-0.2,1.3-1.1,1.3c-1.7,0-3.4,0.1-5.2,0.1
		c-4.7,1-9.4,0.5-14.1,0.3C551.8,52.5,552.6,50.6,553.2,49.4z M532.5,55.1c1.2,0.1,1.7,0.3,1.7,1.7c-0.1,3.2-0.2,6.3,0,9.5
		c0.1,2.2-1.3,1.6-2.5,1.7c-1.3,0.1-2.3,0.1-2.1-1.7c0.2-1.6,0-3.2,0-4.9c0-1.2,0.2-2.4,0-3.5C529.3,55.4,530.4,55,532.5,55.1z
		 M523.3,58.3c0-3.4,1.4-4.1,4.9-2.3c0.4-0.1,1-0.4,1,0.3c0,3.6,0,7.2,0,10.7c0,0.7-0.5,0.8-1.1,0.9c-4.8,0.3-4.8,0.3-4.8-4.4
		C523.3,61.7,523.3,60,523.3,58.3z M480.7,68.4c0.2-3.2,0.2-6.3,0-9.5c-0.1-1.9,0.6-2.4,2.3-2.2c0.7,0.1,1.5,0.1,2.2,0
		c1.3-0.1,1.7,0.4,1.7,1.7c-0.1,2,0,4,0,6c0,1.3-0.2,2.6,0,3.8c0.5,2.7-0.7,3.2-3.2,3.2C481.3,71.3,480.5,70.8,480.7,68.4z
		 M479.8,57.1c0.1,0,0.2,0,0.3,0c0,4.5,0,8.9,0,13.4c-0.1,0-0.2,0.1-0.3,0.1C479.8,66,479.8,61.6,479.8,57.1z M461,30.9
		c0.6,0.1,1.3,0.1,1.9,0c1.6-0.2,2.3,0.3,2.2,2c-0.2,1.8,0,3.6,0,5.4c0,1.7-0.1,3.4,0,5.1c0.2,1.8-0.6,2.1-2.1,2.1c-4,0-4,0-4-3.9
		c0-2.9,0.1-5.8,0-8.7C458.7,31.3,459.3,30.7,461,30.9z M458.1,31.6c0.1,0,0.1,0,0.2,0c0,4.5,0,8.9,0,13.4c-0.1,0-0.1,0-0.2,0
		C458.1,40.5,458.1,36.1,458.1,31.6z M456.4,58.3c3.9,0,7.9,0,11.8,0c-0.1,0.1-0.2,0.2-0.2,0.3c-3.9,0-7.7,0-11.6,0
		C456.4,58.4,456.4,58.3,456.4,58.3z M457.4,59.1c3.3,0.1,6.5,0.1,9.8,0c1.4,0,1.7,0.5,1.6,1.7c-0.1,5.2-0.1,10.5,0,15.7
		c0,1.3-0.4,1.7-1.7,1.7c-3.3-0.1-6.5-0.1-9.8,0c-1.4,0-1.7-0.5-1.6-1.7c0.1-2.6,0-5.2,0-7.9c0-2.6,0.1-5.2,0-7.9
		C455.7,59.4,456.1,59,457.4,59.1z M432.5,43.3c-0.1-0.8,0-1.6,0-2.4c0-6,0-6,6.2-5.6c0.6,0.2,0.7,0.7,0.7,1.3c0,3.8,0,7.6,0,11.4
		c0,0.6-0.1,1.1-0.7,1.4c-0.1,0.2-0.3,0.3-0.4,0.5c0,0,0,0,0,0c0,0,0,0,0,0c-1.7,1.3-3.6,0.5-5.4,0.5c0,0-0.1-0.2-0.1-0.2
		c0-0.1,0.1-0.2,0.1-0.2c0,0,0,0,0,0c0,0,0,0,0,0C431.8,47.8,432.7,45.5,432.5,43.3z M399.7,60.3c0.1-3.4,2.3-5.6,5.1-5.5
		c2.7,0.1,4.6,2.3,4.7,5.6c0,1.4,0,2.9,0,4.3c0,6.1,0,6.1-6.1,6.1c-3.7,0-3.7,0-3.7-3.7C399.7,64.8,399.6,62.6,399.7,60.3z
		 M378.9,59.8c0.2-3,2.2-5,4.7-5c2.5-0.1,4.6,1.9,5,4.8c0.2,1.7,0,3.4,0,5.2c0.1,6,0.1,6-6,6c-3.8,0-3.8,0-3.8-3.9
		C378.8,64.5,378.7,62.1,378.9,59.8z M378.1,59.8c0.1,0,0.1,0,0.2,0c0,3.4,0,6.8,0,10.2c-0.1,0-0.1,0-0.2,0
		C378.1,66.5,378.1,63.2,378.1,59.8z M316.6,60.3c0.1,0,0.2,0,0.2,0c0,5.2,0,10.4,0,15.6c-0.1,0-0.2-0.1-0.2-0.1
		C316.6,70.7,316.6,65.5,316.6,60.3z M311.4,59.7c4.7,0,4.7,0,4.7,4.6c0,1.3,0,2.5,0,3.8c0,2.3,0,4.5,0,6.8c0,1.1-0.4,1.5-1.6,1.6
		c-5.3,0.3-5.3,0.4-5.3-4.9c0-3.3,0.1-6.5,0-9.8C309.2,60.2,309.7,59.7,311.4,59.7z M281.1,57c0-0.2,0-0.4,0-0.5
		c0.5-3.2,4.4-5.2,9.2-4.9c4.4,0.2,7.3,2.4,7.5,5.6c0,0.5,0,0.9,0,1.4c-0.2,2.8,1.2,6.5-0.6,8.1c-1.5,1.3-5.2,0.3-7.9,0.3
		c0,0.1,0,0.1,0,0.2c-2.3,0-4.5,0-6.8,0c-1.2,0-1.6-0.4-1.6-1.6C281.2,62.6,281.1,59.8,281.1,57z M270.4,36.9c3.8-0.1,2,2.5,2.4,3.8
		c0,0.5,0,0.8,0,1c0,2.8-2.2,4.2-4.8,3.1c-0.7-0.3-0.6-0.8-0.6-1.3c0-1.2,0.1-2.4,0-3.5C267,37.6,267.9,37,270.4,36.9z M267.3,54.6
		c0.5-1.4-1.3-3.9,2.4-3.9c2.6,0,3.6,0.7,3.2,3.3c-0.1,0.4,0,0.9,0,1.4c0,2.9-2.1,4.4-4.7,3.1C266.5,57.7,267.8,55.9,267.3,54.6z
		 M263.8,60.3c0.1,0,0.2,0,0.2,0c0,5.2,0,10.4,0,15.6c-0.1,0-0.2,0-0.2,0C263.8,70.7,263.8,65.5,263.8,60.3z M251.1,29.3
		c0.2-1.4,0.4-0.1,0.6,0.1c0.3-0.7,0.5-1.4,0.8-2c1.1-1.9,2.7-3,4.9-2.5c2.3,0.5,3.6,2.2,3.8,4.4c0.2,3.2,0.1,6.5,0.1,9.8
		c0,1-0.4,1.2-1.3,1.2c-2.8-0.1-5.6,0.3-8.4-0.2c-1.3-1.6-0.5-3.4-0.6-5.1C251,33.1,250.9,31.2,251.1,29.3z M249.4,60.2
		c1.5-1.4,5.1-0.4,7.8-0.4c5.9,0,5.9,0,5.9,5.8c0,3-0.1,6,0,8.9c0,1.5-0.3,2.1-1.9,2c-3.5-0.1-7-0.1-10.6,0c-1.4,0-2-0.3-1.9-1.8
		c0.1-2.2,0-4.3,0-7C249.2,65.5,247.7,61.8,249.4,60.2z M243,37c1.2,0,1.8,0.3,1.7,1.7c-0.1,1,0,2,0,3c0,3.1-1.7,4.3-4.6,3.3
		c-0.7-0.2-0.8-0.7-0.8-1.2c0-1,0-2,0-3C239.3,36.8,239.3,36.9,243,37z M239.3,54c0-2.8,2.3-4.4,4.7-3c1.5,0.8,0.3,2.6,0.6,3.7
		c0,4.3,0,4.2-3.9,4c-1.2-0.1-1.5-0.6-1.5-1.7C239.3,56,239.3,55,239.3,54z M198.9,61.5c-0.1-1.6,0.1-3.3,0.1-5c0,0,0.2,0,0.2,0
		c0.1,0,0.1,0.1,0.2,0.1c1.4-1.3,3.1-0.5,4.6-0.6c0.9,0,0.6,0.9,0.6,1.5c0,2.3-0.1,4.7,0.1,7c0.2,2.1-0.6,2.8-2.6,2.4
		c-0.9-0.1-1.8-0.2-2.7-0.3C198.1,65.2,199,63.2,198.9,61.5z M192.3,38.1c1,0,1.3,0.4,1.2,1.3c0.1,0.9-0.4,1.2-1.3,1.2
		c-1.1,0-1-0.7-1.1-1.4C191.1,38.3,191.6,38.1,192.3,38.1z M187.3,55.5c0.1,0,0.2-0.1,0.2-0.1c0.5,4.4,1,8.7-0.3,13
		c-5.8,1-5.8,1-5.8-4.6c0-2.3,0.1-4.5,0-6.8c-0.1-1.9,0.6-2.4,2.3-2.1C184.9,55.1,186.3,54.3,187.3,55.5z M179.8,36
		c0-0.1,0.1-0.2,0.1-0.2c0.2,0,0.3,0.1,0.5,0.1v0c1.3-1.3,2.9-0.4,4.4-0.6c0.9-0.1,0.9,0.7,0.9,1.3c0,1.6,0,3.3,0,4.9
		c0,3.8-1.6,4.6-5.3,2.8c-0.4,0.3-0.6,0.1-0.6-0.3C179.8,41.3,179.8,38.7,179.8,36z M173.7,56.7c0,3.3-0.1,6.7,0.1,10
		c0.1,1.7-0.5,2.3-2.1,2.1c-1.2-0.2-2.5,0.2-3.7-0.3c-1.1-0.8-0.6-2-0.6-3c-0.1-3.3,0-6.5,0-9.8c0-0.1,0.1-0.2,0.1-0.2
		c0.2,0,0.3,0,0.5,0c1.6-1.2,3.4-0.5,5.2-0.5C174.1,54.9,173.7,56,173.7,56.7z M167.2,38.1c-0.1-1.8-0.1-3,2.4-2.9
		c2.3,0.1,2.8,0.8,2.6,2.8c-0.1,0.7,0,1.4,0,2.2c0,0.7-0.1,1.5,0,2.2c0.3,2-0.3,2.8-2.6,2.7c-1.8-0.1-2.7-0.3-2.4-2.4
		C167.3,41.2,167.3,39.6,167.2,38.1z M158.5,18.4c1-0.1,1.7,0.1,1.7,1.4c0,1.5-1.1,1.1-1.3,1.1c-1.6,0.1-2.4,0.2-2.5-1.2
		C156.5,18.1,157.6,18.5,158.5,18.4z M152.6,37.5c0-0.8,0.1-1.6,0-2.4c-0.2-1.5,0.4-2,1.9-2c1.7,0,2,0.6,1.9,2.1
		c-0.1,1.6-0.1,3.3,0,4.9c0,1.3,0,2.2-1.8,2.2c-1.8,0-2.2-0.7-2.1-2.2C152.7,39.2,152.6,38.4,152.6,37.5z M152.2,54.5
		c0.2,0.6,0.3,0.8,0.3,1c0,5.5,0,11-0.3,16.5C152.2,66.4,152.2,60.6,152.2,54.5z M151.6,56c-0.1,2.4,0,4.9,0,7.3
		c0,2.6-0.1,5.2,0,7.9c0,1.3-0.3,1.7-1.6,1.7c-3.3-0.1-6.5-0.1-9.8,0c-1.4,0-1.9-0.3-1.9-1.8c0.1-5.1,0.1-10.1,0-15.2
		c0-1.3,0.3-1.7,1.6-1.7c3.3,0.1,6.7,0.1,10,0C151.5,54.1,151.7,54.8,151.6,56z M150.7,53.5c-3.9,0-7.8,0-11.7,0
		c0-0.1,0.1-0.2,0.1-0.3c3.9,0,7.7,0,11.6,0C150.7,53.4,150.7,53.4,150.7,53.5z M140.7,41.7c0-2.7,0-5.3,0-8c0.1,0,0.2,0.1,0.2,0.1
		c0,2.6,0,5.3,0,7.9C140.9,41.7,140.8,41.7,140.7,41.7z M149.2,35.3c0.1-0.2,0.3-0.4,0.4-0.6c0,2.5,1,5.1-0.6,7.5
		c-5.8,0.2-5.7,0.2-5.7-5.4c0-1.7,0.2-3.3,2.2-3.8C147.5,32.5,148.5,33.7,149.2,35.3z M124.4,16.1c6.8,0,13.7-0.1,20.5-0.1
		c-0.3,0.6-0.8,0.7-1.3,0.7c-6.3,0-12.5,0-18.8,0c-0.2,0-0.4-0.1-0.4-0.2C124.2,16.5,124.3,16.3,124.4,16.1z M120.9,19.1
		c1-0.1,1.8,0,1.7,1.4c0,1.6-1.1,1-1.6,1.1c-1.3,0.1-2.1,0.1-2.1-1.3C119,18.8,120,19.1,120.9,19.1z M120.7,22.7
		c0.8,0,1.8-0.4,1.9,1.1c0,1.5-0.7,1.6-1.8,1.5c-1.1,0.1-2,0.1-1.9-1.4C118.9,22.3,119.9,22.7,120.7,22.7z M118.8,59.5
		c0,3.7,0,7.4-0.1,11.1c0,0-0.1,0.1-0.2,0.1c-0.1,0-0.2-0.1-0.3-0.1c-1.6,0.9-3.3,0.3-5,0.4c-1.3,0.1-1.1-0.9-1.1-1.7
		c0-3.8,0-7.6,0-11.4c0-1.4,0.5-1.7,1.7-1.6c1.4,0.1,2.9,0.1,4.3,0.2C119.3,57.3,118.8,58.5,118.8,59.5z M117.9,36.5
		c0.1,0,0.1,0,0.2,0c0,2.8,0,5.7,0,8.5c-0.1,0-0.1,0-0.2,0C117.9,42.1,117.9,39.3,117.9,36.5z M114.9,35.5c2.1,0,2.6,0.7,2.4,2.6
		c-0.1,1.5-0.1,3.1,0,4.6c0.2,2-0.1,3-2.6,3c-2.3,0-3-0.7-2.7-2.9c0.1-0.8,0-1.6,0-2.4c0-0.6,0.1-1.3,0-1.9
		C111.6,36.1,112.5,35.5,114.9,35.5z M111.3,36.4c0.1,0,0.1,0,0.2,0c0,2.9,0,5.7,0,8.6c-0.1,0-0.1,0-0.2,0
		C111.3,42.1,111.3,39.2,111.3,36.4z M103.8,57.1c0.1,0,0.2,0,0.2,0c0,4.5,0,9,0,13.4c-0.1,0-0.2,0-0.2,0
		C103.8,66,103.8,61.6,103.8,57.1z M103.2,57.9c0,3.8,0,7.6,0,11.4c0,1.3-0.4,1.7-1.7,1.8c-4.2,0.2-4.2,0.3-4.2-4.1
		c0-1.1,0-2.2,0-3.3c0-1.3-0.1-2.5,0-3.8c0.1-1.1-0.6-2.9,0.4-3.3c1.4-0.6,3.2-0.3,4.8-0.2C103.5,56.4,103.2,57.3,103.2,57.9z
		 M97.1,43.1c0.2-1.9,0.1-3.8,0-5.7c-0.2-2.4,1.5-1.8,2.7-1.8c1.1,0,2.9-0.8,2.7,1.7c-0.1,1.2,0,2.3,0,3.5c0,0.6-0.1,1.3,0,1.9
		c0.4,2.4-0.5,3-2.9,2.9C97.5,45.6,97,45.1,97.1,43.1z M96.6,57.2c0.1,0,0.2,0,0.2,0c0,4.5,0,8.9,0,13.4c-0.1,0-0.2,0-0.2,0
		C96.6,66.1,96.6,61.6,96.6,57.2z M82.6,60.4c0.6-1.2,3-0.9,4.5,0c1.4,1.8,0.4,3.9,0.5,5.8c0,0-0.2,0.1-0.2,0
		c-0.1,0-0.2-0.1-0.2-0.1c-1.5,1.2-4.1,1.1-4.5,0.2C81.9,64.6,81.8,62.1,82.6,60.4z M57,60.7c0.1-1.8,2.4-0.5,3.7-0.8
		c1.2-0.3,1.5,0.5,1.5,1.6c-0.1,3.5-0.1,7-0.1,10.6c-1.5,1.4-3.2,0.5-4.8,0.6c0,0-0.1-0.1-0.1-0.2c0-0.1,0.1-0.2,0.1-0.2
		C56.3,68.4,56.8,64.5,57,60.7z M32.7,60.3c1.7,0.1,2.4,0.4,2.3,2.2c-0.2,2.6-0.2,5.2,0,7.8c0.2,2.4-1,2.3-2.7,2.3
		c-1.7,0-3,0-2.7-2.3c0.2-1.3,0-2.7,0-4.1c0,0,0,0,0,0c0-1,0.1-2,0-3C29.2,60.7,30.4,60.2,32.7,60.3z"/>
</g>
</svg>
