<?xml version="1.0" encoding="utf-8"?>
<!-- Generator: Adobe Illustrator 26.0.3, SVG Export Plug-In . SVG Version: 6.00 Build 0)  -->
<svg version="1.1" id="Layer_1" xmlns="http://www.w3.org/2000/svg" xmlns:xlink="http://www.w3.org/1999/xlink" x="0px" y="0px"
	 width="796.7px" height="335.5px" viewBox="0 0 796.7 335.5" style="enable-background:new 0 0 796.7 335.5;" xml:space="preserve"
	>
<style type="text/css">
	.st0{fill:#01d3fc;}
	.st1{fill:#231F20;}
</style>
<g>
	<g>
		<path class="st0" d="M334.5,95V58.6c0-4.5-3.8-8.1-8.6-8.1c-4.7,0-8.6,3.6-8.6,8.1v24.3L205.9,3.6c-3-2.1-6.9-2.1-9.9,0L6.7,135.6
			c-3.1,2.1-4.4,6-3.3,9.6c1.1,3.6,4.4,6,8.2,6h45v170.4c0,4.7,3.8,8.6,8.6,8.6h136.1c4.7,0,8.6-3.8,8.6-8.6s-3.8-8.6-8.6-8.6H73.7
			V142.7c0-4.7-3.8-8.6-8.6-8.6H38.8L200.9,21L343,122.2h29.6L334.5,95z"/>
	</g>
	<g>
		<path class="st0" d="M711,180c-0.8-10.4-6.7-18.5-14.3-25.2c-6.6-5.9-17.1-11.5-20.3-20.1c-1.6-4.3-1.2-9-0.1-13.4
			c0.4-1.7-1.4-2.9-4.1-1.8c-6,2.4-30.6,13.2-40.2,45.3c-2.4,8-3.3,16.5-1.8,24.7c3.3,18.7,18.8,34.9,39.9,34.9
			c17.8,0,30.3-10.4,36.9-24C710.1,193.9,711.5,187.1,711,180z M670.1,204.1c-10.1,0-18-8.6-18-19.3c0-10.5,7.9-19,18-19
			c10,0,18,8.5,18,19C688.1,195.4,680,204.1,670.1,204.1z"/>
	</g>
	<g>
		<g>
			<path class="st1" d="M149.9,104c0-1.7,1.4-3.3,3.1-3.3h40.7c33.2,0,60.3,27,60.3,60c0,33.3-27.2,60.3-60.3,60.3H153
				c-1.7,0-3.1-1.5-3.1-3.3V104z M191.7,200.1c22.3,0,38.7-16.8,38.7-39.4c0-22.3-16.3-39.2-38.7-39.2h-19.6v78.5H191.7z"/>
		</g>
		<g>
			<path class="st1" d="M300.6,150.6c17.7,0,32.1,13.4,32.1,32c0,1.2-0.2,3.4-0.3,4.6c-0.2,1.7-1.7,2.9-3.3,2.9h-44
				c0.5,7,6.5,15,16.5,15c5.3,0,10.3-2.1,13.4-4.3c1.7-1,3.3-1.4,4.5,0l7,8.1c1.2,1.2,1.5,3.1-0.2,4.5c-5.7,5.3-14.4,9.5-25.6,9.5
				c-20.6,0-35.2-16.3-35.2-36.1C265.6,167.3,280.2,150.6,300.6,150.6z M312.7,178.1c-0.5-6.4-6-11.7-12.5-11.7
				c-6.9,0-12.5,5.2-13.4,11.7H312.7z"/>
		</g>
		<g>
			<path class="st1" d="M341.7,156.3c-1-2.2,0.5-4,2.9-4H357c1,0,2.7,0.9,3.1,2.1l10.3,30.8h0.2l17.5-33c0.3-0.7,1.2-1.5,2.7-1.5
				h1.4c1.5,0,2.2,0.7,2.7,1.5l17.4,33h0.2l10.3-30.8c0.7-1.9,2.1-2.1,4-2.1h11.2c2.4,0,4,1.7,3.1,4l-21.5,64.6
				c-0.3,1-1.4,1.9-3.1,1.9h-0.7c-1.4,0-2.2-0.7-2.7-1.5l-21.7-40h-0.2l-21.5,40c-0.5,0.9-1.4,1.5-2.7,1.5h-0.9
				c-1.5,0-2.6-0.9-2.9-1.9L341.7,156.3z"/>
		</g>
		<g>
			<path class="st1" d="M457.7,104c0-1.7,1.4-3.3,3.1-3.3h40.7c33.2,0,60.3,27,60.3,60c0,33.3-27.2,60.3-60.3,60.3h-40.7
				c-1.7,0-3.1-1.5-3.1-3.3V104z M499.5,200.1c22.3,0,38.7-16.8,38.7-39.4c0-22.3-16.3-39.2-38.7-39.2h-19.6v78.5H499.5z"/>
		</g>
		<g>
			<path class="st1" d="M578.2,155.6c0-1.9,1.5-3.3,3.3-3.3h6.5c1.5,0,2.6,0.9,3.1,2.2l2.4,6.7c2.4-3.4,8.8-10.7,19.4-10.7
				c8.1,0,15.3,2.6,13.2,6.9l-6.4,11.2c-0.9,1.5-2.6,2.2-4,1.5c-0.5-0.2-3.1-1-5-1c-6.9,0-11,4.6-12.2,7v41.6c0,2.4-1.5,3.3-4,3.3
				h-13.2c-1.7,0-3.3-1.5-3.3-3.3V155.6z"/>
		</g>
		<g>
			<path class="st1" d="M741.3,269.4c0,2.1-1,3.3-4.1,3.3h-13.7c-1.7,0-3.3-1.5-3.3-3.3V155.6c0-1.9,1.5-3.3,3.3-3.3h6.7
				c1.2,0,2.4,0.7,2.9,2.1l2.2,5.7c2.6-3.4,11-9.5,22.2-9.5c18.9,0,33.2,16.3,33.2,36.1c0,20.3-15.5,36.1-34,36.1
				c-6.7,0-12.9-2.4-15.3-3.8V269.4z M753.8,204.2c9.6,0,16.7-7.9,16.7-17.5c0-9.6-6.5-17.5-16-17.5c-8.8,0-13.1,6.9-14.1,10.5v20.6
				C740.4,200.3,745.2,204.2,753.8,204.2z"/>
		</g>
	</g>
	<g>
		<path class="st1" d="M149.9,243.5c0-0.6,0.6-1.2,1.2-1.2h4.1c0.7,0,1.2,0.6,1.2,1.2v17.2H179v-17.2c0-0.6,0.5-1.2,1.2-1.2h4.1
			c0.6,0,1.2,0.6,1.2,1.2v40.9c0,0.6-0.6,1.2-1.2,1.2h-4.1c-0.7,0-1.2-0.6-1.2-1.2v-17.8h-22.6v17.8c0,0.6-0.5,1.2-1.2,1.2h-4.1
			c-0.6,0-1.2-0.6-1.2-1.2V243.5z"/>
		<path class="st1" d="M222.5,241.8c12.3,0,22.2,9.9,22.2,22.3c0,12.3-9.9,22.2-22.2,22.2c-12.3,0-22.2-9.8-22.2-22.2
			C200.4,251.7,210.2,241.8,222.5,241.8z M222.5,280c8.8,0,16.1-7.2,16.1-16c0-8.8-7.2-16.1-16.1-16.1c-8.8,0-16,7.3-16,16.1
			C206.5,272.9,213.8,280,222.5,280z"/>
		<path class="st1" d="M264.4,242.7c0.1-0.5,0.6-0.9,1.1-0.9h1c0.4,0,0.9,0.3,1,0.7l12.9,31.5h0.2l12.8-31.5c0.1-0.4,0.6-0.7,1-0.7
			h1c0.5,0,1,0.4,1.1,0.9l7.6,41.5c0.2,0.9-0.2,1.4-1.1,1.4h-4c-0.6,0-1-0.4-1.2-0.9l-4.6-27.6c-0.1,0-0.2,0-0.2,0l-11.1,28.4
			c-0.1,0.4-0.5,0.7-1,0.7H280c-0.5,0-0.9-0.3-1-0.7l-11.2-28.4c-0.1,0-0.2,0-0.2,0l-4.4,27.6c-0.1,0.4-0.6,0.9-1.1,0.9h-4
			c-0.9,0-1.3-0.6-1.2-1.4L264.4,242.7z"/>
		<path class="st1" d="M319.6,243.5c0-0.6,0.5-1.2,1.2-1.2h24.7c0.7,0,1.2,0.6,1.2,1.2v3.5c0,0.6-0.5,1.2-1.2,1.2h-19.5v12.6h16.5
			c0.6,0,1.2,0.6,1.2,1.2v3.5c0,0.7-0.6,1.2-1.2,1.2h-16.5v13.3h19.5c0.7,0,1.2,0.6,1.2,1.2v3.4c0,0.6-0.5,1.2-1.2,1.2h-24.7
			c-0.7,0-1.2-0.6-1.2-1.2V243.5z"/>
		<path class="st1" d="M379.1,279.3c0.6-0.8,1-1.7,1.6-2.5s1.4-1,2.1-0.5c0.4,0.3,5.1,4.3,9.9,4.3c4.3,0,7-2.6,7-5.7
			c0-3.7-3.2-6.1-9.3-8.6c-6.3-2.7-11.2-5.9-11.2-13.1c0-4.8,3.7-11.4,13.5-11.4c6.2,0,10.8,3.2,11.4,3.6c0.5,0.3,1,1.2,0.4,2.1
			c-0.5,0.7-1,1.6-1.5,2.3c-0.5,0.8-1.3,1.2-2.2,0.6c-0.4-0.2-4.8-3.1-8.3-3.1c-5.2,0-7,3.3-7,5.6c0,3.5,2.7,5.7,7.8,7.8
			c7.2,2.9,13.3,6.3,13.3,13.8c0,6.4-5.7,11.7-13.8,11.7c-7.5,0-12.3-4-13.3-4.9C378.9,280.8,378.5,280.4,379.1,279.3z"/>
		<path class="st1" d="M421.2,243.5c0-0.6,0.5-1.2,1.2-1.2H447c0.7,0,1.2,0.6,1.2,1.2v3.5c0,0.6-0.5,1.2-1.2,1.2h-19.5v12.6H444
			c0.6,0,1.2,0.6,1.2,1.2v3.5c0,0.7-0.6,1.2-1.2,1.2h-16.5v13.3H447c0.7,0,1.2,0.6,1.2,1.2v3.4c0,0.6-0.5,1.2-1.2,1.2h-24.7
			c-0.7,0-1.2-0.6-1.2-1.2V243.5z"/>
		<path class="st1" d="M463.7,243.5c0-0.6,0.5-1.2,1.2-1.2h16.8c7.4,0,13.5,5.9,13.5,13.2c0,5.7-3.8,10.4-9.1,12.5l8.5,15.7
			c0.4,0.8,0,1.8-1,1.8h-4.8c-0.5,0-0.9-0.3-1-0.6l-8.2-16.4h-9.3v15.7c0,0.6-0.6,1.2-1.2,1.2h-4c-0.7,0-1.2-0.6-1.2-1.2V243.5z
			 M481.2,263.4c4,0,7.5-3.4,7.5-7.7c0-4-3.5-7.3-7.5-7.3h-11v15H481.2z"/>
		<path class="st1" d="M505.2,244c-0.4-0.8,0.1-1.6,1-1.6h4.4c0.5,0,0.9,0.4,1,0.7l13.6,30.6h0.4l13.6-30.6c0.1-0.3,0.5-0.7,1-0.7
			h4.4c0.9,0,1.4,0.8,1,1.6l-19,41.5c-0.2,0.4-0.6,0.7-1,0.7h-0.6c-0.4,0-0.9-0.3-1-0.7L505.2,244z"/>
		<path class="st1" d="M558.1,243.5c0-0.6,0.6-1.2,1.2-1.2h4.1c0.6,0,1.2,0.6,1.2,1.2v40.9c0,0.6-0.6,1.2-1.2,1.2h-4.1
			c-0.6,0-1.2-0.6-1.2-1.2V243.5z"/>
		<path class="st1" d="M601.8,241.8c6.2,0,10.7,2.1,14.9,5.7c0.6,0.5,0.6,1.2,0.1,1.7l-2.7,2.8c-0.4,0.6-1,0.6-1.5,0
			c-2.9-2.5-6.9-4.1-10.7-4.1c-8.8,0-15.5,7.4-15.5,16.1c0,8.6,6.7,16,15.6,16c4.5,0,7.7-1.8,10.6-4.1c0.6-0.4,1.1-0.4,1.5-0.1
			l2.8,2.8c0.5,0.4,0.4,1.2-0.1,1.7c-4.2,4.1-9.5,6-15,6c-12.3,0-22.3-9.8-22.3-22.2C579.5,251.7,589.5,241.8,601.8,241.8z"/>
		<path class="st1" d="M631.8,243.5c0-0.6,0.5-1.2,1.2-1.2h24.7c0.7,0,1.2,0.6,1.2,1.2v3.5c0,0.6-0.5,1.2-1.2,1.2h-19.5v12.6h16.5
			c0.6,0,1.2,0.6,1.2,1.2v3.5c0,0.7-0.6,1.2-1.2,1.2h-16.5v13.3h19.5c0.7,0,1.2,0.6,1.2,1.2v3.4c0,0.6-0.5,1.2-1.2,1.2H633
			c-0.7,0-1.2-0.6-1.2-1.2V243.5z"/>
		<path class="st1" d="M671.6,279.3c0.6-0.8,1-1.7,1.6-2.5s1.4-1,2.1-0.5c0.4,0.3,5.1,4.3,9.9,4.3c4.3,0,7-2.6,7-5.7
			c0-3.7-3.2-6.1-9.3-8.6c-6.3-2.7-11.2-5.9-11.2-13.1c0-4.8,3.7-11.4,13.5-11.4c6.2,0,10.8,3.2,11.4,3.6c0.5,0.3,1,1.2,0.4,2.1
			c-0.5,0.7-1,1.6-1.5,2.3c-0.5,0.8-1.3,1.2-2.2,0.6c-0.4-0.2-4.8-3.1-8.3-3.1c-5.2,0-7,3.3-7,5.6c0,3.5,2.7,5.7,7.8,7.8
			c7.2,2.9,13.3,6.3,13.3,13.8c0,6.4-5.7,11.7-13.8,11.7c-7.5,0-12.3-4-13.3-4.9C671.4,280.8,670.9,280.4,671.6,279.3z"/>
	</g>
</g>
</svg>
