<?xml version="1.0" encoding="utf-8"?>
<!-- Generator: Adobe Illustrator 26.0.3, SVG Export Plug-In . SVG Version: 6.00 Build 0)  -->
<svg version="1.1" id="Layer_1" xmlns="http://www.w3.org/2000/svg" xmlns:xlink="http://www.w3.org/1999/xlink" x="0px" y="0px"
	 width="11px" height="2.2px" viewBox="0 0 11 2.2" style="enable-background:new 0 0 11 2.2;" xml:space="preserve">
<style type="text/css">
	.st0{fill:#01d3fc;}
</style>
<g>
	<path class="st0" d="M1.3,0.1l0.3,0.5l0.6,0.1c0.1,0,0.1,0.1,0.1,0.2L1.8,1.4L1.9,2c0,0.1-0.1,0.2-0.2,0.1L1.2,1.8L0.6,2.1
		c-0.1,0-0.2,0-0.2-0.1l0.1-0.6L0.1,1C0,0.9,0.1,0.8,0.2,0.8l0.6-0.1L1,0.1C1.1,0,1.2,0,1.3,0.1z"/>
	<path class="st0" d="M3.4,0.1l0.3,0.5l0.6,0.1c0.1,0,0.1,0.1,0.1,0.2L3.9,1.4L4,2c0,0.1-0.1,0.2-0.2,0.1L3.3,1.8L2.8,2.1
		c-0.1,0-0.2,0-0.2-0.1l0.1-0.6L2.3,1c-0.1-0.1,0-0.2,0.1-0.2l0.6-0.1l0.3-0.5C3.3,0,3.4,0,3.4,0.1z"/>
	<path class="st0" d="M5.6,0.1l0.3,0.5l0.6,0.1c0.1,0,0.1,0.1,0.1,0.2L6.1,1.4L6.2,2c0,0.1-0.1,0.2-0.2,0.1L5.5,1.8L5,2.1
		c-0.1,0-0.2,0-0.2-0.1l0.1-0.6L4.5,1c-0.1-0.1,0-0.2,0.1-0.2l0.6-0.1l0.3-0.5C5.4,0,5.6,0,5.6,0.1z"/>
	<path class="st0" d="M7.8,0.1L8,0.7l0.6,0.1c0.1,0,0.1,0.1,0.1,0.2L8.3,1.4L8.4,2c0,0.1-0.1,0.2-0.2,0.1L7.7,1.8L7.1,2.1
		C7,2.2,6.9,2.1,7,2l0.1-0.6L6.6,1c-0.1-0.1,0-0.2,0.1-0.2l0.6-0.1l0.3-0.5C7.6,0,7.7,0,7.8,0.1z"/>
	<path class="st0" d="M9.9,0.1l0.3,0.5l0.6,0.1c0.1,0,0.1,0.1,0.1,0.2l-0.4,0.4L10.5,2c0,0.1-0.1,0.2-0.2,0.1L9.8,1.8L9.3,2.1
		c-0.1,0-0.2,0-0.2-0.1l0.1-0.6L8.8,1c-0.1-0.1,0-0.2,0.1-0.2l0.6-0.1l0.3-0.5C9.8,0,9.9,0,9.9,0.1z"/>
</g>
</svg>
