<?xml version="1.0" encoding="utf-8"?>
<!-- Generator: Adobe Illustrator 26.0.3, SVG Export Plug-In . SVG Version: 6.00 Build 0)  -->
<svg version="1.1" id="Layer_1" xmlns="http://www.w3.org/2000/svg" xmlns:xlink="http://www.w3.org/1999/xlink" x="0px" y="0px"
	 width="90.3px" height="89.6px" viewBox="0 0 90.3 89.6" style="enable-background:new 0 0 90.3 89.6;" xml:space="preserve">
<style type="text/css">
	.st0{fill:#26282C;}
</style>
<g>
	<path class="st0" d="M77.4,31.2c0,15.5-7.9,32.8-25.6,32.8c-4.2,0-9.5-2.1-11.5-6c-3.8,15-3.5,17.3-11.9,28.8
		c-0.9,0.3-0.6,0.4-1.1-0.2c-0.3-3.1-0.7-6.2-0.7-9.4c0-10.2,4.7-24.9,7-34.8c-1.2-2.5-1.6-5.6-1.6-8.4c0-13.3,15.6-15.3,15.6-4.3
		c0,6.5-4.4,12.6-4.4,18.9c0,4.3,3.5,7.3,7.7,7.3c11.5,0,15-16.6,15-25.4c0-11.8-8.4-18.3-19.7-18.3C33,12,22.8,21.5,22.8,34.9
		c0,6.4,3.9,9.7,3.9,11.3c0,1.3-0.9,5.9-2.6,5.9c-4,0-10.6-6.7-10.6-18.4c0-18.4,16.9-29.8,34-29.8C63.2,3.8,77.4,14.6,77.4,31.2z"
		/>
</g>
</svg>
