<?xml version="1.0" encoding="utf-8"?>
<!-- Generator: Adobe Illustrator 26.0.3, SVG Export Plug-In . SVG Version: 6.00 Build 0)  -->
<svg version="1.1" id="Layer_1" xmlns="http://www.w3.org/2000/svg" xmlns:xlink="http://www.w3.org/1999/xlink" x="0px" y="0px"
	 width="100px" height="87.1px" viewBox="0 0 100 87.1" style="enable-background:new 0 0 100 87.1;" xml:space="preserve">
<style type="text/css">
	.st0{fill:#26282C;}
</style>
<g>
	<polygon class="st0" points="83.2,46.5 83.2,46.5 83.2,46.5 	"/>
	<path class="st0" d="M23.9,1.2C13.8,1.6,5.6,7.8,2.4,17.4c-0.4,1.3-0.7,2.6-0.9,4c0,0.2,0,0.4-0.2,0.5c0,1.2,0,2.4,0,3.6
		c0.2,0.2,0.3,0.4,0,0.6c0,0.3,0,0.6,0,1c0.5,1,0.4,2.1,0.7,3.2c2.5,8.8,8.1,14.4,16.9,16.8c4.4,1.2,8.7,0.9,13.2-0.5
		c-0.3,2.1-0.8,4-1.3,6c-2.6,10.1-7.2,19.3-12.4,28.3c-0.7,1.3-1.5,2.6-2.1,4c-0.1,0.3-0.4,0.8,0.2,0.9c0,0,0-0.1,0-0.1
		c2-1.3,4-2.7,6-4c8.1-5.4,14-12.6,17.9-21.4c3-6.6,4.9-13.5,6-20.6c0.5-3.4,0.8-6.8,1-10.2c0.2-3.2,0.2-6.3-0.4-9.4
		C45.7,13.4,42.2,8.5,36.8,5c-3.4-2.2-7.1-3.2-11-3.5c-0.3,0-0.7,0.1-0.8-0.4c-0.1,0-0.3,0-0.4,0C24.4,1.3,24.1,1.2,23.9,1.2z"/>
	<path class="st0" d="M25.7,1.4c4,0.3,7.7,1.4,11,3.5c5.5,3.5,8.9,8.4,10.2,14.8c0.7,3.1,0.6,6.2,0.4,9.4c-0.2,3.4-0.5,6.8-1,10.2
		c-1.1,7.1-3,14.1-6,20.6c-4,8.8-9.9,16-17.9,21.4c-2,1.3-4,2.8-6,4c0,0,0,0.1,0,0.1c0,0,0,0,0.1,0c4-2.1,7.6-4.8,11-7.7
		c7.5-6.3,12.3-14.5,15.5-23.7c3.1-8.9,4.5-18,4.8-27.4c0.1-5.4-0.7-10.5-3.8-15.1c-3.7-5.6-8.9-9-15.5-10.3
		c-1.2-0.2-2.4-0.1-3.6-0.5C25,1.5,25.4,1.4,25.7,1.4z"/>
	<path class="st0" d="M74.8,1.4c-6,0.3-11.2,2.5-15.5,6.9c-3.8,3.9-6,8.6-6.5,14.1c-0.5,6.1,1.1,11.6,4.9,16.4c4,5,9.2,7.8,15.5,8.5
		c2.9,0.3,5.9,0.1,8.8-0.7c0.6-0.2,1-0.2,1.2-0.1c0,0,0,0,0,0c0,0,0,0,0,0c0.2,0.2,0.2,0.5,0.1,1.2c-1.3,6.9-3.6,13.5-6.5,19.9
		c-2.3,5.1-5.1,9.9-7.8,14.7c-0.3,0.6-0.6,1.2-0.9,1.8c-0.1,0.3-0.5,0.7-0.2,1c0.3,0.2,0.6-0.1,0.9-0.3c1-0.6,2-1.3,2.9-2
		c3.6-2.6,7.2-5.2,10.3-8.4c3.2-3.4,5.8-7.1,8-11.2c3.6-6.9,5.9-14.2,7.3-21.8c0.6-3.2,0.9-6.4,1.2-9.6c0-0.3-0.1-0.7,0.4-0.8
		c0-0.3,0-0.6,0-1c-0.2,0-0.2-0.2-0.2-0.4c0-0.1,0-0.3,0-0.4c0-0.1,0-0.3,0-0.4c0-0.1,0-0.3,0-0.4l0,0h0c0-0.1,0-0.3,0-0.4l0,0
		c0,0,0,0,0,0c0-0.2,0-0.3,0.2-0.4c0-0.7,0-1.4,0-2.1c-0.3-0.5-0.3-1,0-1.5c0-0.2,0-0.4,0-0.6c-0.2-0.1-0.2-0.2-0.2-0.4c0,0,0,0,0,0
		c0-0.2-0.1-0.3,0.2-0.4c0-0.3,0-0.6,0-1c-0.6-0.9-0.4-1.9-0.7-2.9C95.8,9.9,90,4.2,81.1,1.8c-1.3-0.4-2.7-0.5-4.1-0.6
		c-0.3,0-0.6,0.2-0.8-0.2c-0.1,0-0.3,0-0.4,0C75.6,1.5,75.1,1.4,74.8,1.4z"/>
	<path class="st0" d="M98.5,31.8c-0.3,3.2-0.6,6.4-1.2,9.6C95.9,49,93.7,56.3,90,63.2c-2.2,4.1-4.8,7.8-8,11.2
		c-3.1,3.3-6.7,5.8-10.3,8.4c-1,0.7-1.9,1.4-2.9,2c-0.3,0.2-0.7,0.5-0.9,0.3c-0.3-0.3,0-0.7,0.2-1c0.3-0.6,0.6-1.2,0.9-1.8
		c2.7-4.8,5.5-9.7,7.8-14.7c2.9-6.4,5.2-13,6.5-19.9c0.1-0.7,0.1-1-0.1-1.2c0,0.3,0,0.4,0,0.6c-0.6,3.6-1.6,7.1-2.8,10.6
		c-2.3,6.8-5.3,13.2-8.8,19.4c-1.3,2.3-2.5,4.5-3.8,6.8c-0.3,0.5-0.8,1.2-0.4,1.6c0.4,0.4,1-0.2,1.5-0.4c2.3-1.3,4.3-3,6.5-4.5
		c5.7-4,10.2-9,13.6-15c5.8-10,8.5-20.8,9.6-32.2c0.1-0.8,0-1.6,0.4-2.4C98.5,31,98.6,31.5,98.5,31.8z"/>
	<path class="st0" d="M75,1.2c-3.4,0.1-6.6,0.9-9.7,2.4C55.9,8.2,50.7,19.1,53,29.3c1.2,5.2,3.7,9.5,7.7,12.9
		c4.6,3.8,9.9,5.6,15.8,5.5c2.3-0.1,4.4-0.5,6.6-1.2c-0.2-0.2-0.6-0.1-1.2,0.1c-2.9,0.9-5.8,1.1-8.8,0.7c-6.3-0.7-11.5-3.6-15.5-8.5
		c-3.8-4.8-5.4-10.3-4.9-16.4c0.5-5.5,2.7-10.2,6.5-14.1c4.2-4.3,9.5-6.5,15.5-6.9c0.3,0,0.8,0.1,0.9-0.4C75.6,1.3,75.3,1.2,75,1.2z
		"/>
	<path class="st0" d="M16.5,85.6c0,0.1,0,0.1,0.1,0.2C16.5,85.7,16.5,85.6,16.5,85.6C16.5,85.6,16.5,85.6,16.5,85.6z"/>
	<path class="st0" d="M16.5,85.6C16.5,85.6,16.5,85.6,16.5,85.6C16.5,85.6,16.5,85.6,16.5,85.6C16.5,85.6,16.5,85.6,16.5,85.6z"/>
	<path class="st0" d="M99,25.6c0-0.5,0-1,0-1.5C98.8,24.6,98.8,25.1,99,25.6z"/>
	<path class="st0" d="M99,25.6c-0.2-0.5-0.2-1,0-1.5C98.7,24.6,98.7,25.1,99,25.6z"/>
	<path class="st0" d="M1.3,25.4c0,0.2,0,0.4,0,0.6C1.4,25.8,1.4,25.6,1.3,25.4z"/>
	<path class="st0" d="M1.3,25.4c0.1,0.2,0.1,0.4,0,0.6C1.5,25.8,1.5,25.6,1.3,25.4z"/>
	<path class="st0" d="M99,30c0-0.1,0-0.3,0-0.4c0,0-0.1,0-0.1,0C98.9,29.8,98.9,29.9,99,30z"/>
	<path class="st0" d="M98.9,29.6C98.9,29.6,98.8,29.6,98.9,29.6C98.8,29.8,98.7,30,99,30C98.9,29.9,98.9,29.8,98.9,29.6z"/>
	<path class="st0" d="M98.9,29.6C98.9,29.6,98.9,29.6,98.9,29.6c0.1-0.1,0.1-0.2,0.1-0.3c0,0-0.1,0-0.1,0
		C98.9,29.4,98.9,29.5,98.9,29.6z"/>
	<path class="st0" d="M98.9,29.6c0-0.1,0-0.2,0-0.3c0,0,0,0-0.1,0C98.8,29.4,98.8,29.5,98.9,29.6C98.8,29.6,98.9,29.6,98.9,29.6z"/>
	<path class="st0" d="M98.9,29.6C98.9,29.6,98.9,29.6,98.9,29.6C98.9,29.6,98.9,29.6,98.9,29.6C98.9,29.6,98.9,29.6,98.9,29.6
		C98.9,29.6,98.9,29.6,98.9,29.6z"/>
	<path class="st0" d="M98.9,29.6C98.9,29.6,98.9,29.6,98.9,29.6C98.9,29.6,98.8,29.6,98.9,29.6C98.8,29.6,98.9,29.6,98.9,29.6
		C98.9,29.6,98.9,29.6,98.9,29.6z"/>
	<path class="st0" d="M98.9,29.2C98.9,29.2,98.9,29.2,98.9,29.2C99,29.1,99,29,99,28.9c0,0-0.1,0-0.1,0C98.9,29,98.9,29.1,98.9,29.2
		z"/>
	<path class="st0" d="M98.9,29.2c0-0.1,0-0.2,0-0.3c0,0,0,0-0.1,0C98.8,29,98.8,29.1,98.9,29.2C98.8,29.2,98.9,29.2,98.9,29.2z"/>
	<path class="st0" d="M98.9,29.2C98.9,29.2,98.9,29.2,98.9,29.2C98.9,29.2,98.9,29.2,98.9,29.2C98.9,29.3,98.9,29.3,98.9,29.2
		C98.9,29.2,98.9,29.2,98.9,29.2z"/>
	<path class="st0" d="M98.9,29.2C98.9,29.2,98.9,29.2,98.9,29.2C98.9,29.2,98.8,29.2,98.9,29.2C98.8,29.3,98.9,29.3,98.9,29.2
		C98.9,29.2,98.9,29.2,98.9,29.2z"/>
	<path class="st0" d="M98.9,28.5c0,0.1,0,0.2,0,0.3c0,0,0.1,0,0.1,0.1C99,28.7,99,28.6,98.9,28.5C98.9,28.5,98.9,28.5,98.9,28.5
		C98.9,28.5,98.9,28.5,98.9,28.5z"/>
	<path class="st0" d="M98.9,28.8c0-0.1,0-0.2,0-0.3c0,0,0,0,0,0c0,0,0,0-0.1,0l0,0C98.8,28.6,98.8,28.7,98.9,28.8
		C98.8,28.8,98.9,28.8,98.9,28.8z"/>
	<path class="st0" d="M98.9,28.8C98.9,28.8,98.9,28.8,98.9,28.8C98.9,28.9,98.9,28.9,98.9,28.8C98.9,28.9,98.9,28.9,98.9,28.8
		C98.9,28.8,98.9,28.8,98.9,28.8z"/>
	<path class="st0" d="M98.9,28.9C98.9,28.8,98.9,28.8,98.9,28.9C98.9,28.8,98.8,28.8,98.9,28.9C98.8,28.9,98.9,28.9,98.9,28.9
		C98.9,28.9,98.9,28.9,98.9,28.9z"/>
	<path class="st0" d="M98.9,28.2c0,0.1,0,0.2,0,0.3c0,0,0.1,0,0.1,0.1C99,28.4,99,28.2,98.9,28.2C98.9,28.1,98.9,28.1,98.9,28.2
		C98.9,28.1,98.9,28.1,98.9,28.2z"/>
	<path class="st0" d="M98.9,28.4c0-0.1,0-0.2,0-0.3c0,0,0,0,0,0c0,0,0,0-0.1,0l0,0C98.8,28.2,98.8,28.4,98.9,28.4L98.9,28.4
		C98.8,28.5,98.9,28.4,98.9,28.4z"/>
	<path class="st0" d="M98.9,28.4C98.9,28.4,98.9,28.5,98.9,28.4C98.9,28.5,98.9,28.5,98.9,28.4C98.9,28.4,98.9,28.4,98.9,28.4z"/>
	<path class="st0" d="M98.9,28.4C98.9,28.4,98.8,28.5,98.9,28.4C98.8,28.5,98.9,28.5,98.9,28.4C98.9,28.5,98.9,28.4,98.9,28.4z"/>
	<path class="st0" d="M98.9,28C98.9,28,98.9,28,98.9,28C99,28,99,27.8,99,27.7C98.9,27.8,98.9,27.9,98.9,28z"/>
	<path class="st0" d="M98.8,28.1C98.8,28.1,98.8,28.1,98.8,28.1C98.8,28.1,98.9,28.1,98.8,28.1c0.1-0.2,0.1-0.3,0.2-0.4
		C98.8,27.8,98.8,27.9,98.8,28.1z"/>
	<path class="st0" d="M98.9,28C98.9,28.1,98.9,28.1,98.9,28C98.9,28.1,98.9,28.1,98.9,28C98.9,28,98.9,28,98.9,28z"/>
	<path class="st0" d="M98.9,28C98.9,28.1,98.8,28.1,98.9,28C98.8,28.1,98.9,28.1,98.9,28C98.9,28.1,98.9,28.1,98.9,28z"/>
	<path class="st0" d="M98.9,23.1c0,0.1,0,0.3,0.1,0.4C99,23.4,99,23.3,98.9,23.1C98.9,23.1,98.9,23.1,98.9,23.1
		C98.9,23.1,98.9,23.1,98.9,23.1z"/>
	<path class="st0" d="M98.9,23.1C98.9,23.1,98.8,23.1,98.9,23.1c-0.1,0.2-0.1,0.3,0.1,0.4C98.9,23.4,98.9,23.3,98.9,23.1
		C98.9,23.1,98.9,23.1,98.9,23.1z"/>
	<path class="st0" d="M99,23.1c0-0.1,0-0.3,0-0.4C98.9,22.8,98.9,23,99,23.1C98.9,23.1,98.9,23.1,99,23.1z"/>
	<path class="st0" d="M98.8,23.1C98.8,23.1,98.8,23.1,98.8,23.1L98.8,23.1C98.8,23.1,98.9,23.1,98.8,23.1c0.1-0.2,0.1-0.3,0.2-0.4
		C98.7,22.8,98.8,23,98.8,23.1z"/>
	<path class="st0" d="M98.9,23.1C98.9,23.1,98.9,23.1,98.9,23.1C98.9,23.1,98.9,23.1,98.9,23.1C98.9,23.1,98.9,23.1,98.9,23.1z"/>
	<path class="st0" d="M98.9,23.1C98.9,23.1,98.8,23.1,98.9,23.1L98.9,23.1C98.8,23.1,98.9,23.1,98.9,23.1
		C98.9,23.1,98.9,23.1,98.9,23.1z"/>
</g>
</svg>
