<?xml version="1.0" encoding="utf-8"?>
<!-- Generator: Adobe Illustrator 26.0.3, SVG Export Plug-In . SVG Version: 6.00 Build 0)  -->
<svg version="1.1" id="Layer_1" xmlns="http://www.w3.org/2000/svg" xmlns:xlink="http://www.w3.org/1999/xlink" x="0px" y="0px"
	 width="100px" height="87.1px" viewBox="0 0 100 87.1" style="enable-background:new 0 0 100 87.1;" xml:space="preserve">
<style type="text/css">
	.st0{fill:#26282C;}
</style>
<g>
	<polygon class="st0" points="17.1,40.3 17.1,40.3 17.1,40.3 	"/>
	<path class="st0" d="M76.4,85.6c10.1-0.4,18.3-6.6,21.5-16.2c0.4-1.3,0.7-2.6,0.9-4c0-0.2,0-0.4,0.2-0.5c0-1.2,0-2.4,0-3.6
		c-0.2-0.2-0.3-0.4,0-0.6c0-0.3,0-0.6,0-1c-0.5-1-0.4-2.1-0.7-3.2c-2.5-8.8-8.1-14.4-16.9-16.8c-4.4-1.2-8.7-0.9-13.2,0.5
		c0.3-2.1,0.8-4,1.3-6C72.1,24.2,76.7,15,81.9,6c0.7-1.3,1.5-2.6,2.1-4c0.1-0.3,0.4-0.8-0.2-0.9c0,0,0,0.1,0,0.1c-2,1.3-4,2.7-6,4
		c-8.1,5.4-14,12.6-17.9,21.4c-3,6.6-4.9,13.5-6,20.6c-0.5,3.4-0.8,6.8-1,10.2c-0.2,3.2-0.2,6.3,0.4,9.4c1.3,6.3,4.8,11.3,10.2,14.8
		c3.4,2.2,7.1,3.2,11,3.5c0.3,0,0.7-0.1,0.8,0.4c0.1,0,0.3,0,0.4,0C75.8,85.4,76.1,85.6,76.4,85.6z"/>
	<path class="st0" d="M74.5,85.3c-4-0.3-7.7-1.4-11-3.5C58,78.3,54.6,73.3,53.2,67c-0.7-3.1-0.6-6.2-0.4-9.4c0.2-3.4,0.5-6.8,1-10.2
		c1.1-7.1,3-14.1,6-20.6c4-8.8,9.9-16,17.9-21.4c2-1.3,4-2.8,6-4c0,0,0-0.1,0-0.1c0,0,0,0-0.1,0c-4,2.1-7.6,4.8-11,7.7
		c-7.5,6.3-12.3,14.5-15.5,23.7c-3.1,8.9-4.5,18-4.8,27.4c-0.1,5.4,0.7,10.5,3.8,15.1c3.7,5.6,8.9,9,15.5,10.3
		c1.2,0.2,2.4,0.1,3.6,0.5C75.3,85.2,74.8,85.3,74.5,85.3z"/>
	<path class="st0" d="M25.4,85.3c6-0.3,11.2-2.5,15.5-6.9c3.8-3.9,6-8.6,6.5-14.1c0.5-6.1-1.1-11.6-4.9-16.4c-4-5-9.2-7.8-15.5-8.5
		c-2.9-0.3-5.9-0.1-8.8,0.7c-0.6,0.2-1,0.2-1.2,0.1c0,0,0,0,0,0c0,0,0,0,0,0c-0.2-0.2-0.2-0.5-0.1-1.2c1.3-6.9,3.6-13.5,6.5-19.9
		c2.3-5.1,5.1-9.9,7.8-14.7c0.3-0.6,0.6-1.2,0.9-1.8c0.1-0.3,0.5-0.7,0.2-1c-0.3-0.2-0.6,0.1-0.9,0.3c-1,0.6-2,1.3-2.9,2
		c-3.6,2.6-7.2,5.2-10.3,8.4c-3.2,3.4-5.8,7.1-8,11.2c-3.6,6.9-5.9,14.2-7.3,21.8C2.3,48.5,2,51.8,1.7,55c0,0.3,0.1,0.7-0.4,0.8
		c0,0.3,0,0.6,0,1c0.2,0,0.2,0.2,0.2,0.4c0,0.1,0,0.3,0,0.4c0,0.1,0,0.3,0,0.4c0,0.1,0,0.3,0,0.4l0,0h0c0,0.1,0,0.3,0,0.4l0,0
		c0,0,0,0,0,0c0,0.2,0,0.3-0.2,0.4c0,0.7,0,1.4,0,2.1c0.3,0.5,0.3,1,0,1.5c0,0.2,0,0.4,0,0.6c0.2,0.1,0.2,0.2,0.2,0.4c0,0,0,0,0,0
		c0,0.2,0.1,0.3-0.2,0.4c0,0.3,0,0.6,0,1c0.6,0.9,0.4,1.9,0.7,2.9c2.5,9,8.3,14.7,17.2,17.1c1.3,0.4,2.7,0.5,4.1,0.6
		c0.3,0,0.6-0.2,0.8,0.2c0.1,0,0.3,0,0.4,0C24.6,85.2,25.1,85.3,25.4,85.3z"/>
	<path class="st0" d="M1.7,55c0.3-3.2,0.6-6.4,1.2-9.6c1.4-7.6,3.6-14.9,7.3-21.8c2.2-4.1,4.8-7.8,8-11.2c3.1-3.3,6.7-5.8,10.3-8.4
		c1-0.7,1.9-1.4,2.9-2c0.3-0.2,0.7-0.5,0.9-0.3c0.3,0.3,0,0.7-0.2,1c-0.3,0.6-0.6,1.2-0.9,1.8c-2.7,4.8-5.5,9.7-7.8,14.7
		c-2.9,6.4-5.2,13-6.5,19.9c-0.1,0.7-0.1,1,0.1,1.2c0-0.3,0-0.4,0-0.6c0.6-3.6,1.6-7.1,2.8-10.6c2.3-6.8,5.3-13.2,8.8-19.4
		c1.3-2.3,2.5-4.5,3.8-6.8c0.3-0.5,0.8-1.2,0.4-1.6c-0.4-0.4-1,0.2-1.5,0.4c-2.3,1.3-4.3,3-6.5,4.5c-5.7,4-10.2,9-13.6,15
		C5.4,31.2,2.7,42,1.6,53.4c-0.1,0.8,0,1.6-0.4,2.4C1.8,55.7,1.7,55.3,1.7,55z"/>
	<path class="st0" d="M25.2,85.6c3.4-0.1,6.6-0.9,9.7-2.4c9.4-4.6,14.7-15.5,12.4-25.7c-1.2-5.2-3.7-9.5-7.7-12.9
		c-4.6-3.8-9.9-5.6-15.8-5.5c-2.3,0.1-4.4,0.5-6.6,1.2c0.2,0.2,0.6,0.1,1.2-0.1c2.9-0.9,5.8-1.1,8.8-0.7c6.3,0.7,11.5,3.6,15.5,8.5
		c3.8,4.8,5.4,10.3,4.9,16.4c-0.5,5.5-2.7,10.2-6.5,14.1c-4.2,4.3-9.5,6.5-15.5,6.9c-0.3,0-0.8-0.1-0.9,0.4
		C24.7,85.4,25,85.6,25.2,85.6z"/>
	<path class="st0" d="M83.8,1.2c0-0.1,0-0.1-0.1-0.2C83.7,1.1,83.7,1.1,83.8,1.2C83.7,1.2,83.7,1.2,83.8,1.2z"/>
	<path class="st0" d="M83.7,1.2C83.7,1.2,83.7,1.2,83.7,1.2C83.8,1.2,83.8,1.2,83.7,1.2C83.7,1.2,83.7,1.2,83.7,1.2z"/>
	<path class="st0" d="M1.3,61.1c0,0.5,0,1,0,1.5C1.4,62.1,1.4,61.6,1.3,61.1z"/>
	<path class="st0" d="M1.3,61.1c0.2,0.5,0.2,1,0,1.5C1.6,62.1,1.5,61.6,1.3,61.1z"/>
	<path class="st0" d="M99,61.3c0-0.2,0-0.4,0-0.6C98.8,60.9,98.8,61.1,99,61.3z"/>
	<path class="st0" d="M99,61.3c-0.1-0.2-0.1-0.4,0-0.6C98.7,60.9,98.7,61.1,99,61.3z"/>
	<path class="st0" d="M1.3,56.7c0,0.1,0,0.3,0,0.4c0,0,0.1,0,0.1,0C1.4,57,1.4,56.8,1.3,56.7z"/>
	<path class="st0" d="M1.4,57.1C1.4,57.1,1.4,57.1,1.4,57.1c0.1-0.2,0.1-0.3-0.1-0.4C1.4,56.8,1.4,57,1.4,57.1z"/>
	<path class="st0" d="M1.4,57.2C1.3,57.2,1.3,57.2,1.4,57.2c-0.1,0.1-0.1,0.2-0.1,0.3c0,0,0.1,0,0.1,0C1.4,57.4,1.4,57.3,1.4,57.2z"
		/>
	<path class="st0" d="M1.4,57.2c0,0.1,0,0.2,0,0.3c0,0,0,0,0.1,0C1.4,57.4,1.4,57.2,1.4,57.2C1.4,57.1,1.4,57.2,1.4,57.2z"/>
	<path class="st0" d="M1.4,57.2C1.4,57.2,1.4,57.2,1.4,57.2C1.4,57.1,1.4,57.1,1.4,57.2C1.3,57.1,1.3,57.1,1.4,57.2
		C1.3,57.2,1.3,57.2,1.4,57.2z"/>
	<path class="st0" d="M1.4,57.2C1.4,57.2,1.4,57.2,1.4,57.2C1.4,57.2,1.4,57.1,1.4,57.2C1.4,57.1,1.4,57.1,1.4,57.2
		C1.4,57.1,1.4,57.1,1.4,57.2z"/>
	<path class="st0" d="M1.4,57.6C1.3,57.6,1.3,57.5,1.4,57.6c-0.1,0.1-0.1,0.2-0.1,0.3c0,0,0.1,0,0.1,0C1.4,57.8,1.4,57.7,1.4,57.6z"
		/>
	<path class="st0" d="M1.4,57.6c0,0.1,0,0.2,0,0.3c0,0,0,0,0.1,0C1.4,57.7,1.4,57.6,1.4,57.6C1.4,57.5,1.4,57.5,1.4,57.6z"/>
	<path class="st0" d="M1.4,57.6C1.4,57.5,1.4,57.5,1.4,57.6C1.4,57.5,1.4,57.5,1.4,57.6C1.3,57.5,1.3,57.5,1.4,57.6
		C1.3,57.5,1.3,57.6,1.4,57.6z"/>
	<path class="st0" d="M1.4,57.5C1.4,57.5,1.4,57.5,1.4,57.5C1.4,57.5,1.4,57.5,1.4,57.5C1.4,57.5,1.4,57.5,1.4,57.5
		C1.4,57.5,1.4,57.5,1.4,57.5z"/>
	<path class="st0" d="M1.4,58.2c0-0.1,0-0.2,0-0.3c0,0-0.1,0-0.1-0.1C1.3,58,1.3,58.1,1.4,58.2C1.3,58.3,1.3,58.3,1.4,58.2
		C1.4,58.2,1.4,58.2,1.4,58.2z"/>
	<path class="st0" d="M1.4,57.9c0,0.1,0,0.2,0,0.3c0,0,0,0,0,0c0,0,0,0,0.1,0l0,0C1.4,58.1,1.4,58,1.4,57.9
		C1.4,57.9,1.4,57.9,1.4,57.9z"/>
	<path class="st0" d="M1.4,57.9C1.4,57.9,1.4,57.9,1.4,57.9C1.4,57.9,1.4,57.9,1.4,57.9C1.3,57.9,1.3,57.9,1.4,57.9
		C1.3,57.9,1.3,57.9,1.4,57.9z"/>
	<path class="st0" d="M1.4,57.9C1.4,57.9,1.4,57.9,1.4,57.9C1.4,57.9,1.4,57.9,1.4,57.9C1.4,57.9,1.4,57.9,1.4,57.9
		C1.4,57.9,1.4,57.9,1.4,57.9z"/>
	<path class="st0" d="M1.4,58.6c0-0.1,0-0.2,0-0.3c0,0-0.1,0-0.1-0.1C1.3,58.4,1.3,58.5,1.4,58.6C1.3,58.6,1.3,58.6,1.4,58.6
		C1.4,58.6,1.4,58.6,1.4,58.6z"/>
	<path class="st0" d="M1.4,58.3c0,0.1,0,0.2,0,0.3c0,0,0,0,0,0c0,0,0,0,0.1,0l0,0C1.4,58.5,1.4,58.4,1.4,58.3L1.4,58.3
		C1.4,58.3,1.4,58.3,1.4,58.3z"/>
	<path class="st0" d="M1.4,58.3C1.4,58.3,1.4,58.3,1.4,58.3C1.3,58.3,1.3,58.3,1.4,58.3C1.3,58.3,1.3,58.3,1.4,58.3z"/>
	<path class="st0" d="M1.4,58.3C1.4,58.3,1.4,58.3,1.4,58.3C1.4,58.3,1.4,58.3,1.4,58.3C1.4,58.3,1.4,58.3,1.4,58.3z"/>
	<path class="st0" d="M1.4,58.7C1.3,58.7,1.3,58.7,1.4,58.7c-0.1,0.1-0.1,0.2-0.1,0.3C1.4,58.9,1.4,58.8,1.4,58.7z"/>
	<path class="st0" d="M1.4,58.6C1.4,58.6,1.4,58.6,1.4,58.6C1.4,58.7,1.4,58.7,1.4,58.6c-0.1,0.2-0.1,0.3-0.2,0.4
		C1.4,58.9,1.4,58.8,1.4,58.6z"/>
	<path class="st0" d="M1.4,58.7C1.4,58.7,1.4,58.7,1.4,58.7C1.3,58.6,1.3,58.6,1.4,58.7C1.3,58.7,1.3,58.7,1.4,58.7z"/>
	<path class="st0" d="M1.4,58.7C1.4,58.7,1.4,58.7,1.4,58.7C1.4,58.6,1.4,58.6,1.4,58.7C1.4,58.7,1.4,58.7,1.4,58.7z"/>
	<path class="st0" d="M1.4,63.6c0-0.1,0-0.3-0.1-0.4C1.3,63.3,1.3,63.5,1.4,63.6C1.3,63.6,1.3,63.6,1.4,63.6
		C1.4,63.6,1.4,63.6,1.4,63.6z"/>
	<path class="st0" d="M1.4,63.6C1.4,63.6,1.4,63.6,1.4,63.6c0.1-0.2,0.1-0.3-0.1-0.4C1.4,63.3,1.3,63.5,1.4,63.6
		C1.4,63.6,1.4,63.6,1.4,63.6z"/>
	<path class="st0" d="M1.3,63.6c0,0.1,0,0.3,0,0.4C1.4,63.9,1.4,63.8,1.3,63.6C1.3,63.7,1.3,63.7,1.3,63.6z"/>
	<path class="st0" d="M1.4,63.6C1.4,63.6,1.4,63.6,1.4,63.6L1.4,63.6C1.4,63.6,1.4,63.7,1.4,63.6c-0.1,0.2-0.1,0.3-0.2,0.4
		C1.5,63.9,1.4,63.8,1.4,63.6z"/>
	<path class="st0" d="M1.4,63.7C1.4,63.6,1.4,63.6,1.4,63.7C1.3,63.6,1.3,63.6,1.4,63.7C1.3,63.7,1.3,63.7,1.4,63.7z"/>
	<path class="st0" d="M1.4,63.7C1.4,63.7,1.4,63.6,1.4,63.7L1.4,63.7C1.4,63.6,1.4,63.6,1.4,63.7C1.4,63.6,1.4,63.6,1.4,63.7z"/>
</g>
</svg>
