<?xml version="1.0" encoding="utf-8"?>
<!-- Generator: Adobe Illustrator 26.0.3, SVG Export Plug-In . SVG Version: 6.00 Build 0)  -->
<svg version="1.1" xmlns="http://www.w3.org/2000/svg" xmlns:xlink="http://www.w3.org/1999/xlink" x="0px" y="0px" width="269.3px"
	 height="271.1px" viewBox="0 0 269.3 271.1" style="enable-background:new 0 0 269.3 271.1;" xml:space="preserve">
<style type="text/css">
	.st0{fill:#111111;}
	.st1{fill:#FFFFFF;}
</style>
<g id="Layer_2">
</g>
<g id="Isolation_Mode">
	<path class="st0" d="M10,112.5c0.3,0.6,0.6,0.9,0.6,1.3c0,0.2-0.7,0.6-0.8,0.5c-0.3-0.2-0.6-0.6-0.8-1C9.1,113.3,9.6,113,10,112.5z
		"/>
	<g>
		<g>
			<path class="st1" d="M135.7,6.4C64.7,6.4,7,64.2,7,135.2s57.7,128.7,128.7,128.7s128.7-57.7,128.7-128.7S206.7,6.4,135.7,6.4z
				 M135.7,258.7c-68.1,0-123.6-55.4-123.6-123.6C12.1,67,67.6,11.6,135.7,11.6c68.1,0,123.6,55.4,123.6,123.6
				C259.3,203.3,203.8,258.7,135.7,258.7z"/>
		</g>
		<path class="st1" d="M116.1,121.3c-0.5-0.5-1.4-0.7-2.9-0.7h-0.5v7.8h2.3c1.2,0,1.8-1.3,1.8-3.8
			C116.9,122.9,116.6,121.8,116.1,121.3z M80.2,201.7l-8.1,5.4l3.1,2.9L80.2,201.7L80.2,201.7z M139.7,224.3L139.7,224.3l-2.1,9.6
			l4.2-0.1L139.7,224.3z M88.6,120.7h-0.8l-1.2,19.9h3.3L88.6,120.7z M199.7,211.7c-0.4-0.8-1.2-2-2.5-3.6c-1.2-1.5-2.1-2.5-2.7-3
			c-0.6-0.5-1.3-0.9-2-0.9c-0.7-0.1-1.3,0.1-1.8,0.5c-0.8,0.6-1.1,1.4-0.9,2.4c0.2,1,0.9,2.2,2.1,3.6l0.9,1.1c1.4,1.8,2.4,2.9,3,3.4
			c0.6,0.5,1.2,0.7,1.8,0.7c0.7,0,1.2-0.2,1.8-0.6c0.4-0.4,0.7-0.8,0.8-1.4C200.2,213.2,200,212.5,199.7,211.7z M80.2,201.7
			l-8.1,5.4l3.1,2.9L80.2,201.7L80.2,201.7z M88.6,120.7h-0.8l-1.2,19.9h3.3L88.6,120.7z M116.1,121.3c-0.5-0.5-1.4-0.7-2.9-0.7
			h-0.5v7.8h2.3c1.2,0,1.8-1.3,1.8-3.8C116.9,122.9,116.6,121.8,116.1,121.3z M140.4,120.7h-0.8l-1.2,19.9h3.3L140.4,120.7z
			 M139.7,224.3L139.7,224.3l-2.1,9.6l4.2-0.1L139.7,224.3z M199.7,211.7c-0.4-0.8-1.2-2-2.5-3.6c-1.2-1.5-2.1-2.5-2.7-3
			c-0.6-0.5-1.3-0.9-2-0.9c-0.7-0.1-1.3,0.1-1.8,0.5c-0.8,0.6-1.1,1.4-0.9,2.4c0.2,1,0.9,2.2,2.1,3.6l0.9,1.1c1.4,1.8,2.4,2.9,3,3.4
			c0.6,0.5,1.2,0.7,1.8,0.7c0.7,0,1.2-0.2,1.8-0.6c0.4-0.4,0.7-0.8,0.8-1.4C200.2,213.2,200,212.5,199.7,211.7z M199.7,211.7
			c-0.4-0.8-1.2-2-2.5-3.6c-1.2-1.5-2.1-2.5-2.7-3c-0.6-0.5-1.3-0.9-2-0.9c-0.7-0.1-1.3,0.1-1.8,0.5c-0.8,0.6-1.1,1.4-0.9,2.4
			c0.2,1,0.9,2.2,2.1,3.6l0.9,1.1c1.4,1.8,2.4,2.9,3,3.4c0.6,0.5,1.2,0.7,1.8,0.7c0.7,0,1.2-0.2,1.8-0.6c0.4-0.4,0.7-0.8,0.8-1.4
			C200.2,213.2,200,212.5,199.7,211.7z M139.7,224.3L139.7,224.3l-2.1,9.6l4.2-0.1L139.7,224.3z M80.2,201.7l-8.1,5.4l3.1,2.9
			L80.2,201.7L80.2,201.7z M116.1,121.3c-0.5-0.5-1.4-0.7-2.9-0.7h-0.5v7.8h2.3c1.2,0,1.8-1.3,1.8-3.8
			C116.9,122.9,116.6,121.8,116.1,121.3z M140.4,120.7h-0.8l-1.2,19.9h3.3L140.4,120.7z M88.6,120.7h-0.8l-1.2,19.9h3.3L88.6,120.7z
			 M199.7,211.7c-0.4-0.8-1.2-2-2.5-3.6c-1.2-1.5-2.1-2.5-2.7-3c-0.6-0.5-1.3-0.9-2-0.9c-0.7-0.1-1.3,0.1-1.8,0.5
			c-0.8,0.6-1.1,1.4-0.9,2.4c0.2,1,0.9,2.2,2.1,3.6l0.9,1.1c1.4,1.8,2.4,2.9,3,3.4c0.6,0.5,1.2,0.7,1.8,0.7c0.7,0,1.2-0.2,1.8-0.6
			c0.4-0.4,0.7-0.8,0.8-1.4C200.2,213.2,200,212.5,199.7,211.7z M139.7,224.3L139.7,224.3l-2.1,9.6l4.2-0.1L139.7,224.3z
			 M140.4,120.7h-0.8l-1.2,19.9h3.3L140.4,120.7z M116.1,121.3c-0.5-0.5-1.4-0.7-2.9-0.7h-0.5v7.8h2.3c1.2,0,1.8-1.3,1.8-3.8
			C116.9,122.9,116.6,121.8,116.1,121.3z M88.6,120.7h-0.8l-1.2,19.9h3.3L88.6,120.7z M80.2,201.7l-8.1,5.4l3.1,2.9L80.2,201.7
			L80.2,201.7z M88.6,120.7h-0.8l-1.2,19.9h3.3L88.6,120.7z M140.4,120.7h-0.8l-1.2,19.9h3.3L140.4,120.7z M116.1,121.3
			c-0.5-0.5-1.4-0.7-2.9-0.7h-0.5v7.8h2.3c1.2,0,1.8-1.3,1.8-3.8C116.9,122.9,116.6,121.8,116.1,121.3z M80.2,201.7l-8.1,5.4
			l3.1,2.9L80.2,201.7L80.2,201.7z M139.7,224.3L139.7,224.3l-2.1,9.6l4.2-0.1L139.7,224.3z M199.7,211.7c-0.4-0.8-1.2-2-2.5-3.6
			c-1.2-1.5-2.1-2.5-2.7-3c-0.6-0.5-1.3-0.9-2-0.9c-0.7-0.1-1.3,0.1-1.8,0.5c-0.8,0.6-1.1,1.4-0.9,2.4c0.2,1,0.9,2.2,2.1,3.6
			l0.9,1.1c1.4,1.8,2.4,2.9,3,3.4c0.6,0.5,1.2,0.7,1.8,0.7c0.7,0,1.2-0.2,1.8-0.6c0.4-0.4,0.7-0.8,0.8-1.4
			C200.2,213.2,200,212.5,199.7,211.7z M140.4,120.7h-0.8l-1.2,19.9h3.3L140.4,120.7z"/>
		<path class="st1" d="M142,33.3c-2-0.1-3.2,3.1-3.6,8.5c-0.4,5.8,0.5,8.8,2.5,8.9c2.1,0.1,3.1-3.6,3.4-8.7
			C144.6,37.5,144.2,33.4,142,33.3z M142,33.3c-2-0.1-3.2,3.1-3.6,8.5c-0.4,5.8,0.5,8.8,2.5,8.9c2.1,0.1,3.1-3.6,3.4-8.7
			C144.6,37.5,144.2,33.4,142,33.3z M142,33.3c-2-0.1-3.2,3.1-3.6,8.5c-0.4,5.8,0.5,8.8,2.5,8.9c2.1,0.1,3.1-3.6,3.4-8.7
			C144.6,37.5,144.2,33.4,142,33.3z M142,33.3c-2-0.1-3.2,3.1-3.6,8.5c-0.4,5.8,0.5,8.8,2.5,8.9c2.1,0.1,3.1-3.6,3.4-8.7
			C144.6,37.5,144.2,33.4,142,33.3z M135.7,18.5c-64.4,0-116.6,52.2-116.6,116.6c0,64.4,52.2,116.6,116.6,116.6
			c64.4,0,116.6-52.2,116.6-116.6C252.3,70.8,200.1,18.5,135.7,18.5z M204.2,55.1c2,1.8,3.5,3.8,3.7,6c0.2,2.1-0.6,3.6-2.1,5.2
			c-1.8,2-4.5,2.9-7.2,2l0,0c0.8,1.7,0.4,3.4-1.1,5.8c-1.5,2.4-3.1,5.2-3.4,6.2l-3.8-3.5c0.2-0.7,1.5-3,3.1-5.3
			c1.8-2.6,1.8-3.8,0.6-4.9l-0.6-0.5l-6.8,7.5l-3.6-3.3l16.9-18.4C201.3,52.6,202.8,53.8,204.2,55.1z M165.9,101l-5.3-2.9l-5.3,2.9
			l1.1-6l-4.4-4.2l6-0.8l2.6-5.5l2.6,5.5l6,0.8l-4.4,4.2L165.9,101z M155.3,165.1l5.3,2.9l5.3-2.9l-1.1,6l4.4,4.2l-6,0.8l-2.6,5.5
			L158,176l-6-0.8l4.4-4.2L155.3,165.1z M168.8,154.5l-4.6-20.8v20.8h-9v-41.6h9.4l4.2,19.9v-19.9h8.9v41.6H168.8z M135.7,68.7
			c-25.2,0-47.1,14-58.3,34.6h-4.3c11.6-22.8,35.3-38.5,62.6-38.5c27.3,0,51,15.7,62.6,38.5H194C182.8,82.7,160.9,68.7,135.7,68.7z
			 M115.9,101l-5.3-2.9l-5.3,2.9l1.1-6l-4.4-4.2l6-0.8l2.6-5.5l2.6,5.5l6,0.8l-4.4,4.2L115.9,101z M105.2,165.1l5.3,2.9l5.3-2.9
			l-1.1,6l4.4,4.2l-6,0.8l-2.6,5.5L108,176l-6-0.8l4.4-4.2L105.2,165.1z M116.2,154.5v-16.2c0-0.7-0.1-1.2-0.2-1.5
			c-0.1-0.4-0.4-0.7-0.7-0.8c-0.4-0.2-0.7-0.3-1-0.3c-0.3,0-0.8,0-1.5,0v18.9h-9.3v-41.6h14.1c1.4,0,2.7,0.2,3.7,0.6
			c1,0.4,1.8,0.9,2.4,1.5c0.6,0.6,1.1,1.5,1.4,2.5c0.3,1.1,0.6,2.1,0.7,3.2c0.1,1.1,0.2,2.3,0.2,3.8c0,0.8,0,1.4,0,1.9
			c0,0.5-0.1,1.1-0.3,1.9c-0.2,0.8-0.4,1.4-0.7,1.9c-0.3,0.5-0.7,1-1.3,1.5c-0.6,0.5-1.3,0.9-2.2,1.1c0.9,0.1,1.6,0.4,2.1,0.9
			c0.6,0.4,1,0.9,1.2,1.6c0.2,0.6,0.4,1.2,0.5,1.7c0.1,0.5,0.1,1.1,0.1,1.8c0,6.9,0,12.1-0.1,15.7H116.2z M143.1,102.1l-7.5-4.1
			l-7.5,4.1l1.5-8.4l-6.2-5.9l8.5-1.1l3.7-7.7l3.7,7.7l8.5,1.1l-6.2,5.9L143.1,102.1z M129.6,172.3l-1.5-8.4l7.5,4.1l7.5-4.1
			l-1.6,8.4l6.2,5.9l-8.5,1.1l-3.7,7.7l-3.7-7.7l-8.5-1.1L129.6,172.3z M143,154.5l-0.7-6.3h-4.6l-0.6,6.3h-8.9l4.7-41.6h14.4
			l4.6,41.6H143z M100,154.5h-8.9l-0.7-6.3h-4.6l-0.6,6.3h-8.9l4.7-41.6h14.4L100,154.5z M135.7,201.6c26.8,0,49.9-15.9,60.4-38.8
			h4.2c-10.8,25-35.6,42.6-64.6,42.6s-53.8-17.6-64.6-42.6h4.2C85.8,185.7,108.9,201.6,135.7,201.6z M195.7,120.9v33.6h-9.2v-33.6
			h-5.4v-8h20.1v8H195.7z M194,47l-2.2,3.7l-5.2-3.1l-3,5l4.9,3l-2.1,3.5l-4.9-3l-3.6,5.9l5.6,3.4l-2.2,3.7l-9.8-5.9l13.1-21.7
			L194,47z M163.9,33l-0.9,9.4c-0.3,3.3-0.6,6.1-1,9l0.1,0c1.2-2.6,2.6-5.1,4.3-7.9l4.7-8.1l5,1.6l-6.4,24.6l-4.2-1.4l2.3-8.6
			c0.6-2.4,1.5-5.5,2.4-8.1l-0.1,0c-1.3,2.4-2.9,5.2-3.9,6.9l-4.9,7.9l-3.3-1.1l0.8-9.1c0.2-2.1,0.5-5.3,1-8l-0.1,0
			c-0.9,2.6-2.1,5.6-3,8l-3.1,8.2l-4-1.3l9.6-23.6L163.9,33z M133.3,41.4c0.4-6.9,3.6-12.7,9.2-12.4c6.1,0.4,7.4,7.2,7,13
			c-0.6,9.5-4.2,13.2-9,12.9C134.7,54.6,132.8,48.3,133.3,41.4z M129.5,29l0.6,4.5l-4.5,0.6l2.6,20.6l-4.9,0.6l-2.6-20.6l-4.4,0.6
			l-0.6-4.5L129.5,29z M106.4,33.1c1.6-0.5,3.2-0.5,4.1-0.3L111,37c-0.8-0.2-2-0.3-3.3,0.1c-2,0.6-2.6,2.2-2.2,3.4
			c0.5,1.5,1.4,2,4.5,2.7c3.8,0.9,5.8,3,6.6,5.5c1.4,4.4-0.9,8.4-5.7,9.9c-1.9,0.6-4,0.7-4.9,0.5l-0.6-4.3c1.2,0.3,2.9,0.1,4.3-0.3
			c2.2-0.7,3-2.2,2.5-3.8c-0.5-1.7-1.9-2.3-4.4-2.9c-3.9-1-6-3.1-6.7-5.3C99.8,38.7,101.4,34.7,106.4,33.1z M83.7,43.2l8,14.4
			c1.8,3.2,3.3,3.7,4.5,3.1c1.2-0.7,1.6-2.1-0.2-5.4l-8-14.4l4.3-2.4l7.6,13.6c3.2,5.7,2.7,10-1.6,12.4c-4.6,2.6-8.2,0.4-11.3-5.2
			l-7.6-13.7L83.7,43.2z M71.6,51.2c1.3-1.1,2.5-1.6,3-1.7l2.1,3.7c-0.6,0.2-1.2,0.4-2.1,1.1c-2.1,1.8-2.5,5.3,1.6,10.1
			c3.9,4.6,7.2,4.9,9.5,3c0.6-0.5,1.2-1.3,1.6-1.8l3.1,2.8c-0.3,0.7-1.2,1.8-2.5,2.9c-4.9,4.2-10.7,2.2-15.4-3.3
			C66.2,60.7,67.8,54.4,71.6,51.2z M37.5,122.1c-0.1-0.4-0.3-0.7-0.6-0.9c-0.2-0.2-0.5-0.3-0.7-0.4s-0.4-0.1-0.7-0.1
			c-0.5,0-0.9,0.1-1.3,0.2c-0.3,0.1-0.6,0.3-0.8,0.5c-0.2,0.2-0.3,0.6-0.4,1.1c-0.1,0.5-0.1,1.1-0.2,1.6c0,0.5,0,1.2,0,2.3v16.1
			c0,0.6,0,1.1,0.1,1.5c0,0.4,0.1,0.9,0.3,1.4c0.2,0.5,0.4,0.9,0.8,1.1c0.4,0.2,0.8,0.4,1.4,0.4c0.9,0,1.5-0.4,1.8-1.1
			c0.3-0.7,0.5-1.9,0.5-3.5v-4.8h-2.5v-7.2h11.1v24.2h-3.6l-1.6-3.5c-1.6,2.7-4.2,4-7.6,4c-6.6,0-9.9-4.3-9.9-12.9v-18
			c0-2,0.3-3.7,0.8-5.2c0.5-1.5,1.2-2.6,1.9-3.4c0.8-0.8,1.7-1.4,2.8-1.9c1.1-0.5,2.1-0.8,3-0.9c0.9-0.1,1.9-0.2,2.9-0.2
			c1.3,0,2.4,0.1,3.5,0.3c1.1,0.2,2,0.5,2.7,0.9c0.8,0.4,1.4,0.8,2,1.3c0.6,0.5,1,1.1,1.4,1.8c0.4,0.7,0.7,1.4,0.9,2.1
			c0.2,0.7,0.4,1.5,0.5,2.5c0.1,1,0.2,1.9,0.2,2.7c0,0.8,0.1,1.8,0.1,2.9h-8.8v-3.3C37.7,123,37.6,122.5,37.5,122.1z M50.8,143.5
			v-30.6h8.9v29.9c0,0.5,0,0.8,0,1.1c0,0.3,0.1,0.6,0.1,1.1c0.1,0.5,0.2,0.8,0.3,1.1c0.1,0.3,0.4,0.5,0.7,0.7
			c0.3,0.2,0.7,0.3,1.1,0.3c0.4,0,0.7-0.1,0.9-0.2c0.3-0.1,0.5-0.3,0.6-0.6c0.2-0.2,0.3-0.5,0.4-0.7c0.1-0.2,0.2-0.5,0.2-0.9
			c0-0.4,0.1-0.7,0.1-0.9s0-0.5,0-0.9v-29.9h8.9v30.6c0,3.8-0.9,6.6-2.7,8.6c-1.8,1.9-4.6,2.9-8.4,2.9c-3.9,0-6.7-0.9-8.5-2.9
			C51.7,150.1,50.8,147.2,50.8,143.5z M59.9,202.1c-1.7-0.2-3.2-1.2-4.3-2.7c-0.9-1.3-1.4-2.9-1.4-4.8l4.2-3.1
			c-0.4,2.1-0.2,3.8,0.7,4.9c0.4,0.5,0.9,0.9,1.4,1c0.6,0.1,1,0,1.5-0.3c0.6-0.5,1-1.4,1.1-2.9c0.2-2.3,0.4-4,0.7-4.9
			c0.3-0.9,0.6-1.7,1.1-2.4c0.4-0.7,1-1.2,1.6-1.7c1.4-1,2.8-1.3,4.4-1.1c1.6,0.3,2.9,1.2,4,2.6c0.8,1.1,1.3,2.4,1.5,4l-4.4,3.2
			c0.4-1.9,0.3-3.3-0.4-4.2c-0.3-0.4-0.7-0.7-1.2-0.8c-0.5-0.1-0.9-0.1-1.3,0.2c-0.6,0.4-0.9,1.5-1,3.1c-0.1,1.7-0.2,2.9-0.3,3.8
			c-0.2,0.8-0.5,1.6-0.9,2.4s-1.1,1.4-1.9,2C63.2,201.9,61.6,202.3,59.9,202.1z M71.3,216l1.8-3l-4.2-3.9l-2.9,1.9l-3.4-3.2
			l19.5-11.6l3.5,3.3l-10.9,19.6L71.3,216z M80.2,222.8l9.7-14.6l-3.6-2.4l2.4-3.6l11.1,7.4l-2.3,3.5l-3.5-2.4l-9.7,14.6L80.2,222.8
			z M92.4,230.1l9.4-19.7l4.3,2l-9.4,19.7L92.4,230.1z M112.5,223.6c0.9,1.4,1.6,2.5,1.9,3.2s0.6,1.6,0.6,2.5c0.1,0.9,0,1.8-0.3,2.7
			c-0.6,1.8-1.7,3.1-3.2,3.9c-1.6,0.8-3.2,0.9-5.1,0.3c-1.5-0.5-2.8-1.5-3.9-3l1.6-4.9c0.9,1.9,2,3.1,3.4,3.6c0.6,0.2,1.2,0.2,1.7,0
			s0.9-0.6,1-1.1c0.2-0.8,0-1.7-0.8-3c-1.2-2-2-3.5-2.3-4.3c-0.3-0.9-0.5-1.7-0.5-2.5s0.1-1.6,0.3-2.3c0.5-1.6,1.5-2.7,2.9-3.4
			c1.4-0.7,3.1-0.8,4.8-0.2c1.3,0.4,2.5,1.2,3.6,2.4l-1.7,5.2c-0.8-1.8-1.7-2.8-2.8-3.2c-0.5-0.1-1-0.1-1.5,0.1
			c-0.5,0.2-0.8,0.5-0.9,0.9C111.3,221.1,111.6,222.2,112.5,223.6z M129.5,227.5l-0.6,4l-4.7-0.7l-1.4,8.9l-4.6-0.7l3.3-21.6
			l10.1,1.5l-0.6,4.2l-5.5-0.8l-0.7,4.4L129.5,227.5z M143.3,240.8l-0.8-3.4l-5.8,0.1l-0.7,3.4l-4.6,0.1l5.9-21.9l4.8-0.1l5.8,21.7
			L143.3,240.8z M160.8,238.8c-2.6,0.5-4.9,0-7-1.6c-2.1-1.6-3.5-4.1-4.2-7.7c-0.7-3.7-0.4-6.7,0.9-8.9c1.4-2.2,3.2-3.6,5.4-4
			c1.4-0.3,2.9-0.2,4.6,0.2l0.9,4.5c-1.3-0.4-2.2-0.6-2.6-0.6c-0.4,0-0.8,0-1.2,0.1c-1.2,0.2-2.2,0.9-2.9,2.1
			c-0.7,1.2-0.8,3-0.4,5.5c0.5,2.6,1.3,4.3,2.4,5.1c1.1,0.8,2.3,1.1,3.6,0.8c1.1-0.2,2.2-0.9,3.2-1.9l1,4.9
			C163.5,238,162.2,238.5,160.8,238.8z M172.9,234.7l-6.4-16.4l-4,1.6l-1.5-4l12.4-4.8l1.5,3.9l-4,1.5l6.4,16.4L172.9,234.7z
			 M185.9,228.9l-10.7-19l4.1-2.3l10.7,19L185.9,228.9z M201.9,218.8c-1.8,1.5-3.9,2-6,1.5c-2.2-0.5-4.6-2.3-7.2-5.6
			c-1.9-2.4-3.1-4.4-3.4-5.9c-0.4-1.5-0.4-3,0-4.3c0.4-1.3,1.2-2.5,2.5-3.5c1.1-0.9,2.1-1.4,3-1.6c1-0.2,2-0.1,3.1,0.1
			s2.2,0.8,3.3,1.5c1.1,0.8,2.3,2,3.6,3.7c2.7,3.4,4.1,6.2,4,8.5C204.7,215.6,203.7,217.4,201.9,218.8z M218.9,200.8l-14.2-4.3
			l0,0.1l10.7,8.7l-2.9,3.6l-17-13.7l3.2-4l14,4.3l0.1-0.1l-10.5-8.5l2.8-3.5l17,13.7L218.9,200.8z M223.5,154.5h-19v-41.6h18.4v8.1
			h-9v8.1h8.7v7.8h-8.7v9.5h9.6V154.5z M227.6,154.5v-41.6h18.4v8.1h-9v8.1h8.7v7.8h-8.7v9.5h9.6v8.1H227.6z M201.9,63.2
			c1.5-1.6,1.9-3.3,0.3-4.8c-0.3-0.3-0.7-0.6-1-0.7l-5.1,5.6l0.7,0.6C198.3,65.3,200.4,64.9,201.9,63.2z M140.9,50.7
			c2.1,0.1,3.1-3.6,3.4-8.7c0.3-4.5-0.1-8.5-2.4-8.6c-2-0.1-3.2,3.1-3.6,8.5C138,47.5,138.9,50.5,140.9,50.7z M142,33.3
			c-2-0.1-3.2,3.1-3.6,8.5c-0.4,5.8,0.5,8.8,2.5,8.9c2.1,0.1,3.1-3.6,3.4-8.7C144.6,37.5,144.2,33.4,142,33.3z M142,33.3
			c-2-0.1-3.2,3.1-3.6,8.5c-0.4,5.8,0.5,8.8,2.5,8.9c2.1,0.1,3.1-3.6,3.4-8.7C144.6,37.5,144.2,33.4,142,33.3z"/>
		<path class="st0" d="M138.3,211.1c0.7-0.5,1.4-1,2.4-1.8c-1.3-0.5-1.8-0.7-2.4-0.9c0.1-0.2,0.1-0.4,0.2-0.5c1.2-0.6,2.3-1,3.2,0.4
			c1.1,1.6,2.4-0.4,3,1.2c1.6,4.3-0.7,6-2.4,8.2c-0.7,0.9-1.8,1-2.7,0c-1.5-1.6-3.8-2.4-3.8-5.1c0-0.6-0.8-1.1-1.3-1.7
			C135.8,209.1,137,210.8,138.3,211.1z M141.5,210.4c-0.4,0.9-0.5,1.9,0.7,3.3C142.2,209.8,142.4,210.4,141.5,210.4z"/>
		<path class="st0" d="M195.8,239.7c0.8,1.2,1.6,2.4,2.3,3.5c1-0.2,1.7-0.3,2.7-0.5c-0.4,1.1-0.7,2-0.9,2.8c1.1,1.3,2.2,2.5,3.4,3.9
			c-0.8,0.9-1.7,1.5-2.8,0.5c-4.8-4-4.1-3.1-8.8-3.7c0.5-0.9,1-1.6,1.6-2.6C189.1,242.6,188.7,243,195.8,239.7z"/>
		<path class="st0" d="M123.9,172.2c-1.2,1.8-2.3,2.2-3.1,0.8c-1.6-2.8-4.9,0.7-1.7-2.9c-1.3-1.2-2.7-2.4-4-3.7c2.3-1.9,3,1.1,5.1,3
			C121.3,170.4,122.6,171.2,123.9,172.2z"/>
		<path class="st0" d="M148.1,184.7c-2.6-0.8-4.9-1.2-4.8-2.7c0.1-1,3.1-2,4.6-2.7C149.2,180.6,149.3,182,148.1,184.7z"/>
		<path class="st0" d="M160.3,225c1.2,0.8,2.2,1.5,3.8,2.5c-10.9,1.3-8.4,1.4-10.1-0.3C158.5,224.6,157.5,228.5,160.3,225z"/>
		<path class="st0" d="M175.1,204c1.9,5.6,0.6,4.3,5.6,6.4c0,0.3-0.1,0.6-0.1,0.8c-2.4,0.4-0.8,0.8-6.1-1
			C175.7,208.5,173.9,206.5,175.1,204z"/>
		<path class="st0" d="M115.9,69.8c-0.4-0.7-0.7-1.3-1-1.8c0.9-2.1,2.7-1.2,4-1.4c0.8-0.1,1.7,0.6,2.6,1
			C121.4,68.5,122.2,68.1,115.9,69.8z"/>
		<path class="st0" d="M148.1,211.7c-0.8-1.4-1.4-2.6-2.1-3.8c3.8-0.9,3.8-0.9,5.2,0C150.3,208.9,149.4,210,148.1,211.7z"/>
		<path class="st0" d="M166.8,235.9c4.6-2.6,5.2-3.4,6.6-1.5C170.9,235.7,166.1,238.6,166.8,235.9z"/>
		<path class="st0" d="M204.7,25.3c0.8,1.3,0.9,2.4-0.6,3.4c-1-0.1-1.3-1.9-2.7-1.3c0,0-0.7-0.9-0.6-1.2
			C201.8,24,205.2,25.9,204.7,25.3z"/>
		<path class="st0" d="M49.4,176.9c0.8,1.1,1.4,2,2,3c-0.7,0.6-1.4,1.1-2.1,1.6C47.6,179.3,47.6,179.3,49.4,176.9z"/>
		<path class="st0" d="M84.2,52.2c-1.7-2.5-1.8-2.6-0.3-4.8C85.8,48.7,86,50.1,84.2,52.2z"/>
		<path class="st0" d="M183,239.9c0,1.3,0,2.5,0,4C179.4,246.5,180.3,239.8,183,239.9z"/>
		<path class="st0" d="M192.7,234.7c-1.6-0.2-2.9-0.4-2.9-2.2c0-1.1,1.1-1.5,3.3-1.3C192.9,232.4,192.8,233.5,192.7,234.7z"/>
		<path class="st0" d="M61.9,183.2c-2.2,0.8-2.7-0.6-3.5-1.8c1.1-0.7,2-1.3,3.2-2.1C61.7,180.8,61.8,181.9,61.9,183.2z"/>
		<path class="st0" d="M194.3,237.4c2.5-1.4,4.3-2.9,5.1-0.1C195.1,239.7,194.7,236.9,194.3,237.4z"/>
		<path class="st0" d="M172.2,219.3c1,0.6,1.8,1,2.5,1.5c-1.2,2.2-1.2,2.2-3.7,1.5C171.3,221.4,171.6,220.7,172.2,219.3z"/>
		<path class="st0" d="M172.1,257.9c1.5,1.7,2.1,2.8,1.5,4.6c-0.9-0.2-1.7-0.4-2.9-0.7C171.1,260.5,171.5,259.5,172.1,257.9z"/>
		<path class="st0" d="M130.9,195.3c0.7-0.1,1.3-0.1,2-0.2c0.4,1.4,0.7,2.6,1.1,3.8C132.3,198.7,131.8,198.1,130.9,195.3z"/>
		<path class="st0" d="M107,203.3c1.5-0.6,2.8-1.2,4.2-1.9C110.2,205.3,109.5,205.5,107,203.3z"/>
		<path class="st0" d="M193,18.5c2.7,0.7,1.3,2.7,2,3.9c0.2,0.3-0.5,1.2-0.7,1.9C193.5,23.9,193.7,24.8,193,18.5z"/>
		<path class="st0" d="M191.6,88.8c-0.7-1.2-1.4-1.8-1.4-2.4c0.2-1.9,2.9-2.6,2.6,0.3C192.7,87.2,192.2,87.7,191.6,88.8z"/>
		<path class="st0" d="M149.5,246c-0.8,1.8-2.7,1.8-2.3,3.7c0.1,0.6-1.2,1.1-2.4,0.5C146.1,248.7,146.5,246.4,149.5,246z"/>
		<path class="st0" d="M205.1,38.6c-0.7,0.9-1.4,1.7-2.2,2.7c-0.8-0.8-1.6-1.4-0.7-2.3C202.8,38.2,203.7,37.2,205.1,38.6z"/>
		<path class="st0" d="M91.2,206.7c0-1.8-0.1-3.3,2-3.5C93.5,205.7,93.5,205.7,91.2,206.7z"/>
		<path class="st0" d="M197.2,45.2c1.8,0.3,3,0.4,4.2,0.6C202.4,48.5,197.8,48,197.2,45.2z"/>
		<path class="st0" d="M253.4,188.8c-0.4,2.6-0.4,2.6-2.7,3C250.7,190.1,251.6,189.3,253.4,188.8z"/>
		<path class="st0" d="M195.2,29.3c-1.2,0.1-2.2,0.2-3.5,0.4c0.2-0.7,0.4-1.2,0.5-1.7c1.7,0.9,1.9-0.4,2-1.9
			C194.9,26.5,194.7,25.9,195.2,29.3z"/>
		<path class="st0" d="M215.7,231.2c-1.7,1.2-0.6,3.6-3.1,3.6C212.5,232.2,212.6,232,215.7,231.2z"/>
		<path class="st0" d="M51.9,172.2c1.6-0.3,3-0.5,4.4-0.8C54.6,174.1,53.4,174.4,51.9,172.2z"/>
		<path class="st0" d="M70.6,243.9c1.5-1.2,2.6-1.6,3.9-0.1c-0.5,0.6-1,1.1-1.6,1.7C72.1,245,71.5,244.5,70.6,243.9z"/>
		<path class="st0" d="M190.1,220.8c-1.2,1.8-1.2,1.8-3.9,0.8C187,219.1,188.8,220.9,190.1,220.8L190.1,220.8z"/>
		<path class="st0" d="M192,239.3c0.2-2.2,1.1-3.5,2.5-4.5C194.3,238,194.9,236.8,192,239.3z"/>
		<path class="st0" d="M117.6,103.5c-1.2-0.8-2.6-1-1.9-2.5c0.2-0.4,1.2-0.7,1.6-0.5C119.1,101.1,118.1,102.2,117.6,103.5z"/>
		<path class="st0" d="M186,215.4c-0.6,0.7-1.2,1.5-1.8,2.3C182.8,215.6,182.8,215.6,186,215.4z"/>
		<path class="st0" d="M196.9,36.6c-0.8,0.6-1.3,1.2-1.6,1.1c-0.5-0.1-1.2-0.6-1.4-1.1c-0.1-0.3,0.7-1.3,0.8-1.2
			C195.4,35.5,196,36,196.9,36.6z"/>
		<path class="st0" d="M211,242c-0.2-1.7-1.1-1-2.5-0.5c2.3-4,2-3.7,3.2,0.2C211.5,241.8,211.2,241.9,211,242z"/>
		<path class="st0" d="M161.7,206.9c0.6-0.8,1-1.4,1.7-2.3c0.5,1,0.9,1.8,1.3,2.6C164.1,207.9,164.6,207.9,161.7,206.9z"/>
		<path class="st0" d="M165.1,218.2c0.8-0.4,1.6-0.7,2.6-1.2c0.1,0.7,0.3,1.3,0.3,1.7C166.5,219.1,163.1,220.2,165.1,218.2z"/>
		<path class="st0" d="M81.8,169.8c-1.4-0.4-2.1-0.6-2.7-0.8c0-0.4-0.1-0.8,0-0.8C81.5,167.3,80.8,167.5,81.8,169.8z"/>
		<path class="st0" d="M115.2,198.7c0.6,1.2,1.1,2.1-0.1,2.8C114.5,201.9,112.5,200.5,115.2,198.7z"/>
		<path class="st0" d="M169.7,251.1c1.1-0.9,2.2-2,4-0.9C172.2,251.2,172.2,251.2,169.7,251.1z"/>
		<path class="st0" d="M181.2,18.7c-0.1,1.9-0.5,2.7-1.7,2.3c-0.3-0.1-0.7-1.3-0.6-1.4C179.5,19.3,180.2,19.1,181.2,18.7z"/>
		<path class="st0" d="M201,242c-1.4-1.3-0.6-2.3,0.2-3.6C202,240.2,202,240.2,201,242z"/>
		<path class="st0" d="M89.6,165.6c-0.3-1-0.5-1.5-0.8-2.4c1.2,0.2,2,0.3,3.3,0.6C91.2,164.5,90.6,164.9,89.6,165.6z"/>
		<path class="st0" d="M190.8,177.5c0.9-0.2,1.7-0.3,2.7-0.5C192.3,179.4,192.2,179.4,190.8,177.5z"/>
		<path class="st0" d="M184.1,26.5c-0.9,0.3-1.5,0.5-2,0.7c0.1-1.1,0.1-2.1,0.2-3.5C182.9,24.7,183.3,25.4,184.1,26.5z"/>
		<path class="st0" d="M68.1,172.8c0.3-0.8,0.6-1.5,1.1-2.6c0.7,0.9,1.1,1.4,1.6,2C68.3,173.4,68.7,173.4,68.1,172.8z"/>
		<path class="st0" d="M204.1,42.2c3.6-0.2,3.6-0.2,2.9,2.1C206.2,43.7,205.4,43.1,204.1,42.2z"/>
		<path class="st0" d="M249.1,194.9c-1-1-1.2-0.4,0.5-2.4C250.8,193.4,250.8,192.9,249.1,194.9z"/>
		<path class="st0" d="M136.8,9.7c-1.3,0.5-2.1,0.9-3.5,1.4c0.7-1.2,0.1-2.5,1.5-2.6C135.3,8.6,135.9,9.2,136.8,9.7z"/>
		<path class="st0" d="M55.7,183.4c-2.6,1.2-2.6,1.2-2.7-1C53.9,182.5,54.9,182,55.7,183.4z"/>
		<path class="st0" d="M25.6,155.3c1,2.4,0.9,1.7-0.4,2.6C24.2,156.1,24.3,156.7,25.6,155.3z"/>
		<path class="st0" d="M86,195c-2.6-0.6-2.6-0.6-1.6-2.9C85.3,193.6,84.9,192.8,86,195z"/>
		<path class="st0" d="M180.2,15c1.1,2.6,1.6,1.9-0.9,3.2C178.8,17.6,178.7,18.1,180.2,15z"/>
		<path class="st0" d="M143.9,180.3c-1-0.2-1.7-0.4-2.7-0.6c0.5-0.6,0.6-1.2,1-1.3C143.7,177.9,143.6,179,143.9,180.3z"/>
		<path class="st0" d="M206.6,219.9c-0.8,1.8-1.6,1.9-2.4,1.2c-0.2-0.1,0-1,0-1C204.8,219.9,205.5,219.9,206.6,219.9z"/>
		<path class="st0" d="M72.8,106.6c-0.4-0.8-0.8-1.3-0.8-1.7c0-0.3,0.7-0.9,0.9-0.9C75,104.8,73.5,105.7,72.8,106.6z"/>
		<path class="st0" d="M136.5,233.5c-1.2,2.6-2,0.9-2.9,0.2C134.4,233.6,135.3,233.6,136.5,233.5z"/>
		<path class="st0" d="M118.1,228.8c-1.3-0.2-0.8,0.3-2-1.6c0.8-0.2,1.4-0.4,2.3-0.6C118.3,227.5,118.2,228.1,118.1,228.8z"/>
		<path class="st0" d="M205.5,218.1c-1.3,1.2-2.1,0.7-2.7-0.7C203.6,217.6,204.5,217.9,205.5,218.1z"/>
		<path class="st0" d="M180,220.3c-1.2,0.2-2.6,1.5-3.6-1.1C177.9,219.7,179,220,180,220.3z"/>
		<path class="st0" d="M56.4,57.7c0.1,1.3,1,2.3-0.6,2.9C54.8,59.5,55,58.7,56.4,57.7z"/>
		<path class="st0" d="M135.6,66.4c-1.8-1.5-1.4-2.2,0.4-3.3C135.8,64.5,135.7,65.2,135.6,66.4z"/>
		<path class="st0" d="M155.5,180.8c1.2-1.5,2-1.1,2.8-0.5C158.2,181.3,158.7,181.1,155.5,180.8z"/>
		<path class="st0" d="M39.7,185.1c-1.4,1.6-0.9,1.3-2,0.6C38.8,184.2,38.3,184.5,39.7,185.1z"/>
		<path class="st0" d="M200.5,42.5c1.1,0.4,1.8,0.7,2.9,1C201.7,44.6,201.2,44,200.5,42.5z"/>
		<path class="st0" d="M138.9,187.8c1.1-1.7,0.7-1.4,1.8-0.8C139.3,188.6,139.7,188.5,138.9,187.8z"/>
		<path class="st0" d="M156.1,17.9c0.2-0.8,0.3-1.7,0.5-2.5C158.1,16,158.1,16,156.1,17.9z"/>
		<path class="st0" d="M190.1,220.8c-0.1-0.6-0.6-1.4-0.4-1.7c0.6-0.8,1.4-0.5,2.1,0.6C189.8,220.9,190,220.8,190.1,220.8z"/>
		<path class="st0" d="M95.1,132.9c0.9-0.3,1.5-0.5,2.4-0.8C97,133.9,97,133.9,95.1,132.9z"/>
		<path class="st0" d="M80,195.6c1.5-0.9,2.2-0.6,2.7,1.2C81.6,196.3,80.9,196.1,80,195.6z"/>
		<path class="st0" d="M46.1,131.6c0.8-2.3,2.5-1.1,2.2-0.4C47.9,132.1,47.2,132.1,46.1,131.6z"/>
		<path class="st0" d="M125.8,75.3c-2.4,0.8-1.9,0.9-2.3-0.1C125.7,74.2,125.2,74.1,125.8,75.3z"/>
		<path class="st0" d="M101.6,107.6c0.2-0.9,0.2-1.9,2.3-1.9C101.9,108.4,102.4,108.2,101.6,107.6z"/>
		<path class="st0" d="M135.7,103.4c-1.3,0.6-2.1,0.7-2.4-0.4c-0.1-0.2,0.3-0.6,0.5-0.9C134.3,102.4,134.9,102.8,135.7,103.4z"/>
		<path class="st0" d="M113.8,19.3c1.3-0.6,1.8-0.2,2.1,1C114.8,21,114.3,20.6,113.8,19.3z"/>
		<path class="st0" d="M113.8,104.1c0.4,2.1-0.1,2.5-1.8,2.5C112.7,105.8,113.1,105.2,113.8,104.1z"/>
		<path class="st0" d="M50.4,164.1c-1.2,1.1-0.7,1-1.9,0.3C49.6,163.1,49.2,163.3,50.4,164.1z"/>
		<path class="st0" d="M240,185.3c-1.2-0.8-1.1-1.5,0-2.4C241,183.7,240.9,184.5,240,185.3z"/>
		<path class="st0" d="M125.8,193.8c-1.5-0.9-1.5-0.9-1.2-2.4C125.5,192.1,126.6,192.4,125.8,193.8L125.8,193.8z"/>
		<path class="st0" d="M126.6,202c-1-0.7-1.6-1.2-2.5-1.8C125.8,199.8,126.4,200.2,126.6,202z"/>
		<path class="st0" d="M184,205.1c-0.4-1.9-0.6-2.9,1.6-2.7C185.1,203.3,184.7,203.9,184,205.1z"/>
		<path class="st0" d="M44,211.4c-2.1,0.8-1.4,0.8-2.3-0.2C43.3,210.3,42.7,210.4,44,211.4z"/>
		<path class="st0" d="M118.3,215.4c0.2-1.1,0.3-1.7,0.6-2.9C120.1,214,119.7,214.6,118.3,215.4z"/>
		<path class="st0" d="M122.6,222.1c1.3-0.4,1.9-0.2,1.8,1.2C123.3,223.5,122.8,223.1,122.6,222.1z"/>
		<path class="st0" d="M203.6,242.5c1-0.2,1.5-0.3,2.7-0.6C205.3,243.2,204.8,243.6,203.6,242.5z"/>
		<path class="st0" d="M162.3,164.7c-1.1,2-1.9,1.3-3.4,0.6C160.3,165,161,164.9,162.3,164.7z"/>
		<path class="st0" d="M182.2,208c0.4-1.1,0.6-1.7,0.8-2.4C184,206.6,184.3,207.3,182.2,208z"/>
		<path class="st0" d="M111.7,245.9c-1.6-1.5-1.5-1.1-1-1.8C112.6,245.4,112.5,245,111.7,245.9z"/>
		<path class="st0" d="M106.2,107.8c-0.6,0.6-0.7,1.8-2.6,1.4C105.9,106.8,105.4,107,106.2,107.8z"/>
		<path class="st0" d="M131.4,203.8c-1.9,0-1.6,0.2-1.7-0.5C131.6,203.1,131.3,202.9,131.4,203.8z"/>
		<path class="st0" d="M153.3,247.2c-2.5,0.3-2.1,0.4-2.2-0.5C153.8,246.5,153.4,246.3,153.3,247.2z"/>
		<path class="st0" d="M208.8,203.1c-0.5,1.5-1.2,1.3-2.6,0.7C208,202.7,207.3,202.9,208.8,203.1z"/>
		<path class="st0" d="M33.3,202.4c2.2,0.3,1.8,0.1,1.8,0.7C32.8,203.1,33.1,203.3,33.3,202.4z"/>
		<path class="st0" d="M130.1,43.1c2.9,0,2.4-0.2,2.5,0.6C129.7,44.1,130.2,44.2,130.1,43.1z"/>
		<path class="st0" d="M140.8,261.8c2.6,1.3,2.4,0.9,1.9,1.9C140,262.3,140.3,262.7,140.8,261.8z"/>
		<path class="st0" d="M80.7,156.6c-0.4-1-0.5-1.8,1.2-2C81.4,155.5,81.1,156,80.7,156.6z"/>
		<path class="st0" d="M213,238.2c-1.7-1.5-1.6-1.1-1.1-1.8C213.9,237.5,213.7,237.1,213,238.2z"/>
		<path class="st0" d="M127.9,194.1c-2.7,1.4-2.3,1.5-2.1-0.2C127.8,193.8,127.6,193.3,127.9,194.1z"/>
		<path class="st0" d="M114.9,10.8c-0.3-1.7-0.4-1.4,0.2-1.6C115.4,11.1,115.6,10.8,114.9,10.8z"/>
		<path class="st0" d="M134,242.7c-2.5-0.7-2.1-0.4-1.9-1.2C134.6,242,134.3,241.6,134,242.7z"/>
		<path class="st0" d="M156.7,240c0.5,0.3,0.9,0.7,1.4,1C156.5,242.1,157,240.5,156.7,240z"/>
		<path class="st0" d="M184.4,236.7c0,0,0.5,0.2,0.5,0.2c-0.1,0.6-0.2,1.1-0.3,1.7C183.6,238.2,183.5,238.5,184.4,236.7z"/>
		<path class="st0" d="M153.8,218.8c1.9-0.7,1.6-0.8,1.9-0.1C153.8,219.7,154.2,219.7,153.8,218.8z"/>
		<path class="st0" d="M100.6,212.6c1.5-0.6,1.1-0.6,1.6,0.2C100.6,213.4,100.9,213.5,100.6,212.6z"/>
		<path class="st0" d="M158.8,212c-2,0.5-1.6,0.6-1.9-0.2C159,211,158.6,210.9,158.8,212z"/>
		<path class="st0" d="M128.6,208.4c0.7,1,0.8,0.5-0.1,1.6C127.8,209.3,127.7,209.8,128.6,208.4z"/>
		<path class="st0" d="M105.9,204.5c0,2.4,0.2,2-0.5,2C105.4,204.1,105.2,204.5,105.9,204.5z"/>
		<path class="st0" d="M83.6,202.2c0.4,0.4,0.8,0.7,0.8,0.9c0,0.3-0.4,0.6-0.7,0.7c-0.2,0-0.7-0.3-0.7-0.6
			C82.9,203,83.3,202.7,83.6,202.2z"/>
		<path class="st0" d="M120.1,201.7c-2.1,0.2-1.7,0.3-1.9-0.5C120.3,200.8,120,200.6,120.1,201.7z"/>
		<path class="st0" d="M42.3,198.4c-0.4,0.3-0.9,0.8-1.3,0.8c-0.6,0-0.4-0.9,0.3-1.2c0.2-0.1,0.5-0.1,0.8-0.1
			C42.1,198.1,42.2,198.3,42.3,198.4z"/>
		<path class="st0" d="M98.1,195.1c0.3,1,0.5,1.6,0.7,2.5C97.8,196.8,97.8,196.8,98.1,195.1z"/>
		<path class="st0" d="M50.3,154.6c-0.3-0.4-0.6-0.8-0.9-1.2c0,0,0.3-0.3,0.4-0.3c0.5,0.2,1,0.4,1.5,0.6
			C51,154,50.7,154.3,50.3,154.6z"/>
		<path class="st0" d="M136.6,126c-1.2,1.3-0.9,1.1-1.6,0.5C136.3,125.2,135.9,125.2,136.6,126z"/>
		<path class="st0" d="M61.6,80.7c-1.3,1.2-0.8,1.1-1.9,0.4C60.6,80,60.2,80.3,61.6,80.7z"/>
		<path class="st0" d="M155.2,36.9c-1.9,0.6-1.5,0.7-1.8-0.1C155.1,35.9,154.7,35.8,155.2,36.9z"/>
		<path class="st0" d="M169.2,257.6c0.4,0.5,0.6,0.8,0.8,1.1c-0.3,0.2-0.6,0.4-0.9,0.5c-0.2,0-0.6-0.4-0.6-0.5
			C168.6,258.4,168.9,258.1,169.2,257.6z"/>
		<path class="st0" d="M71.2,192.7c-1.8,0-1.5,0.1-1.5-0.4C71.5,192.3,71.2,192.2,71.2,192.7z"/>
		<path class="st0" d="M133.2,211.6c-1,0.8-0.6,0.9-1.7,0C132.2,210.9,131.7,210.8,133.2,211.6z"/>
		<path class="st0" d="M150.3,215.1c-0.8,0.6-0.6,0.6-1,0.1C149.9,214.5,149.7,214.6,150.3,215.1z"/>
		<path class="st0" d="M98.8,215.4c0.3,1.7,0.4,1.4-0.2,1.6C98,215.2,97.9,215.6,98.8,215.4z"/>
		<path class="st0" d="M132.7,217.3c-1-1.6-1.1-1-0.1-2.2C133.4,216,133.4,215.4,132.7,217.3z"/>
		<path class="st0" d="M162.9,216.6c1.8,0.1,2.1,0.8,2.2,1.6C164.7,218.6,165.1,218.8,162.9,216.6z"/>
		<path class="st0" d="M88.9,35.4c-0.3-0.6-0.5-0.9-0.5-1.2c0-0.2,0.4-0.5,0.6-0.5c0.3,0.1,0.5,0.4,0.8,0.6
			C89.6,34.6,89.4,34.9,88.9,35.4z"/>
		<path class="st0" d="M115.6,194.5c-0.3,0.3-0.6,0.6-0.9,0.7c-0.1,0-0.5-0.4-0.5-0.5c0.1-0.3,0.4-0.5,0.6-0.8
			C115.1,194.1,115.3,194.2,115.6,194.5z"/>
		<path class="st0" d="M139.4,258.6c0.8,1.9,0.8,1.4,0,1.9C138.6,259.4,138.7,259.9,139.4,258.6z"/>
		<path class="st0" d="M59.6,170.9c-0.3-0.3-0.5-0.5-0.7-0.7c0.3-0.3,0.5-0.6,0.8-0.7c0.1-0.1,0.6,0.4,0.6,0.4
			C60.1,170.2,59.9,170.5,59.6,170.9z"/>
		<path class="st0" d="M127.2,198c1.1-0.8,0.8-0.7,1.4-0.4C127.9,198.8,128.2,198.8,127.2,198z"/>
		<path class="st0" d="M133.8,249.7c-2-0.3-1.7-0.1-1.6-0.7C134.3,249.2,133.9,249,133.8,249.7z"/>
		<path class="st0" d="M226.9,156.4c1.6,0.9,1.4,0.6,1.1,1.2C226.3,156.7,226.5,157,226.9,156.4z"/>
		<path class="st0" d="M48.2,190.6c-0.4,0.2-0.7,0.5-1,0.5c-0.1,0-0.5-0.5-0.4-0.6c0.2-0.3,0.5-0.5,0.8-0.7
			C47.7,190.1,47.9,190.3,48.2,190.6z"/>
		<path class="st0" d="M19.7,152.2c-0.7,0.3-0.9,0.8-1.2-0.3c0-0.1,0.3-0.3,0.4-0.3C19.1,151.7,19.3,151.9,19.7,152.2z"/>
		<path class="st0" d="M102.4,144c0.6,0.7,1.1,0.8-0.1,1.6c-0.1,0-0.6-0.4-0.5-0.5C101.8,144.7,102.1,144.5,102.4,144z"/>
		<path class="st0" d="M71.7,200.6c0.8,1.4,0.7,1,0,1.6C70.8,201.1,70.9,201.5,71.7,200.6z"/>
		<path class="st0" d="M19.7,183.5c0.2,1.8,0.3,1.5-0.4,1.6C19.1,183.3,19,183.6,19.7,183.5z"/>
	</g>
</g>
</svg>
