<?xml version="1.0" encoding="utf-8"?>
<!-- Generator: Adobe Illustrator 26.0.3, SVG Export Plug-In . SVG Version: 6.00 Build 0)  -->
<svg version="1.1" id="Layer_1" xmlns="http://www.w3.org/2000/svg" xmlns:xlink="http://www.w3.org/1999/xlink" x="0px" y="0px"
	 width="90.3px" height="89.6px" viewBox="0 0 90.3 89.6" style="enable-background:new 0 0 90.3 89.6;" xml:space="preserve">
<style type="text/css">
	.st0{fill:#26282C;}
</style>
<g>
	<path class="st0" d="M79,30.3C79,53.4,61.5,80,29.3,80c-9.9,0-19.1-2.9-26.8-7.8c1.4,0.2,2.8,0.2,4.2,0.2c8.2,0,15.7-2.8,21.7-7.5
		c-7.7-0.2-14.1-5.2-16.3-12.1c1.1,0.2,2.2,0.3,3.3,0.3c1.6,0,3.1-0.2,4.6-0.6c-8-1.6-14-8.7-14-17.1v-0.2c2.3,1.3,5,2.1,7.9,2.2
		c-4.7-3.1-7.8-8.5-7.8-14.5c0-3.2,0.9-6.2,2.4-8.8c8.6,10.6,21.5,17.5,36,18.3c-0.3-1.3-0.4-2.6-0.4-4c0-9.6,7.8-17.5,17.5-17.5
		c5,0,9.6,2.1,12.8,5.5c3.9-0.8,7.7-2.2,11.1-4.2c-1.3,4.1-4.1,7.5-7.7,9.6c3.5-0.4,6.9-1.4,10.1-2.7c-2.4,3.5-5.4,6.5-8.8,9
		C79,28.8,79,29.5,79,30.3z"/>
</g>
</svg>
